<svg width="1015" height="398" viewBox="0 0 1015 398" fill="none" xmlns="http://www.w3.org/2000/svg">
<path opacity="0.1" d="M522.217 349.057C793.835 322.568 1010.57 265.651 1006.3 221.93C1002.04 178.209 778.394 164.239 506.777 190.728C235.159 217.217 18.4265 274.133 22.6903 317.854C26.9541 361.576 250.6 375.545 522.217 349.057Z" fill="#6C63FF"/>
<path d="M963.504 228.896C981.994 190.996 978.174 129.306 976.204 108.366C975.774 103.786 975.434 101.156 975.434 101.156C975.434 101.156 959.134 98.5862 965.144 78.8562C968.084 69.1962 957.644 63.8562 946.244 60.9262C938.093 58.9768 929.776 57.8016 921.404 57.4162L763.514 47.6662C741.864 13.3062 699.264 18.8262 699.264 18.8262C699.264 18.8262 661.264 14.8761 634.324 14.4661C630.236 10.864 625.754 7.73429 620.964 5.13616C618.11 3.42113 615.071 2.03558 611.904 1.00616C608.054 -0.104653 603.998 -0.298825 600.06 0.439171C596.121 1.17717 592.411 2.82684 589.224 5.25616C587.671 6.37327 586.407 7.84376 585.534 9.54617C585.198 10.3202 584.947 11.1282 584.784 11.9562C584.378 13.3682 584.044 14.8 583.784 16.2461C583.55 16.9422 583.213 17.5995 582.784 18.1962C581.704 19.7262 579.844 20.8762 579.604 22.7262C579.599 22.8327 579.599 22.9396 579.604 23.0462C579.407 23.3996 579.274 23.7858 579.214 24.1861C579.142 25.0095 579.32 25.8354 579.724 26.5562C579.784 26.6762 579.854 26.7862 579.924 26.8962C578.595 28.821 577.51 30.9036 576.694 33.0962C576.324 33.2975 575.967 33.5213 575.624 33.7662L575.324 33.9862V34.5962L575.154 34.7262L574.784 44.5762L574.994 44.7362C575.297 49.3311 576.683 53.7891 579.04 57.745C581.397 61.701 584.657 65.0426 588.554 67.4961C588.684 68.1261 588.804 68.7661 588.924 69.4361C589.473 72.6662 589.721 75.9403 589.664 79.2161H589.494C584.794 77.2161 576.754 80.1562 569.844 83.5862H480.324C497.784 61.1262 519.144 43.7062 519.144 43.7062V23.9661C503.884 23.2061 369.824 87.6062 340.434 101.826L339.134 102.456L188.084 107.136C160.724 106.966 136.804 110.986 116.084 117.536C81.4599 128.412 50.3458 148.29 25.9242 175.136C8.0842 194.716 0.264196 210.896 0.264196 210.896L0.434194 212.256L0.264196 212.606L0.504194 212.816L4.57419 244.936L7.3742 267.036C-12.0858 279.616 13.1242 284.656 13.1242 284.656C37.1242 305.236 75.7342 304.386 75.7342 304.386C85.1642 317.256 112.614 315.536 112.614 315.536H256.704C258.948 302.307 261.953 289.219 265.704 276.336C271.854 320.626 306.804 354.556 348.984 354.556C352.113 354.554 355.238 354.364 358.344 353.986C361.45 354.364 364.576 354.554 367.704 354.556C410.374 354.556 445.634 319.826 451.184 274.796H458.234C456.918 284.857 454.631 294.766 451.404 304.386C580.914 266.646 821.924 248.636 821.924 248.636C822.924 239.136 824.024 229.956 825.214 221.146C835.144 245.796 857.654 263.006 883.854 263.006C886.234 263.003 888.612 262.856 890.974 262.566C893.337 262.856 895.714 263.003 898.094 263.006C929.204 263.006 955.094 238.736 960.934 206.556C961.708 212.236 962.148 217.955 962.254 223.686C961.144 229.146 960.174 232.636 960.044 233.126C960.824 231.699 961.564 230.239 962.264 228.746C962.264 229.326 962.264 229.926 962.264 230.526C962.024 231.526 961.854 232.086 961.804 232.276L962.244 231.456C962.244 231.896 962.244 232.326 962.244 232.766C962.144 232.806 962.674 231.366 963.504 228.896Z" fill="url(#paint0_linear_28_329)"/>
<path d="M948.394 92.7162H651.494V212.486H948.394V92.7162Z" fill="#6F7D95"/>
<path d="M576.004 36.6261L618.174 131.096L701.684 126.036L705.054 87.2361L707.584 41.6861L589.504 33.2461L576.004 36.6261Z" fill="#4B5C7A"/>
<path d="M576.004 36.6261C576.004 36.6261 592.004 21.4461 611.434 18.0661C630.864 14.6861 695.784 21.4361 695.784 21.4361L705.064 37.4361L703.324 45.0561L576.004 36.6261Z" fill="#FF4D52"/>
<path d="M734.994 85.1262H435.564V172.846H734.994V85.1262Z" fill="#4B5C7A"/>
<path d="M661.324 144.806C669.234 118.356 653.464 100.976 653.464 100.976L627.324 82.7362C627.302 82.7982 627.276 82.8584 627.244 82.9162C623.844 78.9318 621.411 74.2158 620.134 69.1362C620.054 68.8162 619.984 68.4862 619.904 68.1362C622.294 66.3608 624.386 64.2175 626.104 61.7862C630.364 59.1762 632.264 54.9762 632.984 50.7862C635.725 46.7193 637.907 42.3032 639.474 37.6562C639.733 36.9046 639.953 36.1403 640.134 35.3662C640.638 33.9251 640.862 32.4012 640.794 30.8762C640.581 29.178 640.016 27.543 639.134 26.0762C634.734 18.0762 626.814 12.5062 618.784 7.96616C615.977 6.2803 612.988 4.91827 609.874 3.90617C606.089 2.81494 602.1 2.62463 598.228 3.35044C594.356 4.07626 590.708 5.69808 587.574 8.08619C586.047 9.18496 584.802 10.6315 583.944 12.3062C583.613 13.0673 583.365 13.8619 583.204 14.6762C582.816 16.0658 582.499 17.4743 582.254 18.8962C582.036 19.5755 581.72 20.2191 581.314 20.8062C580.244 22.3062 578.424 23.4362 578.184 25.2662C578.178 25.3728 578.178 25.4796 578.184 25.5862C577.991 25.9336 577.862 26.313 577.804 26.7062C577.73 27.5156 577.905 28.3283 578.304 29.0362C578.364 29.1562 578.434 29.2662 578.504 29.3762C577.195 31.2698 576.127 33.3189 575.324 35.4762C574.958 35.6743 574.604 35.8947 574.264 36.1362L573.974 36.3462V36.9462L573.804 37.0762L573.434 46.7662L573.634 46.9262C573.93 51.4459 575.292 55.8313 577.609 59.7231C579.926 63.6149 583.132 66.9024 586.964 69.3162C587.094 69.9362 587.214 70.5662 587.324 71.2262C587.928 74.7152 588.169 78.2574 588.044 81.7962C588.005 81.4908 588.005 81.1816 588.044 80.8762C580.814 77.6062 565.044 86.6462 558.694 90.6462C557.732 91.1023 556.834 91.684 556.024 92.3762L555.914 92.4562C551.544 95.9962 542.914 105.836 536.064 131.126C526.564 166.416 527.554 174.416 520.634 182.596C513.714 190.776 506.844 248.406 506.844 248.406L520.774 252.156L522.554 246.436C539.114 261.536 585.484 268.806 585.484 268.806L586.904 264.396C594.014 266.956 605.904 263.066 605.904 263.066C623.284 256.926 629.794 241.346 642.404 220.796C655.014 200.246 661.324 144.806 661.324 144.806ZM591.224 251.136L623.324 151.566C626.234 167.026 613.394 191.376 612.254 207.296C611.544 217.536 599.624 237.886 591.224 251.136Z" fill="url(#paint1_linear_28_329)"/>
<path d="M631.384 40.0362C631.384 40.0362 636.974 61.3262 620.384 65.0362C603.794 68.7462 614.724 55.4662 614.724 55.4662L630.724 39.8762L631.384 40.0362Z" fill="#472727"/>
<path d="M562.024 90.7761C562.024 90.7761 549.684 95.7761 540.614 129.456C531.544 163.136 532.444 170.736 525.914 178.566C519.384 186.396 512.694 241.336 512.694 241.336L525.754 244.856L537.124 208.136L568.394 111.136L562.024 90.7761Z" fill="#DDE0E4"/>
<path opacity="0.05" d="M562.024 90.7761C562.024 90.7761 549.684 95.7761 540.614 129.456C531.544 163.136 532.444 170.736 525.914 178.566C519.384 186.396 512.694 241.336 512.694 241.336L525.754 244.856L537.124 208.136L568.394 111.136L562.024 90.7761Z" fill="black"/>
<path d="M630.544 86.9762C630.544 86.9762 578.884 113.236 586.444 96.1062C590.184 87.6462 590.044 78.8762 588.954 72.1062C588.332 68.1184 587.241 64.218 585.704 60.4862C585.704 60.4862 620.824 32.7062 618.764 55.3862C618.271 60.2677 618.609 65.1976 619.764 69.9661C622.804 81.9961 630.544 86.9762 630.544 86.9762Z" fill="#DB8B8B"/>
<path opacity="0.1" d="M619.764 70.0062C616.442 72.6742 612.536 74.5181 608.364 75.3871C604.193 76.2561 599.875 76.1256 595.764 75.0062C593.36 74.3596 591.055 73.3873 588.914 72.1162C588.292 68.1284 587.201 64.228 585.664 60.4961C585.664 60.4961 620.784 32.7162 618.724 55.3962C618.241 60.2899 618.592 65.2302 619.764 70.0062Z" fill="black"/>
<path d="M629.495 54.1464C633.378 39.7262 624.835 24.8887 610.415 21.006C595.995 17.1232 581.157 25.6654 577.275 40.0856C573.392 54.5058 581.934 69.3433 596.354 73.2261C610.775 77.1088 625.612 68.5666 629.495 54.1464Z" fill="#DB8B8B"/>
<path opacity="0.1" d="M589.624 34.3662C588.882 34.8194 588.057 35.1179 587.196 35.2439C586.336 35.3699 585.46 35.3208 584.619 35.0994C583.778 34.8781 582.991 34.4891 582.305 33.9558C581.618 33.4225 581.047 32.7559 580.624 31.9962C580.253 31.3185 580.093 30.5455 580.164 29.7762C580.394 28.0362 582.114 26.9562 583.164 25.5162C584.794 23.1862 584.484 19.9962 585.664 17.4062C586.477 15.8243 587.648 14.4545 589.084 13.4062C592.007 11.1215 595.428 9.56086 599.069 8.85175C602.711 8.14264 606.468 8.30522 610.034 9.32618C612.952 10.2782 615.751 11.5633 618.374 13.1562C625.894 17.4462 633.304 22.6962 637.374 30.3262C638.199 31.7263 638.723 33.2826 638.914 34.8962C638.959 36.6393 638.653 38.3737 638.014 39.9962C636.51 44.4777 634.415 48.7386 631.784 52.6662C630.904 51.5734 629.799 50.6832 628.544 50.0562C627.91 49.7567 627.199 49.6641 626.51 49.7915C625.82 49.9189 625.189 50.2599 624.704 50.7662C623.834 51.8762 623.304 53.9962 621.984 53.4962C621.124 53.1762 621.134 51.9862 621.174 51.0662C621.354 47.0662 619.174 43.2962 616.244 40.5962C613.314 37.8962 609.684 36.1162 606.104 34.3662C603.534 33.1062 600.104 30.2162 597.284 29.7062C593.784 29.0562 592.134 32.8162 589.624 34.3662Z" fill="black"/>
<path d="M589.994 32.9962C589.252 33.4494 588.427 33.7479 587.566 33.8739C586.706 33.9999 585.83 33.9508 584.989 33.7294C584.148 33.5081 583.361 33.119 582.675 32.5858C581.988 32.0525 581.417 31.3859 580.994 30.6262C580.623 29.9485 580.463 29.1755 580.534 28.4062C580.764 26.6662 582.484 25.5862 583.534 24.1462C585.164 21.8162 584.854 18.6262 586.034 16.0362C586.847 14.4543 588.018 13.0845 589.454 12.0362C592.377 9.75152 595.798 8.19087 599.439 7.48176C603.081 6.77265 606.838 6.93522 610.404 7.95619C613.322 8.90816 616.121 10.1933 618.744 11.7862C626.264 16.0762 633.674 21.3262 637.744 28.9562C638.569 30.3563 639.093 31.9126 639.284 33.5262C639.329 35.2693 639.023 37.0037 638.384 38.6262C636.88 43.1077 634.785 47.3686 632.154 51.2962C631.274 50.2034 630.169 49.3132 628.914 48.6862C628.281 48.3867 627.569 48.2941 626.88 48.4215C626.19 48.5489 625.559 48.8899 625.074 49.3962C624.204 50.5062 623.674 52.6262 622.354 52.1262C621.494 51.8062 621.504 50.6162 621.544 49.6962C621.724 45.6962 619.544 41.9262 616.614 39.2262C613.684 36.5262 610.054 34.7462 606.474 32.9962C603.904 31.7362 600.474 28.8462 597.654 28.3362C594.154 27.6762 592.504 31.4462 589.994 32.9962Z" fill="#472727"/>
<path d="M604.332 90.1179C604.332 90.1179 625.722 85.9279 626.652 82.4979L651.112 99.7679C651.112 99.7679 665.832 116.258 658.302 141.498C658.302 141.498 652.172 194.388 640.252 214.018C628.332 233.648 621.482 259.078 605.152 265.018C605.152 265.018 589.452 254.898 584.272 255.018C584.272 255.018 610.862 216.488 612.002 201.318C613.142 186.148 625.292 162.888 622.632 148.168L586.632 260.068C586.632 260.068 528.632 251.068 522.752 231.818C522.752 231.818 527.752 224.308 526.822 216.698C525.892 209.088 548.702 151.838 548.702 151.838L559.622 92.1379C559.622 92.1379 581.222 77.0479 589.822 80.9679C589.782 80.9079 588.222 88.3579 604.332 90.1179Z" fill="#DDE0E4"/>
<g opacity="0.1">
<path d="M611.944 44.1362C606.664 36.9362 596.594 42.8462 594.944 43.8762L592.354 43.6162C590.094 41.1562 583.164 34.6162 576.654 39.4262L576.374 39.6362L575.984 48.8662L576.264 49.0862C578.145 50.5378 580.277 51.6295 582.554 52.3062C583.996 52.73 585.518 52.8054 586.994 52.5262C588.087 52.2741 589.111 51.7852 589.994 51.094C590.877 50.4029 591.597 49.5263 592.104 48.5262L593.454 48.6162L594.454 48.4262C594.654 49.4896 595.079 50.4982 595.7 51.3845C596.32 52.2709 597.123 53.0146 598.054 53.5662C602.524 56.0962 609.054 53.5662 609.324 53.5162L609.664 53.3862L612.064 44.4562L611.944 44.1362ZM608.554 52.2562C607.224 52.7062 602.204 54.1862 598.834 52.2562C597.995 51.7302 597.288 51.0184 596.768 50.1757C596.248 49.333 595.928 48.382 595.834 47.3962L595.714 46.6662L593.524 47.1162L591.324 47.0362L591.114 47.4562C590.713 48.3646 590.108 49.1687 589.347 49.8067C588.586 50.4447 587.689 50.8995 586.724 51.1362C582.954 51.9462 578.594 49.0262 577.454 48.1962L577.784 40.3962C583.444 36.5862 589.684 42.7662 591.484 44.7862L591.674 44.9962L595.324 45.3562L595.544 45.2062C595.644 45.1462 604.714 39.0562 609.884 43.9562C610.141 44.1939 610.378 44.4513 610.594 44.7262L608.554 52.2562Z" fill="black"/>
<path d="M628.324 48.7762L611.324 47.3662L609.924 47.0962L610.554 44.7362C610.338 44.4614 610.101 44.2039 609.844 43.9662L611.904 44.1662L625.814 45.5262L628.324 48.7762Z" fill="black"/>
</g>
<path d="M612.302 43.0579C607.022 35.8579 596.952 41.7679 595.302 42.7979L592.712 42.5379C590.452 40.0779 583.522 33.5379 577.012 38.3479L576.732 38.5579L576.342 47.7879L576.622 48.0079C578.503 49.4596 580.635 50.5513 582.912 51.2279C584.354 51.6518 585.876 51.7272 587.352 51.4479C588.445 51.1959 589.469 50.707 590.352 50.0158C591.235 49.3246 591.955 48.448 592.462 47.4479L593.812 47.5379L594.812 47.3479C595.012 48.4114 595.437 49.4199 596.058 50.3063C596.679 51.1926 597.481 51.9364 598.412 52.4879C602.882 55.0179 609.412 52.4879 609.682 52.4379L610.022 52.3079L612.422 43.3779L612.302 43.0579ZM608.912 51.1779C607.582 51.6279 602.562 53.1079 599.192 51.1779C598.353 50.652 597.646 49.9402 597.126 49.0975C596.606 48.2548 596.286 47.3038 596.192 46.3179L596.072 45.5879L593.882 46.0379L591.712 45.8979L591.502 46.3179C591.108 47.2315 590.509 48.0422 589.751 48.6872C588.993 49.3323 588.097 49.7944 587.132 50.0379C583.362 50.8479 579.002 47.9279 577.862 47.0979L578.192 39.2979C583.852 35.4879 590.092 41.6679 591.892 43.6879L592.082 43.8979L595.732 44.2579L595.952 44.1079C596.052 44.0479 605.122 37.9579 610.292 42.8579C610.549 43.0957 610.786 43.3531 611.002 43.6279L608.912 51.1779Z" fill="#472727"/>
<path d="M628.484 48.1362L611.544 46.7262L610.144 46.4562L610.774 44.0962C610.558 43.8213 610.321 43.5639 610.064 43.3262L612.124 43.5262L626.034 44.8862L628.484 48.1362Z" fill="#472727"/>
<path d="M512.314 153.446H215.414V273.216H512.314V153.446Z" fill="#6F7D95"/>
<path d="M351.294 351.656C397.051 351.656 434.144 311.062 434.144 260.986C434.144 210.91 397.051 170.316 351.294 170.316C305.537 170.316 268.444 210.91 268.444 260.986C268.444 311.062 305.537 351.656 351.294 351.656Z" fill="#4B5C7A"/>
<path opacity="0.05" d="M351.294 351.656C397.051 351.656 434.144 311.062 434.144 260.986C434.144 210.91 397.051 170.316 351.294 170.316C305.537 170.316 268.444 210.91 268.444 260.986C268.444 311.062 305.537 351.656 351.294 351.656Z" fill="black"/>
<path d="M369.704 351.656C415.461 351.656 452.554 311.062 452.554 260.986C452.554 210.91 415.461 170.316 369.704 170.316C323.947 170.316 286.854 210.91 286.854 260.986C286.854 311.062 323.947 351.656 369.704 351.656Z" fill="#4B5C7A"/>
<path opacity="0.05" d="M367.864 298.266C388.199 298.266 404.684 281.781 404.684 261.446C404.684 241.111 388.199 224.626 367.864 224.626C347.529 224.626 331.044 241.111 331.044 261.446C331.044 281.781 347.529 298.266 367.864 298.266Z" fill="black"/>
<path d="M367.864 272.496C373.967 272.496 378.914 267.549 378.914 261.446C378.914 255.343 373.967 250.396 367.864 250.396C361.761 250.396 356.814 255.343 356.814 261.446C356.814 267.549 361.761 272.496 367.864 272.496Z" stroke="#6F7D95" stroke-width="2" stroke-miterlimit="10"/>
<path d="M367.864 244.876C369.389 244.876 370.624 243.641 370.624 242.116C370.624 240.592 369.389 239.356 367.864 239.356C366.34 239.356 365.104 240.592 365.104 242.116C365.104 243.641 366.34 244.876 367.864 244.876Z" fill="#6F7D95"/>
<path d="M384.741 249.56C385.909 248.58 386.061 246.84 385.081 245.672C384.102 244.504 382.361 244.352 381.193 245.332C380.025 246.311 379.873 248.052 380.853 249.22C381.833 250.388 383.573 250.54 384.741 249.56Z" fill="#6F7D95"/>
<path d="M391.331 262.925C391.596 261.424 390.594 259.993 389.092 259.728C387.591 259.463 386.16 260.466 385.895 261.967C385.63 263.468 386.633 264.899 388.134 265.164C389.635 265.429 391.067 264.426 391.331 262.925Z" fill="#6F7D95"/>
<path d="M382.103 278.8C383.423 278.038 383.875 276.35 383.113 275.03C382.351 273.71 380.663 273.257 379.343 274.02C378.023 274.782 377.57 276.47 378.332 277.79C379.095 279.11 380.783 279.562 382.103 278.8Z" fill="#6F7D95"/>
<path d="M367.571 280.294C368.092 278.862 367.354 277.278 365.922 276.756C364.489 276.235 362.905 276.974 362.384 278.406C361.863 279.838 362.601 281.422 364.034 281.944C365.466 282.465 367.05 281.726 367.571 280.294Z" fill="#6F7D95"/>
<path d="M353.542 271.77C354.974 271.249 355.713 269.665 355.191 268.233C354.67 266.8 353.086 266.062 351.654 266.583C350.221 267.104 349.483 268.688 350.004 270.121C350.526 271.553 352.109 272.292 353.542 271.77Z" fill="#6F7D95"/>
<path d="M354.829 254.528C355.591 253.208 355.139 251.52 353.819 250.757C352.499 249.995 350.811 250.448 350.049 251.768C349.287 253.088 349.739 254.776 351.059 255.538C352.379 256.3 354.067 255.848 354.829 254.528Z" fill="#6F7D95"/>
<path d="M965.014 190.916C962.184 210.456 954.314 231.846 954.314 231.846C954.368 230.513 954.401 229.196 954.414 227.896C954.414 226.216 954.414 224.556 954.414 222.896C953.414 169.036 924.064 135.806 905.134 119.896C900.214 115.704 894.922 111.968 889.324 108.736H940.774C940.774 108.736 961.014 150.066 965.234 170.306C966.454 175.986 966.114 183.316 965.014 190.916Z" fill="#FF4D52"/>
<path opacity="0.05" d="M965.014 190.916C962.184 210.456 954.314 231.846 954.314 231.846C954.368 230.513 954.401 229.196 954.414 227.896C954.414 226.216 954.414 224.556 954.414 222.896C953.414 169.036 924.064 135.806 905.134 119.896C900.214 115.704 894.922 111.968 889.324 108.736H940.774C940.774 108.736 961.014 150.066 965.234 170.306C966.454 175.986 966.114 183.316 965.014 190.916Z" fill="black"/>
<path d="M877.294 261.626C912.094 261.626 940.304 230.752 940.304 192.666C940.304 154.581 912.094 123.706 877.294 123.706C842.495 123.706 814.284 154.581 814.284 192.666C814.284 230.752 842.495 261.626 877.294 261.626Z" fill="#4B5C7A"/>
<path opacity="0.05" d="M877.294 261.626C912.094 261.626 940.304 230.752 940.304 192.666C940.304 154.581 912.094 123.706 877.294 123.706C842.495 123.706 814.284 154.581 814.284 192.666C814.284 230.752 842.495 261.626 877.294 261.626Z" fill="black"/>
<path d="M891.472 261.188C926.272 261.188 954.482 230.314 954.482 192.228C954.482 154.143 926.272 123.268 891.472 123.268C856.673 123.268 828.462 154.143 828.462 192.228C828.462 230.314 856.673 261.188 891.472 261.188Z" fill="#4B5C7A"/>
<path opacity="0.05" d="M890.072 220.578C905.536 220.578 918.072 208.042 918.072 192.578C918.072 177.114 905.536 164.578 890.072 164.578C874.608 164.578 862.072 177.114 862.072 192.578C862.072 208.042 874.608 220.578 890.072 220.578Z" fill="black"/>
<path d="M889.894 201.416C894.533 201.416 898.294 197.655 898.294 193.016C898.294 188.377 894.533 184.616 889.894 184.616C885.255 184.616 881.494 188.377 881.494 193.016C881.494 197.655 885.255 201.416 889.894 201.416Z" stroke="#6F7D95" stroke-width="2" stroke-miterlimit="10"/>
<path d="M889.894 180.416C891.054 180.416 891.994 179.476 891.994 178.316C891.994 177.156 891.054 176.216 889.894 176.216C888.734 176.216 887.794 177.156 887.794 178.316C887.794 179.476 888.734 180.416 889.894 180.416Z" fill="#6F7D95"/>
<path d="M902.737 183.977C903.625 183.231 903.741 181.906 902.996 181.018C902.25 180.13 900.926 180.014 900.037 180.759C899.149 181.505 899.033 182.829 899.778 183.718C900.524 184.606 901.849 184.722 902.737 183.977Z" fill="#6F7D95"/>
<path d="M907.741 194.15C907.942 193.008 907.18 191.918 906.038 191.717C904.895 191.516 903.806 192.278 903.605 193.42C903.403 194.563 904.166 195.652 905.308 195.853C906.451 196.055 907.54 195.292 907.741 194.15Z" fill="#6F7D95"/>
<path d="M900.731 206.221C901.736 205.641 902.08 204.357 901.5 203.352C900.92 202.348 899.636 202.004 898.631 202.584C897.627 203.163 897.283 204.448 897.863 205.452C898.443 206.457 899.727 206.801 900.731 206.221Z" fill="#6F7D95"/>
<path d="M889.677 207.354C890.073 206.264 889.511 205.059 888.422 204.662C887.332 204.266 886.127 204.827 885.73 205.917C885.333 207.007 885.895 208.212 886.985 208.609C888.075 209.006 889.28 208.444 889.677 207.354Z" fill="#6F7D95"/>
<path d="M879.002 200.863C880.092 200.466 880.654 199.261 880.257 198.171C879.861 197.081 878.656 196.519 877.566 196.916C876.476 197.312 875.914 198.518 876.311 199.607C876.707 200.697 877.912 201.259 879.002 200.863Z" fill="#6F7D95"/>
<path d="M879.994 187.752C880.574 186.748 880.23 185.463 879.225 184.883C878.221 184.303 876.937 184.648 876.357 185.652C875.777 186.656 876.121 187.941 877.125 188.521C878.13 189.101 879.414 188.756 879.994 187.752Z" fill="#6F7D95"/>
<path d="M15.9442 270.266L8.32422 210.376H98.5742L144.964 251.706L122.194 304.846C122.194 304.846 30.3242 289.666 15.9442 270.266Z" fill="#FF4D52"/>
<path opacity="0.05" d="M144.994 251.706L122.224 304.846C122.224 304.846 30.3243 289.666 15.9443 270.266L15.6143 267.656L8.61427 212.276L8.54427 211.726L8.37427 210.386H98.6243L144.994 251.706Z" fill="black"/>
<path d="M518.832 26.0681V45.4681C518.832 45.4681 472.192 83.4681 461.092 119.318C459.155 125.14 458.423 131.295 458.942 137.408C463.162 177.048 337.502 105.348 337.502 105.348L343.092 102.628C371.982 88.6981 503.822 25.3081 518.832 26.0681Z" fill="#7597CE"/>
<path d="M624.934 120.136C624.934 120.136 668.614 98.6762 675.624 82.7962C676.564 80.6662 677.454 78.5162 678.494 76.4262C682.824 67.7162 691.924 47.2862 687.344 37.4762C681.444 24.8262 701.684 39.1662 701.684 39.1662L689.874 99.0362L661.194 115.036L624.084 120.136" fill="#FF4D52"/>
<path opacity="0.05" d="M624.934 120.136C624.934 120.136 668.614 98.6762 675.624 82.7962C676.564 80.6662 677.454 78.5162 678.494 76.4262C682.824 67.7162 691.924 47.2862 687.344 37.4762C681.444 24.8262 701.684 39.1662 701.684 39.1662L689.874 99.0362L661.194 115.036L624.084 120.136" fill="black"/>
<path opacity="0.05" d="M144.994 251.706L122.224 304.846C122.224 304.846 30.3242 289.666 15.9442 270.266L15.6142 267.656C15.9842 267.406 16.3742 267.146 16.7842 266.896C16.7842 266.896 44.6142 288.826 107.884 293.896C107.884 293.896 145.884 263.526 84.2642 229.796C84.2642 229.796 30.6642 231.476 8.58424 212.286L8.34424 212.086L8.51424 211.736C8.66091 211.45 8.89758 211.003 9.22424 210.396H98.5942L144.994 251.706Z" fill="black"/>
<path opacity="0.05" d="M458.764 137.836C462.984 177.486 337.324 105.786 337.324 105.786L342.914 103.066C346.614 107.006 361.384 120.296 390.914 118.856C409.914 117.926 438.764 118.776 460.964 119.746C459.01 125.564 458.261 131.719 458.764 137.836Z" fill="black"/>
<path opacity="0.05" d="M512.324 153.446V273.216H457.164C460.804 245.356 458.704 204.746 423.324 181.466C410.128 172.841 394.807 168.028 379.049 167.559C363.291 167.089 347.71 170.982 334.024 178.806C310.834 192.046 284.904 218.966 268.424 273.216H215.424V153.446H512.324Z" fill="black"/>
<path opacity="0.05" d="M965.014 190.916C962.934 204.136 959.594 216.976 954.424 227.916C953.758 229.389 953.031 230.826 952.244 232.226C952.374 231.736 953.324 228.316 954.424 222.936C959.784 196.736 968.954 124.236 907.514 120.096C906.714 120.046 905.924 119.996 905.134 119.966C900.217 115.749 894.925 111.99 889.324 108.736H940.774C940.774 108.736 961.014 150.066 965.234 170.306C966.454 175.986 966.114 183.316 965.014 190.916Z" fill="black"/>
<path d="M954.092 230.968C954.892 228.078 983.392 123.838 909.362 118.848C834.292 113.788 825.012 170.298 816.582 247.058C816.582 247.058 579.582 264.768 452.202 301.888C452.202 301.888 482.782 218.088 425.202 180.188C412.007 171.563 396.685 166.75 380.927 166.28C365.169 165.811 349.588 169.703 335.902 177.528C307.502 193.748 274.972 230.528 260.742 312.848H119.022C119.022 312.848 92.0223 314.538 82.7523 301.848C82.7523 301.848 44.7523 302.688 21.1823 282.448C21.1823 282.448 -4.11767 277.388 16.1223 264.738C16.1223 264.738 44.8023 286.668 108.062 291.738C108.062 291.738 146.062 261.368 84.4423 227.638C84.4423 227.638 30.4423 229.328 8.53233 209.928C8.53233 209.928 16.2223 194.018 33.7723 174.768C57.7765 148.363 88.3622 128.807 122.402 118.098C145.339 111.007 169.247 107.559 193.252 107.878L342.122 103.238C342.122 103.238 356.502 121.798 391.042 120.108C425.582 118.418 493.102 122.638 493.102 122.638H493.772L632.692 116.348C636.681 115.785 640.627 114.95 644.502 113.848C664.642 108.378 702.842 91.788 695.952 45.458L914.412 58.958C922.646 59.3364 930.826 60.4915 938.842 62.408C950.062 65.288 960.322 70.548 957.432 80.048C951.532 99.448 967.552 101.978 967.552 101.978C967.552 101.978 967.892 104.568 968.312 109.068C970.312 130.288 974.242 194.088 954.092 230.968Z" fill="#FF4D52"/>
<path opacity="0.05" d="M285.854 138.686C285.854 138.686 194.754 139.526 134.854 192.686H168.594C168.594 192.686 263.064 168.226 285.834 148.826L285.854 138.686Z" fill="black"/>
<path d="M285.182 137.398C285.182 137.398 194.082 138.238 134.182 191.398H167.922C167.922 191.398 262.392 166.938 285.162 147.538L285.182 137.398Z" fill="#FFEC9F"/>
<path opacity="0.05" d="M123.064 119.386V142.056L46.3242 177.486L34.4442 176.056C58.4456 149.653 89.0277 130.097 123.064 119.386Z" fill="black"/>
<path d="M122.392 118.108V140.778L45.6423 176.198L33.7623 174.768C57.7677 148.367 88.3533 128.814 122.392 118.108Z" fill="#FFEC9F"/>
<path opacity="0.05" d="M231.024 221.346C231.024 221.346 189.694 246.646 185.474 302.346H209.094C209.094 302.346 218.374 241.616 245.364 221.346H231.024Z" fill="black"/>
<path opacity="0.05" d="M719.404 223.036L505.154 248.336C505.154 248.336 490.984 158.136 493.604 123.046L632.524 116.756C636.509 116.202 640.452 115.377 644.324 114.286V122.656L748.914 97.3562C748.914 97.3562 766.634 123.496 719.404 223.036Z" fill="black"/>
<path d="M695.784 21.4361C695.784 21.4361 741.334 15.5361 761.574 54.3361L696.434 51.8261L695.784 21.4361Z" fill="#FF4D52"/>
<path opacity="0.05" d="M758.414 67.9362C756.624 73.5462 757.974 79.7162 768.344 83.9862C776.974 87.5462 787.094 83.4262 790.044 74.5762C791.764 69.4162 790.584 63.5762 781.284 58.8262C771.984 54.0762 761.544 58.1362 758.414 67.9362Z" fill="black"/>
<path d="M9.95422 223.016C9.95422 223.016 64.0142 251.016 102.814 240.416" stroke="#FF4D52" stroke-miterlimit="10"/>
<path d="M11.8643 238.136C11.8643 238.136 46.7943 265.076 117.394 258.816" stroke="#FF4D52" stroke-miterlimit="10"/>
<path d="M13.4742 250.826C13.4742 250.826 48.1242 280.896 119.324 271.366" stroke="#FF4D52" stroke-miterlimit="10"/>
<path opacity="0.05" d="M758.964 49.8062C758.964 49.8062 730.784 74.1361 705.064 85.1361C705.064 85.1361 744.124 92.0862 758.964 49.8062Z" fill="black"/>
<path opacity="0.1" d="M460.424 121.416C460.424 121.416 594.144 134.046 644.744 122.236C644.744 122.236 647.444 124.026 631.334 116.806L460.424 121.416Z" fill="black"/>
<defs>
<linearGradient id="paint0_linear_28_329" x1="488.964" y1="354.596" x2="488.964" y2="0.0161468" gradientUnits="userSpaceOnUse">
<stop stop-color="#808080" stop-opacity="0.25"/>
<stop offset="0.54" stop-color="#808080" stop-opacity="0.12"/>
<stop offset="1" stop-color="#808080" stop-opacity="0.1"/>
</linearGradient>
<linearGradient id="paint1_linear_28_329" x1="565.272" y1="264.684" x2="633.748" y2="10.3718" gradientUnits="userSpaceOnUse">
<stop stop-color="#808080" stop-opacity="0.25"/>
<stop offset="0.54" stop-color="#808080" stop-opacity="0.12"/>
<stop offset="1" stop-color="#808080" stop-opacity="0.1"/>
</linearGradient>
</defs>
</svg>
