<svg width="582" height="425" viewBox="0 0 565 421" fill="none" xmlns="http://www.w3.org/2000/svg">
    <g clip-path="url(#clip0_40_3)">
        <path d="M565 28.0766V334.482C564.997 339.173 564.221 343.788 562.742 347.908C561.749 350.671 560.456 353.16 558.918 355.27C558.804 355.431 558.69 355.58 558.575 355.716C557.18 357.569 555.604 359.084 553.904 360.207C553.15 360.715 552.374 361.141 551.58 361.482C551.058 361.705 550.52 361.903 549.982 362.051C549.253 362.271 548.515 362.415 547.773 362.484C547.357 362.534 546.933 362.558 546.501 362.558H359.912L350.577 363.326L341.756 362.558H18.4991C18.124 362.558 17.7408 362.546 17.374 362.497C16.3638 362.41 15.3602 362.195 14.3737 361.853C10.2894 360.436 6.64307 356.957 4.03179 351.984C1.42051 347.011 -0.00100869 340.841 5.37015e-07 334.482V28.0766C0.00590804 20.633 1.95682 13.4968 5.42479 8.23335C8.89275 2.96991 13.5946 0.008966 18.4991 0H546.501C551.405 0.008966 556.107 2.96991 559.575 8.23335C563.043 13.4968 564.994 20.633 565 28.0766Z" fill="#FFEC9F"/>
        <path d="M131.947 0C103.015 102.425 108.563 226.811 131.947 362.558H294.265C314.563 226.657 324.838 98.186 294.265 0H131.947Z" fill="#6F7D95"/>
        <path d="M66.4792 0C13.6121 98.7446 28.3615 225.765 66.4792 362.558H131.947C108.338 233.327 104.478 111.105 131.947 0H66.4792Z" fill="#CACACA"/>
        <path d="M264.257 8.40466H239.705V45.6676H264.257V8.40466Z" fill="white"/>
        <path d="M224.702 8.40466H200.15V45.6676H224.702V8.40466Z" fill="white"/>
        <path d="M185.146 8.40466H160.594V45.6676H185.146V8.40466Z" fill="white"/>
        <path d="M263.575 93.2814H239.023V130.544H263.575V93.2814Z" fill="white"/>
        <path d="M224.02 93.2814H199.468V130.544H224.02V93.2814Z" fill="white"/>
        <path d="M184.464 93.2814H159.912V130.544H184.464V93.2814Z" fill="white"/>
        <path d="M262.893 178.158H238.341V215.421H262.893V178.158Z" fill="white"/>
        <path d="M223.338 178.158H198.786V215.421H223.338V178.158Z" fill="white"/>
        <path d="M183.782 178.158H159.23V215.421H183.782V178.158Z" fill="white"/>
        <path d="M262.211 263.035H237.659V300.298H262.211V263.035Z" fill="white"/>
        <path d="M222.656 263.035H198.104V300.298H222.656V263.035Z" fill="white"/>
        <path d="M183.1 263.035H158.548V300.298H183.1V263.035Z" fill="white"/>
        <path d="M261.531 347.908H236.974V362.558H261.531V347.908Z" fill="white"/>
        <path d="M221.972 347.908H197.424V362.558H221.972V347.908Z" fill="white"/>
        <path d="M182.414 347.908H157.866V362.558H182.414V347.908Z" fill="white"/>
        <path d="M5.37015e-07 192.577V334.482C-0.00100869 340.841 1.42051 347.011 4.03179 351.984C6.64307 356.957 10.2894 360.436 14.3737 361.853C15.3602 362.195 16.3638 362.41 17.374 362.497C17.7408 362.546 18.124 362.558 18.4991 362.558H89.6662C104.608 296.148 132.078 11.1366 19.5671 35.8847L5.37015e-07 192.577Z" fill="#3F3D56"/>
        <path d="M57.6137 263.035H33.062V300.298H57.6137V263.035Z" fill="white"/>
        <path d="M18.0588 263.034H0V300.292H18.0588V263.034Z" fill="white"/>
        <path d="M56.9321 347.908H32.3835V362.558H56.9321V347.908Z" fill="white"/>
        <path d="M2.25024 347.908C3.50938 351.398 5.24038 354.444 7.32971 356.847C9.41904 359.251 11.8195 360.957 14.3737 361.853C15.3602 362.195 16.3638 362.41 17.374 362.497V347.908H2.25024Z" fill="white"/>
        <path d="M565 232.384V334.482C564.997 339.173 564.221 343.788 562.742 347.908L561.47 346.287L559.016 343.168L545.433 325.931L548.808 347.041L544.838 347.363L544.528 347.388L537.321 347.982L531.018 348.502H530.994L522.001 349.244L513.221 349.962L510.294 350.197L491.648 351.731L483.699 352.387L480.095 352.684L470.564 353.464L457.78 354.515L455.408 354.713L417.888 357.794L394.024 359.762L390.323 360.059L390.046 360.084L388.537 360.207H388.529L385.26 360.48L380.564 360.863L372.957 361.482L369.598 361.754L359.912 362.558L350.577 363.326L341.756 362.558L313.31 360.084L294.868 358.475L294.265 358.426L261.531 355.579L236.974 353.439L221.972 352.139L197.424 349.999L186.108 349.021L182.414 348.699L173.332 347.908L131.947 344.307L128.866 344.035L128.694 344.022L113.701 342.723L104.342 341.906L124.007 314.176L124.276 313.792L131.948 302.978C137.467 287.943 142.767 272.76 158.551 265.46L160.271 263.034L183.972 229.612L188.015 229.525L294.265 227.397L310.31 227.075L343.183 226.42L355.094 226.184L363.891 226.964L440.105 233.745L445.07 234.19L470.409 236.443L493.857 238.521L505.002 239.511L507.726 239.759L507.905 239.771L509.275 239.895L512.943 239.4L517.452 238.794L519.123 238.571L519.89 238.459L535.943 236.306L537.288 236.121L541.128 235.601L563.37 282.127L565 232.384Z" fill="#3F3D56"/>
        <path d="M478.941 342.744C467.646 317.928 459.414 254.918 462.635 228.903C462.494 228.054 469.233 242.325 469.255 241.44C469.362 237.07 471.413 233.684 473.837 233.877L504.296 236.299C505.05 236.398 505.773 236.795 506.394 237.451C507.015 238.107 507.512 238.998 507.835 240.037L530.864 306.971C531.228 308.041 531.446 309.212 531.505 310.413C531.729 314.768 529.953 318.627 527.537 319.032L486.7 325.877C486.565 325.9 486.43 325.911 486.295 325.911C484.355 325.903 479.502 346.092 478.941 342.744Z" fill="white"/>
        <path d="M349.285 342.513L349.584 344.975L350.743 354.454C350.977 356.381 351.34 358.267 351.825 360.084C351.97 360.653 352.134 361.21 352.308 361.754C352.395 362.026 352.481 362.286 352.578 362.559H436.2L450.079 360.121L450.253 360.084C453.114 359.487 455.772 357.508 457.835 354.441C459.546 351.855 460.904 348.781 461.83 345.396C462.757 342.012 463.234 338.382 463.234 334.717C463.253 333.693 463.233 332.669 463.176 331.648C463.1 330.202 462.952 328.766 462.731 327.354C464.293 300.441 460.178 274.205 450.707 248.606C449.93 243.135 448.03 238.178 445.279 234.45C443.019 231.414 440.142 229.641 437.127 229.427L369.625 225.219C367.054 225.094 364.517 226.141 362.343 228.226C358.209 232.112 355.205 239.437 354.616 248.247C348.934 275.941 347.037 305.104 349.043 333.95C348.857 336.807 348.939 339.69 349.285 342.513Z" fill="white"/>
        <path d="M324.572 355.13L151.131 347.469C148.951 347.373 116.703 366.686 115.138 363.683C111.71 357.105 111.626 346.275 114.951 339.494L190.718 225.453C191.413 223.91 192.336 222.636 193.414 221.734C194.492 220.831 195.695 220.325 196.926 220.257H336.538C337.198 220.258 337.855 220.407 338.487 220.697C343.14 222.827 346.039 232.015 344.963 241.219L333.19 341.883C332.27 349.626 328.784 355.108 324.763 355.134C324.7 355.134 324.635 355.133 324.572 355.13Z" fill="white"/>
        <path d="M505.887 244.187L358.484 228.758L183.972 229.615C205.438 195.163 299.79 153.158 400.841 203.9C501.933 209.043 509.275 239.901 509.275 239.901L510.536 242.9L505.887 244.187Z" fill="#6C63FF"/>
        <path d="M564.283 342.203C563.911 344.186 563.395 346.1 562.742 347.908C561.749 350.671 560.456 353.16 558.918 355.27C558.804 355.431 558.69 355.579 558.575 355.716C557.18 357.569 555.604 359.084 553.904 360.207C553.15 360.715 552.374 361.141 551.58 361.482C551.058 361.705 550.52 361.903 549.982 362.051C549.253 362.271 548.515 362.415 547.773 362.484C547.357 362.534 546.933 362.558 546.501 362.558H359.912L350.577 363.326L341.756 362.558H18.4991C18.124 362.558 17.7408 362.546 17.374 362.497C16.3638 362.41 15.3601 362.194 14.3737 361.853L17.374 361.185L22.3473 360.084L32.3836 357.856L56.9321 352.412L66.4793 350.296L89.6663 345.161L93.5389 344.307L104.342 341.906L113.872 342.191L128.458 342.636H128.637L131.948 342.735L154.115 343.403L162.26 343.651L222.005 345.445L227.468 345.606L235.612 345.853L261.547 346.645L294.265 347.623L296.45 347.685L331.483 348.749L331.94 348.761L349.811 346.843L367.299 344.975L380.548 343.564L384.82 343.106L384.983 343.094L385.928 342.995L386.548 342.921L391.75 342.364L411.211 340.285L419.877 339.357L423.611 338.961L427.517 338.541L463.235 334.717L473.181 333.653H473.19L478.628 333.071L488.599 332.007H488.607L498.855 330.906H498.863L502.842 330.485L504.366 330.324L515.976 329.087L522.996 328.332L535.046 327.045L538.772 326.649L543.778 326.105L545.148 325.956L545.433 325.931C545.433 325.931 549.624 326.067 555.086 330.671C556.816 332.133 558.451 333.84 559.97 335.769C561.022 337.096 562.024 338.513 562.97 340.013C563.41 340.706 563.842 341.436 564.283 342.203Z" fill="#6C63FF"/>
        <path d="M379.447 362.558H392.092L390.934 360.925L390.339 360.084L390.323 360.059L387.657 356.31L385.537 353.315L383.817 355.926L383.124 356.978L381.077 360.084L380.564 360.863L379.447 362.558Z" fill="#CACACA"/>
        <path d="M448.723 362.558H468.167L471.159 360.084L480.095 352.684L482.199 350.939L498.855 330.906H498.863L503.046 325.882L505.214 323.271L507.897 320.041L521.145 304.116C521.512 303.674 521.853 303.186 522.164 302.656C522.886 301.416 523.433 299.965 523.772 298.392C524.111 296.82 524.236 295.159 524.137 293.511C524.132 293.37 524.118 293.229 524.097 293.091C523.952 291.277 523.538 289.537 522.887 288.001C522.236 286.465 521.365 285.171 520.338 284.219C518.891 282.871 517.199 282.257 515.506 282.464C513.814 282.67 512.208 283.688 510.921 285.369L501.203 297.805L497.322 302.767L482.296 321.996L473.19 333.653H473.181L471.445 335.88L455.408 354.713L450.826 360.084L448.723 362.558Z" fill="#FFB6B6"/>
        <path d="M516.045 319.091C516.558 319.198 517.08 319.046 517.531 318.659C517.982 318.272 518.336 317.671 518.54 316.949C518.803 316.065 519.241 315.327 519.793 314.839C519.901 314.747 520.012 314.665 520.127 314.595C520.824 314.196 521.447 313.549 521.944 312.706C522.441 311.864 522.797 310.852 522.98 309.757C523.552 306.138 525.384 302.628 527.226 299.92C529.241 296.958 531.391 294.117 532.881 290.509C535.029 285.303 535.631 277.998 531.487 273.656C529.705 271.85 527.568 271.032 525.435 271.338C520.971 271.89 517.279 276.025 513.771 280.032L514.649 277.416C510.869 281.894 506.532 285.166 501.898 287.038C502.699 288.145 502.004 290.357 500.975 290.872C499.946 291.386 498.836 290.844 497.777 290.503C496.44 290.072 494.788 290.109 494.261 292.53C494.146 293.115 494.112 293.729 494.16 294.335C494.209 294.941 494.339 295.525 494.544 296.05C498.267 306.104 503.319 314.88 509.384 321.828C510.732 323.37 512.296 324.887 513.972 324.586C515.648 324.284 517.073 321.122 516.045 319.091Z" fill="#6C63FF"/>
        <path d="M512.348 339.568L513.221 349.962L514.068 360.084L514.158 361.16L514.28 362.558H546.501C546.933 362.558 547.357 362.534 547.773 362.484C548.515 362.415 549.253 362.271 549.982 362.051L550.349 359.415L550.561 357.844L537.084 351.397L531.018 348.502H531.002L522.238 344.294L512.348 339.568Z" fill="#FFB6B6"/>
        <path d="M499.833 315.141C500.494 317.356 501.382 320.314 502.377 323.667C502.597 324.385 502.817 325.127 503.046 325.882C503.47 327.317 503.91 328.802 504.366 330.324C506.38 337.093 508.573 344.443 510.294 350.197C511.72 355.01 512.829 358.723 513.229 360.084C513.351 360.467 513.408 360.665 513.408 360.665L514.158 361.16L516.302 362.558H546.501C546.933 362.558 547.357 362.534 547.773 362.484C548.515 362.415 549.253 362.271 549.982 362.051C550.52 361.903 551.058 361.705 551.58 361.482C552.374 361.141 553.15 360.715 553.904 360.207C555.604 359.084 557.18 357.569 558.575 355.716C558.641 354.862 558.771 353.488 558.91 351.818C559.127 349.323 559.244 346.811 559.26 344.294C559.26 342.277 555.999 339.011 555.086 330.671C554.779 327.624 554.776 324.525 555.078 321.477C556.766 302.693 556.17 273.948 544.243 268.33L535.666 245.537H519.303L516.645 257.429V257.441L515.12 264.259L514.207 268.33L514.011 268.726L508.174 280.346C508.174 280.346 507.244 282.14 505.973 284.973V284.986C504.137 289.037 502.541 293.327 501.203 297.805C500.33 300.706 499.7 303.761 499.328 306.9C498.964 309.663 499.14 312.527 499.833 315.141Z" fill="#2F2E41"/>
        <path d="M534.318 222.566C522.295 236.447 508.906 247.494 506.382 262.769C506.382 262.769 507.894 238.768 500.842 243.317C488.993 250.961 493.003 209.391 496.325 202.593C501.863 191.264 520.537 184.826 520.537 184.826L533.784 195.863L534.318 222.566Z" fill="#2F2E41"/>
        <path d="M513.383 239.41C524.85 239.41 534.146 225.301 534.146 207.896C534.146 190.492 524.85 176.383 513.383 176.383C501.915 176.383 492.619 190.492 492.619 207.896C492.619 225.301 501.915 239.41 513.383 239.41Z" fill="#FFB6B6"/>
        <path d="M520.861 195.839L521.659 201.165L507.692 205.991C507.68 204.914 507.521 203.852 507.225 202.872C506.93 201.893 506.504 201.017 505.975 200.299C506.276 202.387 506.241 204.555 505.874 206.619C498.342 213.034 498.774 215.307 492.687 213.671C492.278 213.812 491.855 213.83 491.443 213.723C491.03 213.616 490.635 213.387 490.28 213.048C489.926 212.71 489.619 212.269 489.376 211.75C489.134 211.231 488.962 210.646 488.869 210.026C486.419 193.695 485.614 177.005 496.321 172.951C498.924 171.964 501.63 171.775 504.281 172.395C506.933 173.016 509.476 174.433 511.761 176.565C514.047 178.697 516.029 181.5 517.591 184.809C519.154 188.119 520.265 191.869 520.861 195.839Z" fill="#2F2E41"/>
        <path d="M517.444 217.089C516.76 212.54 515.42 208.278 513.519 204.611C511.619 200.943 509.205 197.962 506.454 195.881C503.702 193.801 500.68 192.673 497.606 192.58C494.533 192.487 491.484 193.43 488.679 195.342C489.651 190.991 491.617 187.311 494.221 184.97L509.943 174.61C517.698 171.931 529.974 164.326 535.575 171.609C540.736 178.299 538.224 191.395 542.976 198.73C548.184 206.768 548.627 216.272 547.15 221.738C545.441 228.063 542.023 236.691 537.757 238.558C537.535 236.332 536.803 234.297 535.691 232.808C535.998 234.929 536.025 237.122 535.77 239.259L509.943 270.521C512.355 267.337 514.41 259.133 515.825 249.892C516.663 244.422 521.662 242.503 517.608 233.219C513.554 223.936 517.995 220.759 517.444 217.089Z" fill="#2F2E41"/>
        <path d="M538.13 182.22L538.057 182.44C537.969 182.733 537.88 183.026 537.808 183.332L537.8 183.344C537.405 183.564 536.962 183.209 536.528 182.647C536.595 183.969 536.644 185.247 536.68 186.5L522.931 178.334C525.322 178.961 525.675 166.049 527.391 168.523C527.487 168.657 527.576 168.792 527.664 168.926C527.451 168.148 527.305 167.33 527.23 166.495C527.156 165.446 527.211 164.386 527.391 163.367C527.394 163.362 527.396 163.356 527.397 163.35C527.399 163.344 527.399 163.337 527.399 163.33C527.57 162.409 527.836 161.535 528.188 160.74C528.694 159.584 529.335 158.578 530.079 157.771C531.029 156.67 532.136 155.924 533.311 155.592C534.485 155.261 535.695 155.355 536.842 155.865C539.468 157.373 541.639 160.29 542.944 164.063C544.133 166.968 544.74 170.334 544.691 173.752C544.641 174.65 544.514 175.533 544.312 176.379C544.061 177.568 543.633 178.653 543.06 179.549C542.488 180.446 541.787 181.13 541.012 181.548C540.818 181.645 540.593 181.755 540.352 181.89C540.223 180.3 540.215 178.693 540.327 177.1C539.432 178.633 538.692 180.358 538.13 182.22Z" fill="#2F2E41"/>
        <path d="M524.814 177.503C524.832 178.185 524.886 178.863 524.975 179.532C524.982 179.618 524.993 179.704 525.008 179.788C525.571 183.588 528.622 175.683 530.981 178.334C532.451 179.942 534.082 181.179 535.811 182C535.884 181.694 536.528 182.293 536.616 182C536.64 181.927 536.592 180.851 536.616 180.778C535.145 179.918 533.783 178.678 532.591 177.113C530.377 174.632 530.691 176.954 530.176 173.447C529.58 169.403 526.07 171.138 527.874 169.219L527.664 168.78C526.384 170.122 525.439 172.081 524.984 174.339C524.984 174.346 524.984 174.352 524.982 174.359C524.981 174.365 524.978 174.371 524.975 174.376C524.841 175.405 524.787 176.455 524.814 177.503Z" fill="#6C63FF"/>
        <path d="M521.365 362.558H536.326L536.497 360.084L537.084 351.397L537.321 347.982L538.332 333.121L538.772 326.649L539.742 312.382L540.068 307.581C540.276 304.401 539.652 301.225 538.331 298.737C537.011 296.249 535.099 294.648 533.008 294.279C532.705 294.225 532.4 294.197 532.095 294.192H532.07C531.7 294.198 531.329 294.235 530.961 294.303C529.077 294.714 527.349 296.126 526.086 298.288C524.892 300.317 524.185 302.898 524.08 305.613L524.072 305.799V305.811L523.363 320.71L522.996 328.332L522.8 332.551L522.238 344.294L522.001 349.244L521.488 360.084L521.365 362.558Z" fill="#FFB6B6"/>
        <path d="M543.566 323.583C543.975 323.1 544.268 322.427 544.4 321.667C544.532 320.907 544.496 320.102 544.297 319.376C544.064 318.473 544.021 317.482 544.177 316.541C544.208 316.36 544.247 316.182 544.294 316.008C544.593 314.972 544.722 313.843 544.672 312.715C544.621 311.587 544.392 310.494 544.004 309.53C542.695 306.383 542.318 301.941 542.326 298.05C542.335 293.792 542.496 289.472 541.833 285.334C540.877 279.367 537.851 273.612 532.909 275.085C530.814 275.761 528.936 277.512 527.592 280.044C524.736 285.281 524.109 292.18 523.551 298.788L522.93 296.008C522.404 303.242 520.92 310.241 518.568 316.584C519.65 316.485 520.209 318.784 519.733 320.262C519.257 321.74 518.227 322.567 517.326 323.481C516.19 324.632 515.055 326.453 515.829 328.716C516.024 329.249 516.29 329.716 516.61 330.086C516.93 330.456 517.296 330.721 517.687 330.866C525.029 333.838 532.696 334.474 540.208 332.732C541.876 332.344 543.684 331.703 544.711 329.671C545.739 327.639 545.242 323.883 543.566 323.583Z" fill="#6C63FF"/>
        <path d="M384.82 349.417C384.82 352.902 385.732 356.245 387.356 358.709C388.979 361.174 391.182 362.558 393.478 362.558H411.219C413.515 362.558 415.718 361.174 417.341 358.709C418.965 356.245 419.877 352.902 419.877 349.417V339.398C419.877 337.278 419.539 335.189 418.892 333.309C418.245 331.43 417.307 329.817 416.16 328.607C415.012 327.396 413.689 326.626 412.303 326.36C410.917 326.095 409.509 326.342 408.199 327.082L390.459 337.101C388.803 338.036 387.376 339.717 386.368 341.918C385.36 344.12 384.82 346.736 384.82 349.417Z" fill="#CACACA"/>
        <path d="M18.4991 360.084C18.124 360.084 17.749 360.059 17.374 360.022V361.185L22.3473 360.084H18.4991ZM89.6662 360.084V362.558H131.947V360.084H89.6662ZM313.31 360.084L341.756 362.558H359.912L369.598 361.754L372.957 361.482L380.564 360.863L385.26 360.48L388.529 360.207H388.537L390.046 360.084H313.31ZM546.501 360.084H544.968L545.058 362.558H546.501C546.933 362.558 547.357 362.534 547.773 362.484L547.846 360.937L547.895 359.985C547.432 360.055 546.966 360.088 546.501 360.084ZM18.4991 360.084C18.124 360.084 17.749 360.059 17.374 360.022V361.185L22.3473 360.084H18.4991ZM89.6662 360.084V362.558H131.947V360.084H89.6662ZM313.31 360.084L341.756 362.558H359.912L369.598 361.754L372.957 361.482L380.564 360.863L385.26 360.48L388.529 360.207H388.537L390.046 360.084H313.31ZM18.4991 360.084C18.124 360.084 17.749 360.059 17.374 360.022V361.185L22.3473 360.084H18.4991ZM32.3836 360.084V362.558H182.414V360.084H32.3836ZM313.31 360.084L341.756 362.558H359.912L369.598 361.754L372.957 361.482L380.564 360.863L385.26 360.48L388.529 360.207H388.537L390.046 360.084H313.31ZM546.501 360.084H482.614C482.525 360.9 482.443 361.729 482.37 362.558H546.501C546.933 362.558 547.357 362.534 547.773 362.484L547.846 360.937L547.895 359.985C547.432 360.055 546.966 360.088 546.501 360.084ZM18.4991 360.084C18.124 360.084 17.749 360.059 17.374 360.022V361.185L22.3473 360.084H18.4991ZM18.4991 360.084C18.124 360.084 17.749 360.059 17.374 360.022V361.185L22.3473 360.084H18.4991ZM18.4991 360.084C18.124 360.084 17.749 360.059 17.374 360.022V361.185L22.3473 360.084H18.4991ZM18.4991 360.084C18.124 360.084 17.749 360.059 17.374 360.022V361.185L22.3473 360.084H18.4991ZM18.4991 360.084C18.124 360.084 17.749 360.059 17.374 360.022V361.185L22.3473 360.084H18.4991ZM18.4991 360.084C18.124 360.084 17.749 360.059 17.374 360.022V361.185L22.3473 360.084H18.4991ZM18.4991 360.084C18.124 360.084 17.749 360.059 17.374 360.022V361.185L22.3473 360.084H18.4991ZM18.4991 360.084C18.124 360.084 17.749 360.059 17.374 360.022C14.691 359.754 12.0895 358.515 9.78718 356.407C7.48491 354.299 5.54901 351.385 4.1417 347.908H2.25023C3.50937 351.398 5.24036 354.444 7.32969 356.847C9.41902 359.251 11.8195 360.957 14.3737 361.853L17.374 361.185L22.3473 360.084H18.4991ZM546.501 0H18.4991C13.5946 0.008966 8.89275 2.96991 5.42479 8.23335C1.95682 13.4968 0.00590804 20.633 5.37015e-07 28.0766V334.482C-0.00100869 340.841 1.42051 347.011 4.03179 351.984C6.64307 356.957 10.2894 360.436 14.3737 361.853C15.3602 362.195 16.3638 362.41 17.374 362.497C17.7408 362.546 18.124 362.558 18.4991 362.558H546.501C546.933 362.558 547.357 362.534 547.773 362.484C548.515 362.415 549.253 362.271 549.982 362.051C550.52 361.903 551.058 361.705 551.58 361.482C552.374 361.141 553.15 360.715 553.904 360.207C555.604 359.084 557.18 357.569 558.575 355.716C558.69 355.58 558.804 355.431 558.918 355.27C560.456 353.16 561.749 350.671 562.742 347.908C564.221 343.788 564.997 339.173 565 334.482V28.0766C564.994 20.633 563.043 13.4968 559.575 8.23335C556.107 2.96991 551.405 0.008966 546.501 0ZM563.369 334.482C563.37 336.342 563.236 338.197 562.97 340.013C562.658 342.197 562.154 344.307 561.47 346.287C560.834 348.148 560.048 349.881 559.13 351.447V351.459L559.122 351.471C559.056 351.583 558.983 351.706 558.91 351.818C556.896 355.155 554.332 357.616 551.482 358.945C551.221 359.069 550.961 359.18 550.7 359.292C550.586 359.341 550.471 359.378 550.349 359.415C549.542 359.701 548.722 359.891 547.895 359.985C547.432 360.055 546.966 360.088 546.501 360.084H18.4991C18.124 360.084 17.749 360.059 17.374 360.022C13.1058 359.585 9.10598 356.706 6.1834 351.964C3.26083 347.223 1.63352 340.974 1.63055 334.482V195.113C1.63055 194.26 1.63055 193.418 1.6387 192.577C2.06371 141.922 15.6242 93.5617 39.3812 57.9774C63.1382 22.3931 95.1777 2.45162 128.556 2.4748H546.501C548.716 2.47413 550.91 3.13588 552.957 4.42225C555.003 5.70863 556.863 7.59442 558.43 9.9719C559.996 12.3494 561.239 15.172 562.086 18.2784C562.934 21.3849 563.37 24.7143 563.369 28.0766V334.482ZM18.4991 360.084C18.124 360.084 17.749 360.059 17.374 360.022V361.185L22.3473 360.084H18.4991ZM18.4991 360.084C18.124 360.084 17.749 360.059 17.374 360.022V361.185L22.3473 360.084H18.4991ZM18.4991 360.084C18.124 360.084 17.749 360.059 17.374 360.022V361.185L22.3473 360.084H18.4991ZM18.4991 360.084C18.124 360.084 17.749 360.059 17.374 360.022V361.185L22.3473 360.084H18.4991ZM18.4991 360.084C18.124 360.084 17.749 360.059 17.374 360.022V361.185L22.3473 360.084H18.4991ZM18.4991 360.084C18.124 360.084 17.749 360.059 17.374 360.022V361.185L22.3473 360.084H18.4991ZM18.4991 360.084C18.124 360.084 17.749 360.059 17.374 360.022V361.185L22.3473 360.084H18.4991ZM18.4991 360.084C18.124 360.084 17.749 360.059 17.374 360.022V361.185L22.3473 360.084H18.4991ZM313.31 360.084L341.756 362.558H359.912L369.598 361.754L372.957 361.482L380.564 360.863L385.26 360.48L388.529 360.207H388.537L390.046 360.084H313.31ZM89.6662 360.084V362.558H131.947V360.084H89.6662ZM18.4991 360.084C18.124 360.084 17.749 360.059 17.374 360.022V361.185L22.3473 360.084H18.4991ZM313.31 360.084L341.756 362.558H359.912L369.598 361.754L372.957 361.482L380.564 360.863L385.26 360.48L388.529 360.207H388.537L390.046 360.084H313.31ZM89.6662 360.084V362.558H131.947V360.084H89.6662ZM18.4991 360.084C18.124 360.084 17.749 360.059 17.374 360.022V361.185L22.3473 360.084H18.4991ZM546.501 360.084H544.968L545.058 362.558H546.501C546.933 362.558 547.357 362.534 547.773 362.484L547.846 360.937L547.895 359.985C547.432 360.055 546.966 360.088 546.501 360.084ZM313.31 360.084L341.756 362.558H359.912L369.598 361.754L372.957 361.482L380.564 360.863L385.26 360.48L388.529 360.207H388.537L390.046 360.084H313.31ZM89.6662 360.084V362.558H131.947V360.084H89.6662Z" fill="#3F3D56"/>
    </g>
    <path d="M232.804 399.697H227.456L227.42 396.896H232.388C233.135 396.896 233.797 396.728 234.375 396.391C234.954 396.053 235.405 395.572 235.73 394.945C236.068 394.307 236.236 393.548 236.236 392.669C236.236 391.705 236.092 390.923 235.803 390.32C235.526 389.706 235.098 389.26 234.52 388.983C233.954 388.694 233.231 388.55 232.352 388.55H228.161V412H224.836V385.695H232.352C233.484 385.695 234.496 385.834 235.387 386.111C236.278 386.376 237.031 386.797 237.646 387.375C238.272 387.942 238.748 388.664 239.073 389.543C239.398 390.423 239.561 391.477 239.561 392.705C239.561 393.789 239.314 394.771 238.82 395.65C238.338 396.517 237.664 397.228 236.796 397.782C235.929 398.336 234.93 398.691 233.797 398.848L232.804 399.697ZM232.677 412H226.083L228.016 409.164H232.677C233.544 409.164 234.279 408.971 234.881 408.585C235.484 408.2 235.941 407.658 236.254 406.959C236.58 406.249 236.742 405.412 236.742 404.448C236.742 403.473 236.61 402.63 236.345 401.919C236.08 401.208 235.658 400.66 235.08 400.275C234.502 399.889 233.743 399.697 232.804 399.697H228.522L228.558 396.896H234.339L235.08 397.908C236.164 398.017 237.073 398.378 237.808 398.992C238.555 399.594 239.115 400.365 239.488 401.305C239.874 402.244 240.066 403.28 240.066 404.412C240.066 406.05 239.759 407.435 239.145 408.567C238.543 409.688 237.688 410.543 236.58 411.133C235.472 411.711 234.171 412 232.677 412ZM243.933 403.166V401.305C243.933 399.787 244.125 398.456 244.511 397.312C244.896 396.156 245.432 395.192 246.119 394.421C246.805 393.651 247.606 393.072 248.521 392.687C249.437 392.29 250.418 392.091 251.466 392.091C252.538 392.091 253.532 392.29 254.447 392.687C255.363 393.072 256.164 393.651 256.85 394.421C257.549 395.192 258.091 396.156 258.476 397.312C258.861 398.456 259.054 399.787 259.054 401.305V403.166C259.054 404.683 258.861 406.02 258.476 407.176C258.091 408.32 257.555 409.278 256.868 410.049C256.182 410.82 255.381 411.398 254.465 411.783C253.55 412.169 252.562 412.361 251.502 412.361C250.443 412.361 249.455 412.169 248.54 411.783C247.624 411.398 246.817 410.82 246.119 410.049C245.432 409.278 244.896 408.32 244.511 407.176C244.125 406.02 243.933 404.683 243.933 403.166ZM247.13 401.305V403.166C247.13 404.237 247.239 405.177 247.456 405.984C247.672 406.791 247.979 407.465 248.377 408.007C248.774 408.549 249.238 408.959 249.768 409.236C250.298 409.501 250.876 409.633 251.502 409.633C252.225 409.633 252.857 409.501 253.399 409.236C253.953 408.959 254.411 408.549 254.772 408.007C255.134 407.465 255.405 406.791 255.585 405.984C255.766 405.177 255.856 404.237 255.856 403.166V401.305C255.856 400.233 255.748 399.299 255.531 398.504C255.314 397.697 255.007 397.023 254.61 396.481C254.212 395.927 253.743 395.517 253.201 395.252C252.671 394.975 252.093 394.837 251.466 394.837C250.852 394.837 250.28 394.975 249.75 395.252C249.22 395.517 248.756 395.927 248.359 396.481C247.973 397.023 247.672 397.697 247.456 398.504C247.239 399.299 247.13 400.233 247.13 401.305ZM262.505 403.166V401.305C262.505 399.787 262.698 398.456 263.083 397.312C263.468 396.156 264.004 395.192 264.691 394.421C265.377 393.651 266.178 393.072 267.094 392.687C268.009 392.29 268.991 392.091 270.039 392.091C271.111 392.091 272.104 392.29 273.02 392.687C273.935 393.072 274.736 393.651 275.422 394.421C276.121 395.192 276.663 396.156 277.048 397.312C277.434 398.456 277.626 399.787 277.626 401.305V403.166C277.626 404.683 277.434 406.02 277.048 407.176C276.663 408.32 276.127 409.278 275.44 410.049C274.754 410.82 273.953 411.398 273.038 411.783C272.122 412.169 271.135 412.361 270.075 412.361C269.015 412.361 268.027 412.169 267.112 411.783C266.196 411.398 265.389 410.82 264.691 410.049C264.004 409.278 263.468 408.32 263.083 407.176C262.698 406.02 262.505 404.683 262.505 403.166ZM265.703 401.305V403.166C265.703 404.237 265.811 405.177 266.028 405.984C266.245 406.791 266.552 407.465 266.949 408.007C267.347 408.549 267.81 408.959 268.34 409.236C268.87 409.501 269.448 409.633 270.075 409.633C270.797 409.633 271.43 409.501 271.972 409.236C272.526 408.959 272.983 408.549 273.345 408.007C273.706 407.465 273.977 406.791 274.158 405.984C274.338 405.177 274.429 404.237 274.429 403.166V401.305C274.429 400.233 274.32 399.299 274.104 398.504C273.887 397.697 273.58 397.023 273.182 396.481C272.785 395.927 272.315 395.517 271.773 395.252C271.243 394.975 270.665 394.837 270.039 394.837C269.424 394.837 268.852 394.975 268.322 395.252C267.792 395.517 267.329 395.927 266.931 396.481C266.546 397.023 266.245 397.697 266.028 398.504C265.811 399.299 265.703 400.233 265.703 401.305ZM284.961 384.25V412H281.764V384.25H284.961ZM294.88 392.452L287.924 401.576L283.625 406.526L283.408 402.967L286.371 398.884L291.032 392.452H294.88ZM291.953 412L286.461 402.678L288.105 399.697L295.675 412H291.953ZM316.505 408.658V398.053C316.505 397.282 316.385 396.662 316.144 396.192C315.915 395.722 315.566 395.379 315.096 395.162C314.639 394.945 314.06 394.837 313.362 394.837C312.687 394.837 312.103 394.975 311.609 395.252C311.128 395.529 310.754 395.897 310.489 396.354C310.236 396.812 310.11 397.318 310.11 397.872H306.912C306.912 397.174 307.063 396.481 307.364 395.794C307.677 395.108 308.123 394.488 308.701 393.934C309.279 393.368 309.971 392.922 310.778 392.597C311.597 392.259 312.513 392.091 313.524 392.091C314.729 392.091 315.795 392.29 316.722 392.687C317.65 393.072 318.378 393.705 318.908 394.584C319.438 395.463 319.703 396.632 319.703 398.089V407.736C319.703 408.387 319.751 409.079 319.848 409.814C319.956 410.549 320.107 411.181 320.299 411.711V412H316.993C316.837 411.615 316.716 411.103 316.632 410.464C316.548 409.814 316.505 409.212 316.505 408.658ZM317.011 400.148L317.047 402.497H314.825C314.066 402.497 313.374 402.581 312.748 402.75C312.133 402.919 311.603 403.166 311.158 403.491C310.712 403.804 310.369 404.195 310.128 404.665C309.899 405.135 309.785 405.671 309.785 406.273C309.785 407.056 309.893 407.682 310.11 408.152C310.327 408.61 310.652 408.941 311.085 409.146C311.519 409.35 312.067 409.453 312.729 409.453C313.536 409.453 314.247 409.266 314.861 408.893C315.476 408.519 315.951 408.068 316.289 407.538C316.638 407.008 316.8 406.514 316.776 406.056L317.481 407.556C317.433 408.025 317.276 408.537 317.011 409.091C316.758 409.633 316.403 410.157 315.945 410.663C315.488 411.157 314.946 411.566 314.319 411.892C313.705 412.205 313.013 412.361 312.242 412.361C311.11 412.361 310.116 412.145 309.261 411.711C308.418 411.277 307.761 410.639 307.292 409.796C306.822 408.953 306.587 407.911 306.587 406.67C306.587 405.731 306.75 404.864 307.075 404.069C307.4 403.274 307.882 402.587 308.52 402.009C309.158 401.419 309.959 400.961 310.923 400.636C311.898 400.311 313.025 400.148 314.301 400.148H317.011ZM339.938 409.633C340.576 409.633 341.154 409.507 341.672 409.254C342.202 408.989 342.635 408.579 342.973 408.025C343.31 407.459 343.503 406.725 343.551 405.821H346.55C346.502 407.122 346.17 408.266 345.556 409.254C344.954 410.229 344.159 410.994 343.171 411.548C342.196 412.09 341.118 412.361 339.938 412.361C338.673 412.361 337.571 412.157 336.631 411.747C335.704 411.338 334.933 410.747 334.319 409.977C333.717 409.194 333.265 408.248 332.964 407.14C332.663 406.02 332.512 404.749 332.512 403.328V401.124C332.512 399.703 332.663 398.438 332.964 397.33C333.265 396.21 333.717 395.264 334.319 394.494C334.933 393.711 335.704 393.115 336.631 392.705C337.571 392.296 338.673 392.091 339.938 392.091C341.262 392.091 342.407 392.374 343.37 392.94C344.346 393.494 345.104 394.301 345.646 395.361C346.201 396.409 346.502 397.679 346.55 399.173H343.551C343.503 398.209 343.328 397.408 343.027 396.77C342.726 396.12 342.316 395.638 341.798 395.325C341.28 395 340.66 394.837 339.938 394.837C339.094 394.837 338.396 394.987 337.842 395.289C337.3 395.578 336.872 395.999 336.559 396.553C336.246 397.107 336.023 397.77 335.891 398.541C335.77 399.311 335.71 400.173 335.71 401.124V403.328C335.71 404.28 335.77 405.147 335.891 405.93C336.023 406.701 336.24 407.363 336.541 407.917C336.854 408.471 337.288 408.899 337.842 409.2C338.396 409.489 339.094 409.633 339.938 409.633ZM359.829 408.658V398.053C359.829 397.282 359.708 396.662 359.467 396.192C359.238 395.722 358.889 395.379 358.419 395.162C357.962 394.945 357.384 394.837 356.685 394.837C356.011 394.837 355.426 394.975 354.933 395.252C354.451 395.529 354.077 395.897 353.812 396.354C353.56 396.812 353.433 397.318 353.433 397.872H350.235C350.235 397.174 350.386 396.481 350.687 395.794C351 395.108 351.446 394.488 352.024 393.934C352.602 393.368 353.295 392.922 354.102 392.597C354.921 392.259 355.836 392.091 356.848 392.091C358.052 392.091 359.118 392.29 360.045 392.687C360.973 393.072 361.701 393.705 362.231 394.584C362.761 395.463 363.026 396.632 363.026 398.089V407.736C363.026 408.387 363.075 409.079 363.171 409.814C363.279 410.549 363.43 411.181 363.623 411.711V412H360.316C360.16 411.615 360.039 411.103 359.955 410.464C359.871 409.814 359.829 409.212 359.829 408.658ZM360.334 400.148L360.371 402.497H358.148C357.39 402.497 356.697 402.581 356.071 402.75C355.457 402.919 354.927 403.166 354.481 403.491C354.035 403.804 353.692 404.195 353.451 404.665C353.222 405.135 353.108 405.671 353.108 406.273C353.108 407.056 353.216 407.682 353.433 408.152C353.65 408.61 353.975 408.941 354.409 409.146C354.842 409.35 355.39 409.453 356.053 409.453C356.86 409.453 357.57 409.266 358.185 408.893C358.799 408.519 359.275 408.068 359.612 407.538C359.961 407.008 360.124 406.514 360.1 406.056L360.804 407.556C360.756 408.025 360.599 408.537 360.334 409.091C360.082 409.633 359.726 410.157 359.269 410.663C358.811 411.157 358.269 411.566 357.643 411.892C357.028 412.205 356.336 412.361 355.565 412.361C354.433 412.361 353.439 412.145 352.584 411.711C351.741 411.277 351.084 410.639 350.615 409.796C350.145 408.953 349.91 407.911 349.91 406.67C349.91 405.731 350.073 404.864 350.398 404.069C350.723 403.274 351.205 402.587 351.843 402.009C352.482 401.419 353.283 400.961 354.246 400.636C355.222 400.311 356.348 400.148 357.625 400.148H360.334ZM371.192 395.523V412H367.995V392.452H371.084L371.192 395.523ZM376.052 392.344L376.07 395.451C375.805 395.391 375.564 395.355 375.348 395.343C375.143 395.319 374.902 395.307 374.625 395.307C374.023 395.307 373.493 395.427 373.035 395.668C372.59 395.909 372.204 396.246 371.879 396.68C371.554 397.113 371.295 397.631 371.102 398.233C370.909 398.824 370.777 399.474 370.705 400.185L369.874 400.727C369.874 399.546 369.964 398.438 370.145 397.402C370.337 396.367 370.632 395.451 371.03 394.656C371.427 393.849 371.933 393.223 372.547 392.777C373.174 392.32 373.92 392.091 374.788 392.091C374.98 392.091 375.215 392.121 375.492 392.181C375.781 392.229 375.968 392.284 376.052 392.344Z" fill="black"/>
    <defs>
        <clipPath id="clip0_40_3">
            <rect width="565" height="364" fill="white"/>
        </clipPath>
    </defs>
</svg>
