<svg width="807" height="521" viewBox="0 0 807 521" fill="none" xmlns="http://www.w3.org/2000/svg">
<mask id="mask0_36_96" style="mask-type:luminance" maskUnits="userSpaceOnUse" x="0" y="0" width="807" height="521">
<path d="M806.352 0H0V520.956H806.352V0Z" fill="white"/>
</mask>
<g mask="url(#mask0_36_96)">
<path d="M475.524 325.615C475.059 325.637 474.599 325.515 474.206 325.266C473.813 325.017 473.505 324.653 473.326 324.224C473.146 323.795 473.103 323.32 473.202 322.866C473.301 322.411 473.537 321.998 473.879 321.682L474.035 321.064C474.014 321.014 473.994 320.965 473.973 320.915C473.505 319.809 472.72 318.866 471.717 318.205C470.715 317.543 469.539 317.193 468.338 317.197C467.137 317.202 465.964 317.561 464.967 318.23C463.969 318.899 463.191 319.848 462.731 320.957C460.893 325.385 458.552 329.821 457.976 334.503C457.722 336.573 457.829 338.671 458.292 340.704C453.974 331.284 451.731 321.045 451.717 310.683C451.716 308.082 451.861 305.484 452.15 302.9C452.389 300.781 452.72 298.678 453.144 296.589C455.459 285.258 460.428 274.638 467.645 265.6C471.137 263.694 473.962 260.764 475.737 257.203C476.381 255.924 476.836 254.557 477.087 253.147C476.693 253.199 475.602 247.199 475.899 246.83C475.35 245.997 474.367 245.583 473.768 244.77C470.785 240.727 466.676 241.433 464.531 246.927C459.949 249.24 459.905 253.075 462.716 256.764C464.505 259.111 464.751 262.286 466.32 264.799C466.159 265.006 465.991 265.206 465.83 265.413C462.878 269.208 460.305 273.284 458.149 277.581C458.673 272.767 458.047 267.897 456.322 263.372C454.574 259.154 451.297 255.602 448.412 251.957C447.648 250.977 446.612 250.246 445.433 249.856C444.255 249.465 442.987 249.433 441.79 249.763C440.593 250.093 439.521 250.77 438.709 251.71C437.897 252.649 437.381 253.808 437.228 255.04C437.222 255.094 437.216 255.147 437.21 255.201C437.639 255.443 438.059 255.7 438.469 255.971C438.985 256.316 439.384 256.808 439.615 257.383C439.847 257.959 439.898 258.591 439.764 259.196C439.63 259.802 439.316 260.353 438.864 260.777C438.411 261.201 437.841 261.478 437.228 261.573L437.165 261.582C437.318 263.127 437.588 264.658 437.973 266.162C434.271 280.478 442.263 285.692 453.674 285.926C453.926 286.055 454.171 286.184 454.423 286.307C452.256 292.448 450.897 298.844 450.38 305.335C450.087 309.164 450.104 313.011 450.432 316.838L450.412 316.702C449.586 312.447 447.316 308.608 443.986 305.832C439.04 301.769 432.053 300.273 426.717 297.008C426.15 296.644 425.491 296.45 424.817 296.448C424.143 296.446 423.483 296.637 422.914 296.999C422.346 297.36 421.892 297.876 421.607 298.487C421.322 299.098 421.218 299.777 421.306 300.445L421.328 300.588C422.123 300.911 422.898 301.285 423.647 301.705C424.075 301.947 424.495 302.203 424.905 302.475C425.421 302.819 425.821 303.312 426.052 303.887C426.283 304.463 426.335 305.095 426.201 305.7C426.066 306.306 425.753 306.857 425.3 307.281C424.847 307.705 424.277 307.982 423.664 308.077L423.602 308.086C423.556 308.093 423.518 308.099 423.472 308.106C424.831 311.351 426.739 314.337 429.111 316.935C431.426 329.432 441.367 330.618 452.001 326.978H452.008C453.174 332.049 454.865 336.984 457.052 341.705H475.072C475.137 341.504 475.195 341.298 475.253 341.098C473.585 341.202 471.911 341.103 470.267 340.801C471.604 339.16 472.941 337.506 474.278 335.866C474.308 335.835 474.336 335.803 474.362 335.769C475.04 334.929 475.725 334.096 476.403 333.257C476.439 330.683 476.143 328.114 475.524 325.615Z" fill="#F2F2F2"/>
<path d="M764.484 356.956V393.266C764.477 399.281 762.084 405.048 757.831 409.302C753.577 413.556 747.81 415.948 741.794 415.956H94.1744C88.5239 415.963 83.0771 413.846 78.9144 410.026C78.4844 409.646 78.0644 409.236 77.6644 408.806C73.6914 404.607 71.4795 399.046 71.4844 393.266V356.956C268.636 324.396 511.095 335.419 764.484 356.956Z" fill="#3F3D56"/>
<path d="M764.484 425.956V462.266C764.477 468.281 762.084 474.048 757.831 478.302C753.577 482.556 747.81 484.948 741.794 484.956H94.1744C88.5239 484.963 83.0771 482.846 78.9144 479.026C78.4844 478.646 78.0644 478.236 77.6644 477.806C73.6914 473.608 71.4795 468.046 71.4844 462.266V425.956C267.835 405.565 507.058 410.404 764.484 425.956Z" fill="#3F3D56"/>
<path d="M710.524 320.615C710.059 320.637 709.599 320.515 709.206 320.266C708.813 320.017 708.505 319.653 708.326 319.224C708.146 318.795 708.103 318.32 708.202 317.866C708.301 317.411 708.537 316.998 708.879 316.682L709.035 316.064C709.014 316.014 708.994 315.965 708.973 315.915C708.505 314.809 707.72 313.866 706.717 313.205C705.715 312.543 704.539 312.193 703.338 312.197C702.137 312.202 700.964 312.561 699.967 313.23C698.969 313.899 698.192 314.848 697.731 315.957C695.893 320.385 693.552 324.821 692.976 329.503C692.722 331.573 692.829 333.671 693.292 335.704C688.974 326.284 686.731 316.045 686.717 305.683C686.716 303.082 686.861 300.484 687.15 297.9C687.389 295.781 687.72 293.678 688.144 291.589C690.459 280.258 695.428 269.638 702.645 260.6C706.137 258.694 708.962 255.764 710.738 252.203C711.381 250.924 711.836 249.557 712.087 248.147C711.693 248.199 710.602 242.199 710.899 241.83C710.35 240.997 709.367 240.583 708.768 239.77C705.785 235.727 701.676 236.433 699.531 241.927C694.949 244.24 694.905 248.075 697.716 251.764C699.505 254.111 699.751 257.286 701.32 259.799C701.159 260.006 700.991 260.206 700.83 260.413C697.878 264.208 695.305 268.284 693.149 272.581C693.673 267.767 693.047 262.897 691.322 258.372C689.574 254.154 686.297 250.602 683.412 246.957C682.649 245.977 681.612 245.246 680.433 244.856C679.255 244.465 677.987 244.433 676.79 244.763C675.593 245.093 674.521 245.77 673.709 246.71C672.897 247.649 672.381 248.808 672.228 250.04C672.222 250.094 672.216 250.147 672.21 250.201C672.639 250.443 673.059 250.7 673.469 250.971C673.985 251.316 674.384 251.808 674.615 252.383C674.847 252.959 674.898 253.591 674.764 254.196C674.63 254.802 674.316 255.353 673.864 255.777C673.411 256.201 672.841 256.478 672.228 256.573L672.165 256.582C672.318 258.127 672.588 259.658 672.973 261.162C669.271 275.478 677.263 280.692 688.674 280.926C688.926 281.055 689.171 281.184 689.423 281.307C687.257 287.448 685.897 293.844 685.38 300.335C685.087 304.164 685.104 308.011 685.432 311.838L685.412 311.702C684.586 307.447 682.316 303.608 678.986 300.832C674.04 296.769 667.053 295.273 661.718 292.008C661.15 291.644 660.491 291.45 659.817 291.448C659.143 291.446 658.483 291.637 657.914 291.999C657.346 292.36 656.892 292.876 656.607 293.487C656.322 294.098 656.218 294.777 656.306 295.445L656.328 295.588C657.123 295.911 657.898 296.285 658.647 296.705C659.075 296.947 659.495 297.203 659.905 297.475C660.421 297.819 660.821 298.312 661.052 298.887C661.283 299.463 661.335 300.095 661.201 300.7C661.067 301.306 660.753 301.857 660.3 302.281C659.847 302.705 659.277 302.982 658.664 303.077L658.602 303.086C658.556 303.093 658.518 303.099 658.472 303.106C659.831 306.351 661.739 309.337 664.111 311.935C666.426 324.432 676.367 325.618 687.001 321.978H687.008C688.174 327.049 689.865 331.984 692.052 336.705H710.072C710.137 336.504 710.195 336.298 710.253 336.098C708.585 336.202 706.911 336.103 705.267 335.801C706.604 334.16 707.941 332.506 709.278 330.866C709.308 330.835 709.336 330.803 709.362 330.769C710.04 329.929 710.725 329.096 711.403 328.257C711.439 325.683 711.143 323.114 710.524 320.615Z" fill="#F2F2F2"/>
<path d="M699.018 361.981C699.018 362.308 699.013 362.634 699.008 362.956H633.097C631.59 362.957 630.098 362.648 628.714 362.049C627.33 361.45 626.085 360.573 625.054 359.472C625.078 359.014 625.117 358.561 625.166 358.108C627.105 339.483 651.344 311.409 661.992 324.956C672.639 338.503 699.018 341.534 699.018 361.981Z" fill="#3F3D56"/>
<path d="M734.094 362.277C734.098 362.504 734.091 362.732 734.088 362.956H688.147C687.097 362.956 686.057 362.741 685.092 362.324C684.128 361.906 683.26 361.295 682.541 360.528C682.558 360.208 682.585 359.893 682.619 359.577C683.971 346.595 704.462 323.688 708.287 336.469C718.038 369.047 733.895 349.47 734.094 362.277Z" fill="#3F3D56"/>
<path d="M217.644 437.9C217.65 438.254 217.639 438.607 217.634 438.956H146.201C144.567 438.957 142.95 438.622 141.451 437.973C139.951 437.324 138.601 436.373 137.484 435.18C137.511 434.684 137.553 434.193 137.606 433.702C139.707 413.517 160.516 409.661 177.517 397.772C196.648 384.393 217.297 414.204 217.644 437.9Z" fill="#3F3D56"/>
<path d="M233.484 429.244C233.332 429.438 233.481 429.737 233.477 429.98H183.688C182.549 429.981 181.422 429.747 180.377 429.295C179.331 428.842 178.39 428.18 177.612 427.348C177.63 427.002 177.66 426.66 177.696 426.318C179.161 412.249 191.061 401.692 205.515 401.275C232.459 400.497 246.315 412.931 233.484 429.244Z" fill="#3F3D56"/>
<path d="M240.644 349.9C240.644 350.253 240.639 350.607 240.634 350.956H169.201C167.567 350.957 165.95 350.622 164.451 349.973C162.951 349.324 161.601 348.373 160.484 347.18C160.511 346.684 160.553 346.193 160.606 345.702C162.707 325.517 185.394 319.041 200.517 309.772C215.639 300.503 240.644 327.74 240.644 349.9Z" fill="#3F3D56"/>
<path d="M256.484 341.244C256.459 341.488 256.457 341.735 256.477 341.98H206.688C205.549 341.981 204.422 341.748 203.377 341.295C202.331 340.842 201.39 340.18 200.612 339.348C200.63 339.002 200.66 338.66 200.696 338.318C202.161 324.249 214.84 317.975 228.515 313.275C251.099 305.511 260.435 321.501 256.484 341.244Z" fill="#3F3D56"/>
<path d="M290.484 355.219C290.497 355.465 290.495 355.711 290.477 355.956H240.688C239.549 355.957 238.422 355.723 237.377 355.271C236.331 354.818 235.39 354.156 234.612 353.324C234.63 352.978 234.66 352.636 234.696 352.294C236.161 338.225 252.423 337.605 262.515 327.25C271.865 317.656 288.444 336.564 290.484 355.219Z" fill="#3F3D56"/>
<path d="M582.484 239.956H562.484V484.956H582.484V239.956Z" fill="#3F3D56"/>
<path d="M806.313 206.196C805.573 191.736 800.653 177.216 790.983 166.446C786.763 161.746 768.923 150.726 763.233 147.956C765.393 130.966 777.013 121.166 768.513 106.636C757.723 88.2056 735.213 77.3956 714.083 80.5056C706.521 81.6574 699.3 84.4419 692.923 88.6656C685.623 82.2856 675.633 78.3656 665.903 76.8756C635.253 72.1756 602.483 86.7256 585.423 112.616C582.844 116.529 582.669 122.385 584.013 129.366C589.194 156.273 574.348 182.498 548.81 192.429C548.319 192.61 547.873 192.895 547.503 193.266C532.763 208.516 527.923 232.576 535.633 252.346C537.457 257.026 538 265.162 543 265.382C575.296 266.804 577.77 284.432 559.457 310.642C555.622 316.129 561.193 323.881 564.663 329.716C572.643 343.146 588.753 350.046 604.353 350.966C619.883 351.886 635.223 347.776 650.233 343.686L670.233 342.886C687.443 345.856 705.443 345.386 721.753 339.226C739.343 332.576 754.683 318.716 760.503 300.836C762.493 294.726 796.743 302.386 796.233 295.956C804.753 291.606 778.993 271.566 785.443 264.486C799.816 248.569 807.318 227.618 806.313 206.196Z" fill="#6C63FF"/>
<path opacity="0.1" d="M637.996 234.603C633.392 248.748 622.82 260.359 609.9 267.893C616.43 267.094 622.842 265.527 629.004 263.226C643.99 257.56 657.32 246.649 664.544 232.49C654.394 232.5 639.298 230.607 637.996 234.603Z" fill="black"/>
<path opacity="0.1" d="M693.694 188.486C708.067 172.569 715.569 151.618 714.564 130.196C713.824 115.736 708.904 101.216 699.234 90.4456C695.014 85.7457 677.174 74.7257 671.484 71.9557C673.644 54.9657 685.264 45.1656 676.764 30.6356C665.974 12.2056 643.464 1.39566 622.334 4.50566C614.772 5.65742 607.552 8.4419 601.174 12.6656C593.874 6.28565 583.884 2.36565 574.154 0.875655C556.466 -1.83675 538.077 1.87285 522.404 10.4627C529.707 9.48642 537.111 9.54717 544.396 10.6431C554.126 12.1331 564.116 16.0531 571.416 22.4331C577.797 18.2531 596.287 7.5825 592.576 14.2731C576.715 42.8706 595.462 56.9059 647.006 40.4031C655.214 37.7753 644.24 51.5538 631.284 67.9085C619.307 83.0268 632.562 104.858 651.511 101.264C660.766 99.5079 668.054 98.6289 669.476 100.213C679.146 110.983 714.129 127.971 684.806 139.963C655.484 151.956 678.216 182.593 663.936 198.253C659.405 203.227 670.76 214.592 674.969 222.424C685.349 221.621 704.87 224.823 704.484 219.956C713.004 215.606 687.244 195.566 693.694 188.486Z" fill="black"/>
<path d="M121.378 469.886L143.335 469.885V469.608C143.335 467.341 142.435 465.168 140.832 463.565C139.229 461.962 137.056 461.062 134.789 461.062L130.778 458.019L123.295 461.062H121.378V469.886Z" fill="#2F2E41"/>
<path opacity="0.1" d="M433.775 486.94C630.321 481.738 788.642 453.931 787.395 424.83C786.148 395.729 625.805 376.355 429.26 381.557C232.714 386.759 74.3934 414.566 75.6404 443.667C76.8874 472.767 237.23 492.141 433.775 486.94Z" fill="#6C63FF"/>
<path d="M756.308 427.496C771.191 403.275 771.012 362.314 770.467 348.38C770.348 345.332 770.213 343.578 770.213 343.578C770.213 343.578 758.591 341.14 763.737 328.367C766.255 322.114 758.966 318.11 750.885 315.656C745.101 313.998 739.165 312.843 733.157 312.209L619.954 298.606C605.807 274.906 574.924 276.625 574.924 276.625C574.924 276.625 547.745 272.291 528.378 270.799C525.586 268.232 522.492 265.959 519.153 264.024C517.171 262.761 515.042 261.707 512.806 260.883C510.082 259.974 507.172 259.662 504.307 259.971C501.443 260.281 498.704 261.203 496.31 262.665C495.146 263.333 494.175 264.248 493.476 265.334C493.202 265.831 492.987 266.354 492.836 266.894C492.485 267.809 492.185 268.74 491.938 269.685C491.74 270.134 491.47 270.554 491.137 270.929C490.296 271.891 488.91 272.567 488.66 273.78C488.652 273.85 488.647 273.921 488.647 273.991C488.49 274.216 488.379 274.465 488.319 274.727C488.232 275.268 488.326 275.823 488.587 276.317C488.625 276.4 488.671 276.475 488.717 276.551C487.68 277.764 486.812 279.092 486.134 280.504C485.86 280.621 485.593 280.752 485.336 280.899L485.111 281.031L485.086 281.434L484.958 281.512L484.282 288.008L484.426 288.123C484.453 291.175 485.265 294.185 486.796 296.908C488.327 299.63 490.534 301.987 493.235 303.786C493.303 304.209 493.362 304.637 493.421 305.086C493.681 307.246 493.723 309.422 493.546 311.585L493.424 311.578C490.125 310.042 484.217 311.622 479.102 313.576L414.688 309.519C428.187 295.46 444.282 284.911 444.282 284.911L445.104 271.859C434.156 270.665 335.011 307.168 313.271 315.237L312.309 315.595L203.426 311.842C183.746 310.49 166.367 312.063 151.185 315.455C125.818 321.076 102.602 332.809 83.9116 349.452C70.2593 361.589 63.9585 371.932 63.9585 371.932L64.0242 372.839L63.8873 373.063L64.0513 373.213L65.642 394.634L66.7362 409.373C52.2098 416.808 70.1398 421.283 70.1398 421.283C86.5518 435.978 114.369 437.166 114.369 437.166C120.618 446.103 140.442 446.21 140.442 446.21L244.122 452.742C246.287 444.097 248.995 435.579 252.23 427.231C254.811 456.794 278.546 480.811 308.896 482.723C311.148 482.864 313.405 482.88 315.655 482.771C317.874 483.161 320.115 483.429 322.366 483.572C353.07 485.506 379.887 464.142 385.756 434.621L390.829 434.94C389.463 441.533 387.405 447.981 384.682 454.195C479.443 435.113 653.612 434.13 653.612 434.13C654.727 427.894 655.901 421.874 657.124 416.103C663.243 432.851 678.723 445.25 697.575 446.438C699.288 446.543 701.005 446.554 702.717 446.47C704.404 446.768 706.109 446.973 707.822 447.083C730.207 448.493 749.847 433.62 755.389 412.608C755.709 416.399 755.788 420.2 755.626 423.994C754.6 427.554 753.756 429.817 753.642 430.135C754.263 429.228 754.856 428.296 755.422 427.34C755.398 427.724 755.373 428.12 755.348 428.517C755.134 429.167 754.988 429.53 754.944 429.653L755.295 429.131C755.276 429.422 755.259 429.706 755.24 429.997C755.167 430.019 755.608 429.091 756.308 427.496Z" fill="url(#paint0_linear_36_96)"/>
<path d="M751.108 336.772L537.473 323.314L532.485 402.503L746.119 415.961L751.108 336.772Z" fill="#6F7D95"/>
<path d="M485.491 282.807L511.899 347.179L572.2 347.619L576.241 322.118L579.958 292.117L495.345 281.184L485.491 282.807Z" fill="#4B5C7A"/>
<path d="M485.491 282.807C485.491 282.807 497.636 273.496 511.757 272.141C525.879 270.787 572.311 278.193 572.311 278.193L578.322 289.193L576.753 294.152L485.491 282.807Z" fill="#FF4D52"/>
<path d="M597.872 322.081L382.417 308.508L378.763 366.506L594.218 380.079L597.872 322.081Z" fill="#4B5C7A"/>
<path d="M542.377 358.2C549.17 341.071 538.547 328.865 538.547 328.865L520.497 315.62C520.479 315.66 520.457 315.698 520.432 315.735C518.152 312.947 516.598 309.718 515.89 306.302C515.846 306.087 515.809 305.865 515.766 305.63C517.56 304.565 519.155 303.243 520.492 301.713C523.666 300.18 525.208 297.49 525.901 294.752C528.042 292.187 529.797 289.366 531.118 286.365C531.335 285.88 531.525 285.384 531.688 284.881C532.11 283.951 532.335 282.953 532.35 281.942C532.267 280.81 531.929 279.703 531.355 278.693C528.522 273.204 523.056 269.162 517.467 265.797C515.517 264.555 513.423 263.519 511.225 262.709C508.546 261.815 505.684 261.509 502.868 261.813C500.051 262.118 497.359 263.025 495.005 264.461C493.86 265.119 492.904 266.019 492.217 267.087C491.947 267.575 491.735 268.089 491.586 268.62C491.248 269.522 490.962 270.439 490.726 271.368C490.541 271.807 490.287 272.218 489.97 272.588C489.138 273.531 487.781 274.196 487.532 275.395C487.524 275.465 487.519 275.536 487.519 275.606C487.366 275.827 487.257 276.072 487.199 276.33C487.112 276.861 487.204 277.407 487.462 277.893C487.5 277.975 487.546 278.051 487.592 278.127C486.571 279.319 485.717 280.626 485.049 282.016C484.777 282.13 484.513 282.26 484.259 282.404L484.042 282.53L484.017 282.926L483.889 283.005L483.219 289.395L483.356 289.51C483.381 292.511 484.178 295.472 485.683 298.151C487.188 300.829 489.358 303.148 492.015 304.917C492.083 305.333 492.143 305.755 492.195 306.197C492.484 308.531 492.51 310.884 492.273 313.218C492.257 313.014 492.27 312.81 492.311 312.61C487.245 310.12 475.521 315.382 470.785 317.739C470.074 317.997 469.403 318.341 468.792 318.762L468.71 318.81C465.418 320.952 458.798 327.067 452.816 343.477C444.51 366.38 444.889 371.714 439.569 376.809C434.249 381.903 426.906 419.695 426.906 419.695L436.773 422.806L438.292 419.105C449.579 429.839 482.641 436.748 482.641 436.748L483.847 433.897C488.856 435.911 497.574 433.878 497.574 433.878C510.335 430.607 515.668 420.601 525.598 407.585C535.527 394.57 542.377 358.2 542.377 358.2ZM487.508 425.325L514.752 360.947C516.202 371.301 505.949 386.818 504.466 397.293C503.528 404.031 494.104 416.945 487.508 425.325Z" fill="url(#paint1_linear_36_96)"/>
<path d="M525.197 287.572C525.197 287.572 528.333 301.902 516.241 303.602C504.149 305.303 512.567 297.018 512.567 297.018L524.729 287.436L525.197 287.572Z" fill="#472727"/>
<path d="M473.176 317.976C473.176 317.976 464.088 320.722 456.159 342.58C448.23 364.437 448.561 369.502 443.536 374.383C438.512 379.264 431.41 415.286 431.41 415.286L440.66 418.205L450.371 394.442L476.911 331.726L473.176 317.976Z" fill="#DDE0E4"/>
<path opacity="0.05" d="M473.176 317.976C473.176 317.976 464.088 320.722 456.159 342.58C448.23 364.437 448.561 369.502 443.536 374.383C438.512 379.264 431.41 415.286 431.41 415.286L440.66 418.205L450.371 394.442L476.911 331.726L473.176 317.976Z" fill="black"/>
<path d="M522.638 318.569C522.638 318.569 484.372 333.59 490.525 322.607C493.569 317.183 493.833 311.378 493.331 306.852C493.05 304.188 492.427 301.559 491.477 299.022C491.477 299.022 517.904 282.247 515.477 297.149C514.919 300.354 514.957 303.629 515.59 306.834C517.276 314.926 522.638 318.569 522.638 318.569Z" fill="#DB8B8B"/>
<path opacity="0.1" d="M515.588 306.86C513.086 308.474 510.199 309.516 507.161 309.901C504.123 310.287 501.022 310.005 498.11 309.078C496.407 308.542 494.789 307.794 493.302 306.857C493.02 304.192 492.398 301.564 491.447 299.027C491.447 299.027 517.875 282.251 515.448 297.153C514.896 300.367 514.944 303.649 515.588 306.86Z" fill="black"/>
<path d="M523.25 296.815C526.644 287.457 521.116 277.26 510.902 274.039C500.687 270.818 489.655 275.794 486.261 285.152C482.866 294.51 488.395 304.707 498.609 307.928C508.823 311.149 519.856 306.174 523.25 296.815Z" fill="#DB8B8B"/>
<path opacity="0.1" d="M495.385 281.93C494.832 282.196 494.226 282.356 493.602 282.4C492.978 282.445 492.349 282.372 491.753 282.188C491.157 282.003 490.607 281.711 490.135 281.327C489.664 280.943 489.28 280.477 489.008 279.955C488.769 279.49 488.686 278.972 488.769 278.466C489.007 277.326 490.29 276.69 491.105 275.786C492.375 274.319 492.285 272.196 493.242 270.537C493.893 269.528 494.792 268.675 495.87 268.047C498.068 266.669 500.595 265.792 503.244 265.489C505.894 265.185 508.59 265.463 511.114 266.299C513.174 267.061 515.134 268.038 516.956 269.21C522.188 272.387 527.301 276.194 529.912 281.423C530.447 282.386 530.759 283.439 530.83 284.515C530.789 285.669 530.497 286.802 529.97 287.846C528.701 290.741 527.016 293.463 524.959 295.941C524.371 295.178 523.613 294.539 522.736 294.068C522.293 293.841 521.785 293.748 521.283 293.801C520.782 293.854 520.314 294.051 519.944 294.363C519.272 295.058 518.802 296.436 517.873 296.045C517.267 295.795 517.324 295.008 517.391 294.402C517.687 291.765 516.276 289.174 514.28 287.256C512.284 285.338 509.746 283.996 507.243 282.677C505.446 281.727 503.099 279.661 501.091 279.196C498.6 278.608 497.256 281.019 495.385 281.93Z" fill="black"/>
<path d="M495.708 281.041C495.156 281.307 494.549 281.467 493.925 281.511C493.301 281.556 492.672 281.483 492.076 281.299C491.481 281.114 490.93 280.822 490.459 280.438C489.987 280.054 489.603 279.588 489.331 279.066C489.092 278.601 489.009 278.083 489.093 277.577C489.331 276.437 490.613 275.801 491.429 274.897C492.699 273.43 492.608 271.307 493.565 269.648C494.216 268.639 495.116 267.786 496.193 267.158C498.391 265.78 500.918 264.903 503.567 264.6C506.217 264.296 508.914 264.574 511.437 265.41C513.497 266.172 515.457 267.149 517.279 268.321C522.511 271.498 527.624 275.305 530.235 280.534C530.77 281.497 531.083 282.55 531.153 283.626C531.113 284.78 530.82 285.913 530.293 286.957C529.024 289.852 527.339 292.574 525.282 295.052C524.695 294.289 523.937 293.65 523.06 293.179C522.616 292.952 522.108 292.859 521.607 292.912C521.106 292.965 520.637 293.162 520.267 293.474C519.595 294.169 519.125 295.546 518.196 295.156C517.591 294.906 517.647 294.119 517.715 293.513C518.011 290.876 516.599 288.285 514.603 286.367C512.607 284.449 510.07 283.107 507.567 281.788C505.77 280.838 503.422 278.772 501.414 278.307C498.923 277.712 497.579 280.13 495.708 281.041Z" fill="#472727"/>
<path d="M503.646 319.458C503.646 319.458 519.212 317.657 520.024 315.432L536.905 327.959C536.905 327.959 546.81 339.529 540.34 355.876C540.34 355.876 533.726 390.567 524.332 403.006C514.937 415.444 508.949 431.948 496.951 435.135C496.951 435.135 486.076 427.732 482.344 427.576C482.344 427.576 503.081 403.307 504.534 393.328C505.986 383.35 515.697 368.522 514.396 358.669L483.832 431.022C483.832 431.022 442.473 422.443 439.043 409.449C439.043 409.449 442.954 404.71 442.602 399.636C442.249 394.562 461.047 357.744 461.047 357.744L471.391 318.767C471.391 318.767 487.562 309.769 493.587 312.751C493.56 312.709 492.128 317.564 503.646 319.458Z" fill="#DDE0E4"/>
<g opacity="0.1">
<path d="M511.038 289.401C507.539 284.402 500.047 287.853 498.817 288.459L496.964 288.17C495.44 286.441 490.726 281.802 485.842 284.688L485.631 284.814L484.966 290.899L485.159 291.057C486.451 292.102 487.94 292.92 489.551 293.471C490.57 293.817 491.662 293.935 492.736 293.818C493.533 293.701 494.29 293.424 494.954 293.007C495.618 292.59 496.173 292.043 496.58 291.405L497.547 291.525L498.275 291.445C498.375 292.157 498.638 292.843 499.048 293.457C499.458 294.072 500.004 294.6 500.651 295.007C503.762 296.882 508.566 295.505 508.763 295.484L509.013 295.414L511.111 289.618L511.038 289.401ZM508.261 294.616C507.285 294.854 503.611 295.605 501.267 294.176C500.685 293.79 500.206 293.287 499.867 292.707C499.528 292.126 499.337 291.483 499.311 290.827L499.255 290.338L497.66 290.537L496.081 290.384L495.912 290.652C495.585 291.235 495.117 291.739 494.543 292.126C493.968 292.514 493.304 292.774 492.6 292.886C489.853 293.251 486.838 291.123 486.052 290.522L486.614 285.38C490.846 283.118 495.078 287.487 496.289 288.904L496.417 289.051L499.029 289.455L499.193 289.365C499.268 289.33 506.048 285.715 509.564 289.189C509.738 289.358 509.898 289.539 510.043 289.73L508.261 294.616Z" fill="black"/>
<path d="M522.631 293.212L510.458 291.509L509.462 291.267L510.013 289.735C509.869 289.544 509.709 289.363 509.535 289.194L511.008 289.419L520.961 290.949L522.631 293.212Z" fill="black"/>
</g>
<path d="M511.341 288.705C507.842 283.705 500.35 287.156 499.12 287.762L497.267 287.473C495.743 285.744 491.029 281.106 486.144 283.991L485.934 284.117L485.269 290.202L485.461 290.36C486.754 291.405 488.243 292.224 489.853 292.774C490.873 293.12 491.965 293.239 493.039 293.121C493.836 293.004 494.593 292.727 495.257 292.31C495.921 291.893 496.476 291.346 496.882 290.708L497.85 290.829L498.578 290.748C498.677 291.461 498.941 292.147 499.351 292.761C499.76 293.375 500.307 293.903 500.954 294.31C504.065 296.185 508.869 294.809 509.065 294.788L509.315 294.717L511.414 288.922L511.341 288.705ZM508.564 293.92C507.588 294.157 503.914 294.908 501.57 293.479C500.988 293.093 500.509 292.591 500.169 292.01C499.83 291.429 499.64 290.786 499.613 290.13L499.557 289.642L497.963 289.84L496.407 289.649L496.239 289.917C495.917 290.503 495.452 291.012 494.88 291.404C494.308 291.797 493.644 292.062 492.939 292.179C490.193 292.543 487.177 290.415 486.392 289.815L486.954 284.673C491.185 282.41 495.418 286.779 496.629 288.196L496.757 288.344L499.368 288.747L499.533 288.658C499.607 288.623 506.387 285.007 509.903 288.481C510.078 288.65 510.238 288.831 510.382 289.023L508.564 293.92Z" fill="#472727"/>
<path d="M522.773 292.796L510.643 291.096L509.647 290.854L510.198 289.322C510.054 289.13 509.894 288.949 509.719 288.781L511.193 289.006L521.146 290.536L522.773 292.796Z" fill="#472727"/>
<path d="M434.797 357.158L221.163 343.7L216.174 422.889L429.808 436.347L434.797 357.158Z" fill="#6F7D95"/>
<path d="M310.679 480.911C343.604 482.985 371.985 457.826 374.071 424.717C376.156 391.609 351.157 363.087 318.232 361.013C285.308 358.939 256.927 384.098 254.841 417.207C252.755 450.315 277.755 478.837 310.679 480.911Z" fill="#4B5C7A"/>
<path opacity="0.05" d="M310.679 480.911C343.604 482.985 371.985 457.826 374.071 424.717C376.156 391.609 351.157 363.087 318.232 361.013C285.308 358.939 256.927 384.098 254.841 417.207C252.755 450.315 277.755 478.837 310.679 480.911Z" fill="black"/>
<path d="M323.926 481.745C356.85 483.819 385.232 458.661 387.317 425.552C389.403 392.443 364.404 363.922 331.479 361.848C298.555 359.774 270.174 384.932 268.088 418.041C266.002 451.15 291.002 479.671 323.926 481.745Z" fill="#4B5C7A"/>
<path opacity="0.05" d="M324.826 446.362C339.458 447.283 352.006 437.131 352.853 423.686C353.7 410.241 342.525 398.595 327.893 397.673C313.261 396.751 300.713 406.903 299.866 420.348C299.019 433.793 310.194 445.44 324.826 446.362Z" fill="black"/>
<path d="M325.899 429.323C330.291 429.6 334.056 426.553 334.311 422.518C334.565 418.483 331.211 414.988 326.82 414.711C322.429 414.435 318.663 417.482 318.409 421.517C318.154 425.552 321.508 429.047 325.899 429.323Z" stroke="#6F7D95" stroke-width="2" stroke-miterlimit="10"/>
<path d="M327.05 411.062C328.147 411.131 329.087 410.37 329.151 409.362C329.214 408.354 328.376 407.481 327.28 407.412C326.183 407.343 325.242 408.104 325.179 409.112C325.115 410.12 325.953 410.993 327.05 411.062Z" fill="#6F7D95"/>
<path d="M338.998 414.924C339.879 414.329 340.062 413.185 339.405 412.368C338.749 411.552 337.502 411.372 336.621 411.967C335.74 412.562 335.558 413.706 336.215 414.523C336.871 415.339 338.117 415.519 338.998 414.924Z" fill="#6F7D95"/>
<path d="M343.184 424.059C343.437 423.078 342.775 422.087 341.706 421.844C340.637 421.6 339.565 422.198 339.312 423.179C339.059 424.159 339.721 425.151 340.79 425.394C341.859 425.637 342.931 425.04 343.184 424.059Z" fill="#6F7D95"/>
<path d="M335.882 434.137C336.864 433.692 337.259 432.597 336.766 431.69C336.273 430.782 335.077 430.407 334.095 430.851C333.114 431.295 332.718 432.39 333.211 433.298C333.705 434.205 334.9 434.581 335.882 434.137Z" fill="#6F7D95"/>
<path d="M325.364 434.466C325.798 433.542 325.333 432.462 324.324 432.052C323.315 431.642 322.145 432.059 321.71 432.982C321.275 433.906 321.741 434.986 322.749 435.396C323.758 435.806 324.929 435.389 325.364 434.466Z" fill="#6F7D95"/>
<path d="M315.624 428.194C316.676 427.914 317.274 426.901 316.958 425.93C316.643 424.959 315.534 424.399 314.481 424.679C313.429 424.959 312.832 425.972 313.147 426.943C313.463 427.914 314.571 428.474 315.624 428.194Z" fill="#6F7D95"/>
<path d="M317.268 416.852C317.872 416.014 317.617 414.877 316.699 414.314C315.78 413.75 314.547 413.972 313.944 414.811C313.34 415.649 313.595 416.785 314.513 417.349C315.432 417.913 316.665 417.69 317.268 416.852Z" fill="#6F7D95"/>
<path d="M758.976 402.453C756.126 415.244 749.572 429.029 749.572 429.029C749.666 428.15 749.745 427.281 749.809 426.422C749.879 425.312 749.948 424.214 750.017 423.116C751.541 387.46 731.806 364.159 718.848 352.782C715.482 349.787 711.83 347.077 707.937 344.686L744.957 347.019C744.957 347.019 757.8 375.262 759.993 388.836C760.634 392.647 760.084 397.478 758.976 402.453Z" fill="#FF4D52"/>
<path opacity="0.05" d="M758.976 402.453C756.126 415.244 749.572 429.029 749.572 429.029C749.666 428.15 749.745 427.281 749.809 426.422C749.879 425.312 749.948 424.214 750.017 423.116C751.541 387.46 731.806 364.159 718.848 352.782C715.482 349.787 711.83 347.077 707.937 344.686L744.957 347.019C744.957 347.019 757.8 375.262 759.993 388.836C760.634 392.647 760.084 397.478 758.976 402.453Z" fill="black"/>
<path d="M692.912 445.228C717.952 446.806 739.537 427.671 741.123 402.49C742.71 377.309 723.697 355.616 698.657 354.039C673.617 352.462 652.032 371.596 650.446 396.777C648.859 421.959 667.872 443.651 692.912 445.228Z" fill="#4B5C7A"/>
<path opacity="0.05" d="M692.912 445.228C717.952 446.806 739.537 427.671 741.123 402.49C742.71 377.309 723.697 355.616 698.657 354.039C673.617 352.462 652.032 371.596 650.446 396.777C648.859 421.959 667.872 443.651 692.912 445.228Z" fill="black"/>
<path d="M703.133 445.581C728.172 447.158 749.757 428.024 751.344 402.843C752.93 377.661 733.917 355.969 708.877 354.392C683.837 352.815 662.252 371.949 660.666 397.13C659.08 422.311 678.093 444.004 703.133 445.581Z" fill="#4B5C7A"/>
<path opacity="0.05" d="M703.817 418.667C714.944 419.368 724.486 411.648 725.13 401.424C725.774 391.199 717.276 382.342 706.149 381.642C695.022 380.941 685.48 388.661 684.835 398.885C684.191 409.11 692.689 417.966 703.817 418.667Z" fill="black"/>
<path d="M704.486 405.99C707.825 406.2 710.687 403.884 710.881 400.817C711.074 397.749 708.524 395.092 705.186 394.882C701.848 394.672 698.985 396.988 698.792 400.055C698.599 403.123 701.148 405.78 704.486 405.99Z" stroke="#6F7D95" stroke-width="2" stroke-miterlimit="10"/>
<path d="M705.361 392.105C706.196 392.158 706.911 391.579 706.96 390.812C707.008 390.045 706.371 389.381 705.536 389.328C704.702 389.276 703.986 389.855 703.938 390.622C703.889 391.388 704.527 392.053 705.361 392.105Z" fill="#6F7D95"/>
<path d="M714.454 395.041C715.124 394.589 715.263 393.718 714.763 393.097C714.264 392.476 713.316 392.339 712.645 392.792C711.975 393.244 711.836 394.115 712.336 394.736C712.835 395.357 713.784 395.494 714.454 395.041Z" fill="#6F7D95"/>
<path d="M717.631 401.995C717.823 401.248 717.32 400.494 716.506 400.309C715.693 400.124 714.877 400.579 714.685 401.325C714.492 402.071 714.996 402.826 715.809 403.011C716.623 403.195 717.438 402.741 717.631 401.995Z" fill="#6F7D95"/>
<path d="M712.084 409.658C712.831 409.32 713.132 408.486 712.757 407.796C712.382 407.106 711.472 406.82 710.725 407.158C709.978 407.496 709.677 408.329 710.052 409.02C710.428 409.71 711.337 409.996 712.084 409.658Z" fill="#6F7D95"/>
<path d="M704.083 409.906C704.413 409.203 704.059 408.381 703.292 408.069C702.524 407.758 701.633 408.075 701.303 408.777C700.972 409.48 701.326 410.302 702.094 410.614C702.861 410.925 703.752 410.608 704.083 409.906Z" fill="#6F7D95"/>
<path d="M696.672 405.13C697.473 404.917 697.928 404.146 697.688 403.407C697.448 402.669 696.604 402.243 695.803 402.456C695.002 402.668 694.548 403.44 694.788 404.178C695.028 404.917 695.872 405.343 696.672 405.13Z" fill="#6F7D95"/>
<path d="M697.932 396.507C698.391 395.869 698.197 395.004 697.498 394.575C696.8 394.146 695.861 394.316 695.402 394.953C694.943 395.591 695.137 396.456 695.836 396.885C696.534 397.314 697.473 397.145 697.932 396.507Z" fill="#6F7D95"/>
<path d="M72.7683 411.897L69.7798 371.954L134.719 376.045L166.378 405.474L147.78 439.576C147.78 439.576 82.3074 425.375 72.7683 411.897Z" fill="#FF4D52"/>
<path opacity="0.05" d="M166.399 405.475L147.802 439.578C147.802 439.578 82.3074 425.375 72.7683 411.897L72.6395 410.156L69.9093 373.223L69.8819 372.856L69.8154 371.963L134.755 376.054L166.399 405.475Z" fill="black"/>
<path d="M444.792 273.235L443.984 286.061C443.984 286.061 408.842 309.072 399.362 332.272C397.725 336.033 396.942 340.069 397.061 344.135C398.447 370.535 311.014 317.433 311.014 317.433L315.15 315.888C336.518 307.987 434.024 272.052 444.792 273.235Z" fill="#7597CE"/>
<path d="M517.22 340.239C517.22 340.239 549.544 328.031 555.249 317.849C556.014 316.483 556.744 315.102 557.58 313.767C561.058 308.205 568.457 295.109 565.57 288.416C561.852 279.784 575.818 290.183 575.818 290.183L564.826 329.232L543.523 338.511L516.608 340.201" fill="#FF4D52"/>
<path opacity="0.05" d="M517.22 340.239C517.22 340.239 549.544 328.031 555.249 317.849C556.014 316.483 556.744 315.102 557.58 313.767C561.058 308.205 568.457 295.109 565.57 288.416C561.852 279.784 575.818 290.183 575.818 290.183L564.826 329.232L543.523 338.511L516.608 340.201" fill="black"/>
<path opacity="0.05" d="M166.399 405.475L147.802 439.578C147.802 439.578 82.3074 425.375 72.7683 411.897L72.6395 410.156C72.9162 410.008 73.2076 409.853 73.5131 409.707C73.5131 409.707 92.6247 425.468 137.939 431.688C137.939 431.688 166.547 413.331 123.614 388.236C123.614 388.236 84.9757 386.917 69.8873 373.228L69.7229 373.085L69.8599 372.862C69.9773 372.679 70.1662 372.394 70.4265 372.008L134.733 376.059L166.399 405.475Z" fill="black"/>
<path opacity="0.05" d="M396.915 344.41C398.3 370.817 310.868 317.715 310.868 317.715L315.004 316.17C317.502 318.942 327.576 328.399 348.884 328.785C362.594 329.032 383.318 330.901 399.252 332.549C397.603 336.307 396.808 340.343 396.915 344.41Z" fill="black"/>
<path opacity="0.05" d="M434.804 357.159L429.815 436.348L390.125 433.847C393.905 415.592 394.085 388.646 369.597 371.651C360.461 365.35 349.637 361.473 338.318 360.448C326.999 359.424 315.626 361.291 305.452 365.844C288.214 373.547 268.435 390.17 254.317 425.292L216.181 422.889L221.17 343.701L434.804 357.159Z" fill="black"/>
<path opacity="0.05" d="M758.976 402.453C756.929 411.099 753.991 419.437 749.815 426.436C749.274 427.38 748.692 428.297 748.067 429.187C748.181 428.869 749.007 426.651 750.023 423.143C754.971 406.064 764.589 358.544 720.552 353.022C719.978 352.953 719.412 352.884 718.845 352.828C715.482 349.817 711.831 347.092 707.937 344.686L744.957 347.019C744.957 347.019 757.8 375.262 759.993 388.836C760.634 392.647 760.084 397.478 758.976 402.453Z" fill="black"/>
<path d="M749.449 428.439C750.145 426.564 774.994 358.935 721.934 352.28C668.128 345.532 659.097 382.474 649.834 432.844C649.834 432.844 478.563 433.81 385.361 452.579C385.361 452.579 410.855 398.559 371.002 370.891C361.866 364.59 351.042 360.713 339.723 359.688C328.404 358.664 317.03 360.531 306.857 365.084C285.746 374.521 260.807 397.364 247.139 451.147L145.165 444.723C145.165 444.723 125.666 444.617 119.525 435.806C119.525 435.806 92.1467 434.639 76.03 420.189C76.03 420.189 58.0361 415.696 73.1267 408.25C73.1267 408.25 92.85 424.049 138.158 430.269C138.158 430.269 166.765 411.912 123.832 386.817C123.832 386.817 84.9055 385.487 69.9482 371.667C69.9482 371.667 76.1442 361.496 89.5741 349.564C107.946 333.194 130.769 321.65 155.708 316.113C172.508 312.464 189.854 311.268 207.114 312.567L314.427 316.247C314.427 316.247 324.001 329.171 348.924 329.619C373.848 330.067 422.256 335.918 422.256 335.918L422.738 335.948L522.96 338.086C525.854 337.895 528.728 337.521 531.562 336.969C546.282 334.265 574.459 325.028 571.431 294.083L728.062 312.912C733.971 313.535 739.808 314.67 745.497 316.3C753.45 318.713 760.614 322.656 758.139 328.806C753.085 341.365 764.507 343.764 764.507 343.764C764.507 343.764 764.644 345.492 764.759 348.486C765.314 362.607 765.484 404.968 749.449 428.439Z" fill="#FF4D52"/>
<path opacity="0.05" d="M272.462 337.134C272.462 337.134 206.876 333.56 161.561 365.993L185.839 367.522C185.839 367.522 254.833 355.632 272.026 343.838L272.462 337.134Z" fill="black"/>
<path d="M272.033 336.252C272.033 336.252 206.447 332.678 161.131 365.111L185.409 366.64C185.409 366.64 254.404 354.75 271.596 342.955L272.033 336.252Z" fill="#FFEC9F"/>
<path opacity="0.05" d="M156.131 316.995L155.187 331.983L98.4926 351.93L90.0039 350.446C108.374 334.077 131.194 322.533 156.131 316.995Z" fill="black"/>
<path d="M155.701 316.119L154.756 331.108L98.0556 351.048L89.5669 349.564C107.94 333.196 130.762 321.655 155.701 316.119Z" fill="#FFEC9F"/>
<path opacity="0.05" d="M229.567 389.302C229.567 389.302 198.774 404.156 193.417 440.792L210.413 441.863C210.413 441.863 219.62 402.13 239.885 389.952L229.567 389.302Z" fill="black"/>
<path opacity="0.05" d="M580.91 412.557L425.693 419.573C425.693 419.573 419.253 359.292 422.6 336.211L522.822 338.349C525.713 338.163 528.584 337.796 531.416 337.251L531.067 342.785L607.379 330.798C607.379 330.798 619.04 348.884 580.91 412.557Z" fill="black"/>
<path d="M572.311 278.193C572.311 278.193 605.332 276.357 618.28 302.928L571.513 298.316L572.311 278.193Z" fill="#FF4D52"/>
<path opacity="0.05" d="M615.44 311.777C613.918 315.405 614.632 319.545 621.916 322.839C627.978 325.583 635.431 323.318 637.922 317.6C639.375 314.267 638.769 310.352 632.275 306.79C625.781 303.228 618.1 305.439 615.44 311.777Z" fill="black"/>
<path d="M70.4261 380.385C70.4261 380.385 108.159 401.348 136.519 396.098" stroke="#FF4D52" stroke-miterlimit="10"/>
<path d="M71.1708 390.468C71.1708 390.468 95.1826 409.864 146.243 408.925" stroke="#FF4D52" stroke-miterlimit="10"/>
<path d="M71.8008 398.932C71.8008 398.932 95.4807 420.384 147.109 417.31" stroke="#FF4D52" stroke-miterlimit="10"/>
<path opacity="0.05" d="M616.591 299.814C616.591 299.814 595.3 314.623 576.335 320.73C576.335 320.73 604.151 327.096 616.591 299.814Z" fill="black"/>
<path opacity="0.1" d="M398.793 333.629C398.793 333.629 494.486 348.041 531.387 342.526C531.387 342.526 533.255 343.832 521.964 338.328L398.793 333.629Z" fill="black"/>
</g>
<defs>
<linearGradient id="paint0_linear_36_96" x1="409.617" y1="489.095" x2="424.386" y2="254.656" gradientUnits="userSpaceOnUse">
<stop stop-color="#808080" stop-opacity="0.25"/>
<stop offset="0.54" stop-color="#808080" stop-opacity="0.12"/>
<stop offset="1" stop-color="#808080" stop-opacity="0.1"/>
</linearGradient>
<linearGradient id="paint1_linear_36_96" x1="468.27" y1="433.106" x2="521.019" y2="265.822" gradientUnits="userSpaceOnUse">
<stop stop-color="#808080" stop-opacity="0.25"/>
<stop offset="0.54" stop-color="#808080" stop-opacity="0.12"/>
<stop offset="1" stop-color="#808080" stop-opacity="0.1"/>
</linearGradient>
</defs>
</svg>
