<svg width="582" height="425" viewBox="0 0 582 425" fill="none" xmlns="http://www.w3.org/2000/svg">
<path d="M124.076 407.534H127.401C127.316 409.34 126.949 410.9 126.299 412.213C125.66 413.514 124.727 414.513 123.498 415.212C122.282 415.911 120.758 416.26 118.928 416.26C117.615 416.26 116.428 416.001 115.368 415.483C114.309 414.965 113.399 414.224 112.64 413.261C111.894 412.285 111.322 411.117 110.924 409.756C110.527 408.395 110.328 406.865 110.328 405.167V400.307C110.328 398.621 110.527 397.097 110.924 395.736C111.334 394.375 111.918 393.213 112.677 392.25C113.447 391.274 114.381 390.527 115.477 390.009C116.585 389.491 117.838 389.233 119.235 389.233C120.945 389.233 122.39 389.576 123.571 390.262C124.763 390.937 125.678 391.93 126.317 393.243C126.967 394.544 127.328 396.14 127.401 398.031H124.076C123.992 396.646 123.775 395.52 123.426 394.652C123.077 393.773 122.559 393.129 121.872 392.719C121.198 392.298 120.319 392.087 119.235 392.087C118.271 392.087 117.434 392.28 116.723 392.665C116.025 393.051 115.447 393.605 114.989 394.327C114.543 395.038 114.206 395.899 113.977 396.911C113.761 397.91 113.652 399.031 113.652 400.271V405.167C113.652 406.323 113.742 407.401 113.923 408.401C114.116 409.401 114.417 410.28 114.826 411.039C115.248 411.785 115.796 412.37 116.471 412.791C117.145 413.213 117.964 413.423 118.928 413.423C120.144 413.423 121.108 413.225 121.818 412.827C122.529 412.43 123.053 411.797 123.39 410.93C123.739 410.063 123.968 408.931 124.076 407.534ZM134.663 388.149V415.899H131.466V388.149H134.663ZM133.887 405.384L132.586 405.33C132.574 403.993 132.724 402.758 133.037 401.626C133.363 400.482 133.82 399.488 134.41 398.645C135.013 397.802 135.729 397.152 136.56 396.694C137.391 396.224 138.313 395.989 139.325 395.989C140.119 395.989 140.842 396.122 141.492 396.387C142.143 396.64 142.697 397.049 143.155 397.615C143.612 398.181 143.962 398.916 144.202 399.819C144.455 400.711 144.582 401.801 144.582 403.089V415.899H141.384V403.053C141.384 402.03 141.27 401.211 141.041 400.596C140.824 399.97 140.487 399.518 140.029 399.241C139.583 398.952 139.017 398.808 138.331 398.808C137.705 398.808 137.12 398.982 136.578 399.332C136.036 399.681 135.561 400.163 135.151 400.777C134.754 401.391 134.441 402.096 134.212 402.891C133.995 403.674 133.887 404.505 133.887 405.384ZM148.683 407.064V405.203C148.683 403.686 148.876 402.355 149.261 401.211C149.646 400.054 150.182 399.091 150.869 398.32C151.555 397.549 152.356 396.971 153.272 396.586C154.187 396.188 155.169 395.989 156.217 395.989C157.289 395.989 158.282 396.188 159.198 396.586C160.113 396.971 160.914 397.549 161.6 398.32C162.299 399.091 162.841 400.054 163.226 401.211C163.612 402.355 163.805 403.686 163.805 405.203V407.064C163.805 408.582 163.612 409.919 163.226 411.075C162.841 412.219 162.305 413.177 161.618 413.947C160.932 414.718 160.131 415.296 159.216 415.682C158.3 416.067 157.313 416.26 156.253 416.26C155.193 416.26 154.205 416.067 153.29 415.682C152.374 415.296 151.568 414.718 150.869 413.947C150.182 413.177 149.646 412.219 149.261 411.075C148.876 409.919 148.683 408.582 148.683 407.064ZM151.881 405.203V407.064C151.881 408.136 151.989 409.075 152.206 409.882C152.423 410.689 152.73 411.364 153.127 411.906C153.525 412.448 153.988 412.857 154.518 413.134C155.048 413.399 155.626 413.532 156.253 413.532C156.975 413.532 157.608 413.399 158.15 413.134C158.704 412.857 159.161 412.448 159.523 411.906C159.884 411.364 160.155 410.689 160.336 409.882C160.516 409.075 160.607 408.136 160.607 407.064V405.203C160.607 404.131 160.498 403.198 160.282 402.403C160.065 401.596 159.758 400.922 159.36 400.38C158.963 399.825 158.493 399.416 157.951 399.151C157.421 398.874 156.843 398.735 156.217 398.735C155.602 398.735 155.03 398.874 154.5 399.151C153.97 399.416 153.507 399.825 153.109 400.38C152.724 400.922 152.423 401.596 152.206 402.403C151.989 403.198 151.881 404.131 151.881 405.203ZM167.255 407.064V405.203C167.255 403.686 167.448 402.355 167.833 401.211C168.219 400.054 168.755 399.091 169.441 398.32C170.128 397.549 170.929 396.971 171.844 396.586C172.759 396.188 173.741 395.989 174.789 395.989C175.861 395.989 176.854 396.188 177.77 396.586C178.685 396.971 179.486 397.549 180.173 398.32C180.871 399.091 181.413 400.054 181.799 401.211C182.184 402.355 182.377 403.686 182.377 405.203V407.064C182.377 408.582 182.184 409.919 181.799 411.075C181.413 412.219 180.877 413.177 180.191 413.947C179.504 414.718 178.703 415.296 177.788 415.682C176.873 416.067 175.885 416.26 174.825 416.26C173.765 416.26 172.777 416.067 171.862 415.682C170.947 415.296 170.14 414.718 169.441 413.947C168.755 413.177 168.219 412.219 167.833 411.075C167.448 409.919 167.255 408.582 167.255 407.064ZM170.453 405.203V407.064C170.453 408.136 170.561 409.075 170.778 409.882C170.995 410.689 171.302 411.364 171.7 411.906C172.097 412.448 172.561 412.857 173.091 413.134C173.621 413.399 174.199 413.532 174.825 413.532C175.548 413.532 176.18 413.399 176.722 413.134C177.276 412.857 177.734 412.448 178.095 411.906C178.456 411.364 178.727 410.689 178.908 409.882C179.089 409.075 179.179 408.136 179.179 407.064V405.203C179.179 404.131 179.071 403.198 178.854 402.403C178.637 401.596 178.33 400.922 177.932 400.38C177.535 399.825 177.065 399.416 176.523 399.151C175.993 398.874 175.415 398.735 174.789 398.735C174.175 398.735 173.603 398.874 173.073 399.151C172.543 399.416 172.079 399.825 171.681 400.38C171.296 400.922 170.995 401.596 170.778 402.403C170.561 403.198 170.453 404.131 170.453 405.203ZM195.981 410.894C195.981 410.4 195.86 409.967 195.619 409.593C195.379 409.22 194.981 408.859 194.427 408.509C193.885 408.16 193.15 407.787 192.223 407.389C191.32 407.016 190.507 406.649 189.784 406.287C189.073 405.914 188.471 405.51 187.977 405.077C187.484 404.643 187.104 404.143 186.839 403.577C186.586 402.999 186.46 402.319 186.46 401.536C186.46 400.753 186.604 400.03 186.893 399.368C187.194 398.693 187.616 398.103 188.158 397.597C188.7 397.091 189.35 396.7 190.109 396.423C190.868 396.134 191.717 395.989 192.657 395.989C193.993 395.989 195.132 396.248 196.071 396.766C197.011 397.284 197.727 397.995 198.221 398.898C198.727 399.789 198.98 400.795 198.98 401.915H195.8C195.8 401.373 195.68 400.861 195.439 400.38C195.198 399.898 194.843 399.506 194.373 399.205C193.903 398.892 193.331 398.735 192.657 398.735C191.946 398.735 191.368 398.862 190.922 399.115C190.477 399.368 190.151 399.699 189.947 400.109C189.754 400.506 189.658 400.946 189.658 401.427C189.658 401.789 189.706 402.102 189.802 402.367C189.91 402.62 190.091 402.861 190.344 403.089C190.597 403.306 190.94 403.535 191.374 403.776C191.819 404.005 192.386 404.27 193.072 404.571C194.397 405.089 195.511 405.613 196.414 406.143C197.318 406.673 198.004 407.293 198.474 408.004C198.944 408.714 199.179 409.593 199.179 410.641C199.179 411.496 199.022 412.273 198.709 412.972C198.408 413.658 197.974 414.248 197.408 414.742C196.842 415.236 196.161 415.616 195.367 415.88C194.584 416.133 193.704 416.26 192.729 416.26C191.259 416.26 190.013 415.971 188.989 415.393C187.977 414.803 187.207 414.038 186.677 413.098C186.159 412.147 185.9 411.129 185.9 410.045H189.097C189.134 410.96 189.338 411.671 189.712 412.177C190.097 412.683 190.561 413.032 191.103 413.225C191.645 413.417 192.187 413.514 192.729 413.514C193.439 413.514 194.036 413.411 194.517 413.207C194.999 412.99 195.36 412.683 195.601 412.285C195.854 411.888 195.981 411.424 195.981 410.894ZM210.362 416.26C209.193 416.26 208.139 416.085 207.2 415.736C206.261 415.387 205.46 414.857 204.797 414.146C204.135 413.423 203.629 412.514 203.28 411.418C202.93 410.322 202.756 409.027 202.756 407.534V405.33C202.756 403.607 202.954 402.15 203.352 400.958C203.761 399.765 204.309 398.808 204.996 398.085C205.682 397.35 206.459 396.82 207.326 396.495C208.194 396.158 209.085 395.989 210 395.989C211.229 395.989 212.277 396.188 213.144 396.586C214.011 396.983 214.716 397.573 215.258 398.356C215.8 399.139 216.197 400.102 216.45 401.247C216.715 402.391 216.847 403.71 216.847 405.203V407.064H204.635V404.336H213.65V403.884C213.602 402.873 213.463 401.981 213.234 401.211C213.017 400.44 212.656 399.838 212.15 399.404C211.644 398.958 210.928 398.735 210 398.735C209.41 398.735 208.862 398.838 208.356 399.043C207.862 399.235 207.435 399.579 207.074 400.072C206.724 400.554 206.447 401.223 206.242 402.078C206.05 402.933 205.953 404.017 205.953 405.33V407.534C205.953 408.582 206.05 409.485 206.242 410.244C206.447 410.991 206.742 411.611 207.128 412.105C207.525 412.586 208.007 412.948 208.573 413.189C209.151 413.417 209.808 413.532 210.542 413.532C211.614 413.532 212.499 413.327 213.198 412.918C213.897 412.496 214.505 411.96 215.023 411.31L216.703 413.315C216.354 413.809 215.896 414.285 215.33 414.742C214.776 415.188 214.089 415.555 213.27 415.844C212.463 416.121 211.494 416.26 210.362 416.26ZM233.74 413.875L238.094 396.351H241.49L235.04 418.916C234.884 419.397 234.673 419.915 234.408 420.469C234.155 421.035 233.83 421.571 233.432 422.077C233.035 422.583 232.559 422.993 232.005 423.306C231.451 423.631 230.801 423.794 230.054 423.794C229.825 423.794 229.53 423.757 229.169 423.685C228.819 423.613 228.567 423.553 228.41 423.505V420.795C228.482 420.807 228.597 420.819 228.753 420.831C228.91 420.855 229.024 420.867 229.096 420.867C229.723 420.867 230.253 420.764 230.686 420.56C231.132 420.367 231.511 420.036 231.825 419.566C232.138 419.108 232.403 418.476 232.619 417.669L233.74 413.875ZM230.921 396.351L234.805 411.526L235.637 415.049L233.36 416.278L227.434 396.351H230.921ZM243.676 407.064V405.203C243.676 403.686 243.869 402.355 244.254 401.211C244.64 400.054 245.176 399.091 245.862 398.32C246.549 397.549 247.35 396.971 248.265 396.586C249.18 396.188 250.162 395.989 251.21 395.989C252.282 395.989 253.275 396.188 254.191 396.586C255.106 396.971 255.907 397.549 256.594 398.32C257.292 399.091 257.834 400.054 258.22 401.211C258.605 402.355 258.798 403.686 258.798 405.203V407.064C258.798 408.582 258.605 409.919 258.22 411.075C257.834 412.219 257.298 413.177 256.612 413.947C255.925 414.718 255.124 415.296 254.209 415.682C253.293 416.067 252.306 416.26 251.246 416.26C250.186 416.26 249.198 416.067 248.283 415.682C247.368 415.296 246.561 414.718 245.862 413.947C245.176 413.177 244.64 412.219 244.254 411.075C243.869 409.919 243.676 408.582 243.676 407.064ZM246.874 405.203V407.064C246.874 408.136 246.982 409.075 247.199 409.882C247.416 410.689 247.723 411.364 248.12 411.906C248.518 412.448 248.982 412.857 249.512 413.134C250.041 413.399 250.62 413.532 251.246 413.532C251.969 413.532 252.601 413.399 253.143 413.134C253.697 412.857 254.155 412.448 254.516 411.906C254.877 411.364 255.148 410.689 255.329 409.882C255.51 409.075 255.6 408.136 255.6 407.064V405.203C255.6 404.131 255.492 403.198 255.275 402.403C255.058 401.596 254.751 400.922 254.353 400.38C253.956 399.825 253.486 399.416 252.944 399.151C252.414 398.874 251.836 398.735 251.21 398.735C250.596 398.735 250.023 398.874 249.493 399.151C248.964 399.416 248.5 399.825 248.102 400.38C247.717 400.922 247.416 401.596 247.199 402.403C246.982 403.198 246.874 404.131 246.874 405.203ZM272.799 411.382V396.351H275.997V415.899H272.962L272.799 411.382ZM273.395 407.263L274.66 407.227C274.66 408.527 274.546 409.732 274.317 410.84C274.1 411.936 273.739 412.887 273.233 413.694C272.739 414.501 272.082 415.134 271.263 415.591C270.444 416.037 269.439 416.26 268.246 416.26C267.439 416.26 266.705 416.121 266.042 415.844C265.392 415.567 264.826 415.14 264.344 414.562C263.874 413.984 263.507 413.231 263.242 412.303C262.989 411.376 262.863 410.262 262.863 408.961V396.351H266.042V408.997C266.042 409.876 266.121 410.605 266.277 411.183C266.434 411.749 266.645 412.201 266.909 412.538C267.174 412.863 267.47 413.092 267.795 413.225C268.12 413.357 268.451 413.423 268.788 413.423C269.921 413.423 270.824 413.152 271.498 412.61C272.173 412.056 272.655 411.316 272.944 410.388C273.245 409.449 273.395 408.407 273.395 407.263ZM284 399.422V415.899H280.803V396.351H283.892L284 399.422ZM288.86 396.242L288.878 399.35C288.613 399.29 288.372 399.253 288.156 399.241C287.951 399.217 287.71 399.205 287.433 399.205C286.831 399.205 286.301 399.326 285.843 399.567C285.397 399.807 285.012 400.145 284.687 400.578C284.362 401.012 284.103 401.53 283.91 402.132C283.717 402.722 283.585 403.373 283.513 404.083L282.681 404.625C282.681 403.445 282.772 402.337 282.952 401.301C283.145 400.265 283.44 399.35 283.838 398.555C284.235 397.748 284.741 397.122 285.355 396.676C285.982 396.218 286.728 395.989 287.596 395.989C287.788 395.989 288.023 396.019 288.3 396.08C288.589 396.128 288.776 396.182 288.86 396.242ZM304 388.149V415.899H300.82V388.149H304ZM308.39 407.064V405.203C308.39 403.686 308.583 402.355 308.968 401.211C309.353 400.054 309.889 399.091 310.576 398.32C311.263 397.549 312.063 396.971 312.979 396.586C313.894 396.188 314.876 395.989 315.924 395.989C316.996 395.989 317.989 396.188 318.905 396.586C319.82 396.971 320.621 397.549 321.307 398.32C322.006 399.091 322.548 400.054 322.933 401.211C323.319 402.355 323.512 403.686 323.512 405.203V407.064C323.512 408.582 323.319 409.919 322.933 411.075C322.548 412.219 322.012 413.177 321.326 413.947C320.639 414.718 319.838 415.296 318.923 415.682C318.007 416.067 317.02 416.26 315.96 416.26C314.9 416.26 313.912 416.067 312.997 415.682C312.082 415.296 311.275 414.718 310.576 413.947C309.889 413.177 309.353 412.219 308.968 411.075C308.583 409.919 308.39 408.582 308.39 407.064ZM311.588 405.203V407.064C311.588 408.136 311.696 409.075 311.913 409.882C312.13 410.689 312.437 411.364 312.834 411.906C313.232 412.448 313.695 412.857 314.225 413.134C314.755 413.399 315.333 413.532 315.96 413.532C316.682 413.532 317.315 413.399 317.857 413.134C318.411 412.857 318.868 412.448 319.23 411.906C319.591 411.364 319.862 410.689 320.043 409.882C320.223 409.075 320.314 408.136 320.314 407.064V405.203C320.314 404.131 320.205 403.198 319.989 402.403C319.772 401.596 319.465 400.922 319.067 400.38C318.67 399.825 318.2 399.416 317.658 399.151C317.128 398.874 316.55 398.735 315.924 398.735C315.309 398.735 314.737 398.874 314.207 399.151C313.677 399.416 313.214 399.825 312.816 400.38C312.431 400.922 312.13 401.596 311.913 402.403C311.696 403.198 311.588 404.131 311.588 405.203ZM334.406 413.532C335.044 413.532 335.622 413.405 336.14 413.152C336.67 412.887 337.103 412.478 337.441 411.924C337.778 411.358 337.971 410.623 338.019 409.72H341.018C340.97 411.021 340.638 412.165 340.024 413.152C339.422 414.128 338.627 414.893 337.639 415.447C336.664 415.989 335.586 416.26 334.406 416.26C333.141 416.26 332.039 416.055 331.099 415.646C330.172 415.236 329.401 414.646 328.787 413.875C328.185 413.092 327.733 412.147 327.432 411.039C327.131 409.919 326.98 408.648 326.98 407.227V405.023C326.98 403.601 327.131 402.337 327.432 401.229C327.733 400.109 328.185 399.163 328.787 398.392C329.401 397.609 330.172 397.013 331.099 396.604C332.039 396.194 333.141 395.989 334.406 395.989C335.73 395.989 336.875 396.272 337.838 396.839C338.814 397.393 339.573 398.2 340.115 399.259C340.669 400.307 340.97 401.578 341.018 403.071H338.019C337.971 402.108 337.796 401.307 337.495 400.669C337.194 400.018 336.784 399.536 336.266 399.223C335.749 398.898 335.128 398.735 334.406 398.735C333.562 398.735 332.864 398.886 332.31 399.187C331.768 399.476 331.34 399.898 331.027 400.452C330.714 401.006 330.491 401.668 330.359 402.439C330.238 403.21 330.178 404.071 330.178 405.023V407.227C330.178 408.178 330.238 409.045 330.359 409.828C330.491 410.599 330.708 411.262 331.009 411.816C331.322 412.37 331.756 412.797 332.31 413.098C332.864 413.387 333.562 413.532 334.406 413.532ZM354.297 412.556V401.951C354.297 401.18 354.176 400.56 353.935 400.09C353.707 399.621 353.357 399.277 352.888 399.061C352.43 398.844 351.852 398.735 351.153 398.735C350.479 398.735 349.895 398.874 349.401 399.151C348.919 399.428 348.546 399.795 348.281 400.253C348.028 400.711 347.901 401.217 347.901 401.771H344.703C344.703 401.072 344.854 400.38 345.155 399.693C345.468 399.006 345.914 398.386 346.492 397.832C347.07 397.266 347.763 396.82 348.57 396.495C349.389 396.158 350.304 395.989 351.316 395.989C352.52 395.989 353.586 396.188 354.513 396.586C355.441 396.971 356.17 397.603 356.7 398.483C357.229 399.362 357.494 400.53 357.494 401.987V411.635C357.494 412.285 357.543 412.978 357.639 413.713C357.747 414.447 357.898 415.08 358.091 415.609V415.899H354.784C354.628 415.513 354.507 415.001 354.423 414.363C354.339 413.713 354.297 413.11 354.297 412.556ZM354.803 404.047L354.839 406.396H352.617C351.858 406.396 351.165 406.48 350.539 406.649C349.925 406.817 349.395 407.064 348.949 407.389C348.503 407.702 348.16 408.094 347.919 408.564C347.69 409.033 347.576 409.569 347.576 410.172C347.576 410.954 347.684 411.581 347.901 412.05C348.118 412.508 348.443 412.839 348.877 413.044C349.31 413.249 349.858 413.351 350.521 413.351C351.328 413.351 352.038 413.165 352.653 412.791C353.267 412.418 353.743 411.966 354.08 411.436C354.429 410.906 354.592 410.412 354.568 409.955L355.272 411.454C355.224 411.924 355.068 412.436 354.803 412.99C354.55 413.532 354.194 414.056 353.737 414.562C353.279 415.055 352.737 415.465 352.111 415.79C351.496 416.103 350.804 416.26 350.033 416.26C348.901 416.26 347.907 416.043 347.052 415.609C346.209 415.176 345.553 414.538 345.083 413.694C344.613 412.851 344.378 411.81 344.378 410.569C344.378 409.63 344.541 408.762 344.866 407.967C345.191 407.172 345.673 406.486 346.311 405.908C346.95 405.318 347.751 404.86 348.714 404.535C349.69 404.21 350.816 404.047 352.093 404.047H354.803ZM369.599 396.351V398.916H360.475V396.351H369.599ZM363.456 391.599H366.654V411.057C366.654 411.719 366.732 412.219 366.889 412.556C367.058 412.894 367.268 413.116 367.521 413.225C367.774 413.333 368.045 413.387 368.334 413.387C368.551 413.387 368.792 413.363 369.057 413.315C369.322 413.255 369.503 413.207 369.599 413.171L369.581 415.899C369.364 415.983 369.075 416.061 368.714 416.133C368.352 416.218 367.895 416.26 367.341 416.26C366.654 416.26 366.016 416.097 365.426 415.772C364.835 415.447 364.36 414.905 363.998 414.146C363.637 413.375 363.456 412.339 363.456 411.039V391.599ZM376.844 396.351V415.899H373.664V396.351H376.844ZM373.483 391.166C373.483 390.624 373.634 390.166 373.935 389.793C374.236 389.419 374.688 389.233 375.29 389.233C375.892 389.233 376.344 389.419 376.645 389.793C376.958 390.166 377.115 390.624 377.115 391.166C377.115 391.684 376.958 392.129 376.645 392.503C376.344 392.864 375.892 393.045 375.29 393.045C374.688 393.045 374.236 392.864 373.935 392.503C373.634 392.129 373.483 391.684 373.483 391.166ZM381.234 407.064V405.203C381.234 403.686 381.426 402.355 381.812 401.211C382.197 400.054 382.733 399.091 383.42 398.32C384.106 397.549 384.907 396.971 385.823 396.586C386.738 396.188 387.72 395.989 388.767 395.989C389.839 395.989 390.833 396.188 391.748 396.586C392.664 396.971 393.465 397.549 394.151 398.32C394.85 399.091 395.392 400.054 395.777 401.211C396.163 402.355 396.355 403.686 396.355 405.203V407.064C396.355 408.582 396.163 409.919 395.777 411.075C395.392 412.219 394.856 413.177 394.169 413.947C393.483 414.718 392.682 415.296 391.766 415.682C390.851 416.067 389.863 416.26 388.804 416.26C387.744 416.26 386.756 416.067 385.841 415.682C384.925 415.296 384.118 414.718 383.42 413.947C382.733 413.177 382.197 412.219 381.812 411.075C381.426 409.919 381.234 408.582 381.234 407.064ZM384.431 405.203V407.064C384.431 408.136 384.54 409.075 384.757 409.882C384.973 410.689 385.281 411.364 385.678 411.906C386.076 412.448 386.539 412.857 387.069 413.134C387.599 413.399 388.177 413.532 388.804 413.532C389.526 413.532 390.159 413.399 390.701 413.134C391.255 412.857 391.712 412.448 392.074 411.906C392.435 411.364 392.706 410.689 392.887 409.882C393.067 409.075 393.158 408.136 393.158 407.064V405.203C393.158 404.131 393.049 403.198 392.832 402.403C392.616 401.596 392.308 400.922 391.911 400.38C391.513 399.825 391.044 399.416 390.502 399.151C389.972 398.874 389.394 398.735 388.767 398.735C388.153 398.735 387.581 398.874 387.051 399.151C386.521 399.416 386.057 399.825 385.66 400.38C385.275 400.922 384.973 401.596 384.757 402.403C384.54 403.198 384.431 404.131 384.431 405.203ZM403.672 400.524V415.899H400.474V396.351H403.492L403.672 400.524ZM402.895 405.384L401.595 405.33C401.582 403.993 401.733 402.758 402.046 401.626C402.371 400.482 402.829 399.488 403.419 398.645C404.021 397.802 404.738 397.152 405.569 396.694C406.4 396.224 407.322 395.989 408.333 395.989C409.128 395.989 409.851 396.122 410.501 396.387C411.152 396.64 411.706 397.049 412.163 397.615C412.621 398.181 412.97 398.916 413.211 399.819C413.464 400.711 413.591 401.801 413.591 403.089V415.899H410.393V403.053C410.393 402.03 410.278 401.211 410.05 400.596C409.833 399.97 409.496 399.518 409.038 399.241C408.592 398.952 408.026 398.808 407.34 398.808C406.713 398.808 406.129 398.982 405.587 399.332C405.045 399.681 404.569 400.163 404.16 400.777C403.763 401.391 403.449 402.096 403.221 402.891C403.004 403.674 402.895 404.505 402.895 405.384Z" fill="black"/>
<path d="M556.219 364.373L555.444 364.167C555.273 364.122 538.324 359.518 530.384 349.079C522.444 338.639 526.332 326.07 526.372 325.945L526.555 325.372L527.33 325.578C527.5 325.624 544.449 330.228 552.389 340.667C560.329 351.106 556.441 363.676 556.401 363.801L556.219 364.373ZM531.656 348.593C538.369 357.419 551.762 361.944 555.156 362.977C555.801 360.398 557.825 349.97 551.118 341.153C544.412 332.336 531.013 327.805 527.618 326.769C526.972 329.349 524.949 339.776 531.656 348.593Z" fill="#3F3D56"/>
<path d="M536.452 345.417C550.721 351.503 556.216 363.592 556.216 363.592C556.216 363.592 538.577 365.813 524.308 359.727C510.04 353.641 504.544 341.552 504.544 341.552C504.544 341.552 522.183 339.331 536.452 345.417Z" fill="#6C63FF"/>
<path d="M306.736 195.539C307.427 194.78 308.337 194.134 309.405 193.643C310.474 193.151 311.677 192.825 312.935 192.686C314.194 192.547 315.479 192.598 316.708 192.836C317.937 193.074 319.081 193.493 320.065 194.066C320.375 194.248 320.667 194.446 320.939 194.657L356.473 190.989L358.451 172.045C358.602 170.592 359.562 169.241 361.119 168.289C362.675 167.337 364.701 166.863 366.751 166.97C368.801 167.078 370.707 167.758 372.05 168.862C373.392 169.965 374.061 171.402 373.91 172.855C373.906 172.889 373.902 172.922 373.898 172.956L370.434 199.538L370.417 199.597C369.967 200.619 369.063 201.511 367.841 202.14C366.619 202.769 365.143 203.101 363.633 203.089L321.837 202.577C321.675 202.753 321.5 202.922 321.313 203.085C320.505 203.783 319.497 204.351 318.357 204.754C317.217 205.156 315.969 205.384 314.697 205.421C313.424 205.457 312.155 205.303 310.972 204.968C309.789 204.633 308.72 204.125 307.833 203.476C307.654 203.345 307.483 203.21 307.322 203.071C306.117 202.019 305.412 200.725 305.307 199.372C305.202 198.02 305.702 196.678 306.736 195.539Z" fill="#FFB7B7"/>
<path d="M378.376 357.06L368.241 357.059L363.42 329.345L378.378 329.346L378.376 357.06Z" fill="#FFB7B7"/>
<path d="M380.961 364.025L348.282 364.024V363.731C348.282 361.339 349.622 359.046 352.008 357.355C354.393 355.664 357.628 354.713 361.002 354.713H361.002L380.962 354.714L380.961 364.025Z" fill="#2F2E41"/>
<path d="M449.196 350.546L439.604 352.865L422.419 327.738L436.577 324.315L449.196 350.546Z" fill="#FFB7B7"/>
<path d="M454.814 356.546L423.884 364.025L423.751 363.747C422.662 361.484 422.886 359.006 424.373 356.86C425.861 354.713 428.49 353.074 431.683 352.302L431.684 352.301L450.574 347.734L454.814 356.546Z" fill="#2F2E41"/>
<path d="M389.536 114.737C389.536 114.737 379.449 112.375 372.964 121.822C366.48 131.27 356.392 141.662 356.392 141.662L362.156 142.606C362.156 142.606 363.597 135.993 367.2 135.049L365.759 143.551C365.759 143.551 408.991 153.471 428.445 142.606L427.725 139.3C427.725 139.3 430.607 139.772 430.607 142.606L432.768 141.189C432.768 141.189 430.607 138.355 424.122 134.576C419.866 132.096 418.403 127.377 417.9 124.427C417.502 121.929 415.991 119.586 413.587 117.738C409.278 114.464 401.425 110.984 389.536 114.737Z" fill="#2F2E41"/>
<path d="M393.255 147.744C403.43 147.744 411.679 141.896 411.679 134.682C411.679 127.468 403.43 121.62 393.255 121.62C383.08 121.62 374.831 127.468 374.831 134.682C374.831 141.896 383.08 147.744 393.255 147.744Z" fill="#FFB7B7"/>
<path d="M368.689 158.5L365.34 157.708C365.34 157.708 358.64 159.687 358.64 163.25C358.64 166.812 357.523 181.062 357.523 181.062L372.598 182.249L368.689 158.5Z" fill="#CBCBCB"/>
<path d="M428.645 236.357C427.256 235.253 426.472 233.832 426.435 232.353C426.399 230.874 427.112 229.434 428.446 228.297L419.042 172.462C418.95 171.146 419.599 169.857 420.845 168.879C422.092 167.901 423.835 167.313 425.692 167.245C427.549 167.178 429.369 167.635 430.751 168.517C432.133 169.399 432.964 170.634 433.064 171.95C433.065 171.968 433.066 171.986 433.067 172.005L441.48 227.898C441.785 228.116 442.066 228.349 442.321 228.596C442.996 229.258 443.48 230.007 443.746 230.802C444.013 231.596 444.056 232.419 443.873 233.226C443.69 234.032 443.286 234.804 442.682 235.499C442.078 236.195 441.287 236.799 440.354 237.277C440.257 237.326 440.159 237.375 440.06 237.421C438.979 237.928 437.754 238.259 436.472 238.391C435.19 238.522 433.882 238.451 432.644 238.182C431.097 237.849 429.712 237.217 428.645 236.357Z" fill="#FFB7B7"/>
<path d="M420.033 181.062L435.107 179.874C435.107 179.874 433.99 165.625 433.99 162.062C433.99 158.5 427.291 156.521 427.291 156.521L423.941 157.312L420.033 181.062Z" fill="#CBCBCB"/>
<path d="M370.923 200.832C370.923 200.832 358.081 217.477 358.081 237.663C358.081 257.85 356.965 350.471 356.965 350.471C356.965 350.471 373.714 356.013 383.764 349.284L392.696 246.767L427.87 347.305C427.87 347.305 444.619 349.68 452.435 345.722L437.361 275.662C437.361 275.662 431.22 209.956 414.47 205.206C397.721 200.457 370.923 200.832 370.923 200.832Z" fill="#2F2E41"/>
<path d="M373.346 134.765C379.868 131.419 385.148 127.564 388.64 122.979C388.64 122.979 400.61 132.408 407.925 132.879C415.239 133.351 408.59 121.565 408.59 121.565L395.29 119.208L382.656 120.15L372.681 124.865L373.346 134.765Z" fill="#2F2E41"/>
<path d="M411.679 154.146C411.679 154.146 412.211 153.944 380.415 154.765L367.108 157.363L365.339 157.708C365.339 157.708 367.014 181.457 371.481 185.811C375.947 190.165 374.831 192.54 373.714 192.936C372.597 193.332 369.806 192.54 371.481 194.519C373.156 196.498 375.389 195.311 373.156 196.498C370.922 197.686 369.806 202.04 369.806 202.04L418.937 206.79C418.937 206.79 420.612 191.353 425.078 183.436C429.545 175.52 430.661 172.354 430.661 172.354L427.311 156.521L411.679 154.146Z" fill="#CBCBCB"/>
<path d="M318.271 86.6305H315.445V31.7585C315.445 23.3356 310.726 15.2577 302.325 9.30186C293.924 3.34599 282.53 1.35773e-05 270.65 1.19412e-10L106.672 1.19415e-10C94.7912 -2.30812e-05 83.3972 3.34592 74.9963 9.30177C66.5955 15.2576 61.8759 23.3355 61.8759 31.7583V332.791C61.8758 341.214 66.5954 349.291 74.9962 355.247C83.397 361.203 94.791 364.549 106.672 364.549H270.649C276.532 364.549 282.357 363.728 287.792 362.132C293.227 360.536 298.165 358.196 302.325 355.247C306.485 352.298 309.784 348.797 312.035 344.944C314.287 341.091 315.445 336.961 315.445 332.791V125.689H318.271L318.271 86.6305Z" fill="#3F3D56"/>
<path d="M305.912 31.9815V332.571C305.916 335.683 305.055 338.765 303.379 341.641C301.703 344.517 299.244 347.131 296.143 349.333C293.042 351.536 289.36 353.283 285.306 354.477C281.252 355.67 276.907 356.286 272.517 356.289H107.692C98.8261 356.293 90.3204 353.8 84.0465 349.359C77.7726 344.917 74.2445 338.89 74.2382 332.604V31.9815C74.2351 28.869 75.0968 25.7866 76.774 22.9102C78.4511 20.0339 80.911 17.4199 84.0132 15.2175C87.1153 13.0151 90.7989 11.2674 94.8537 10.0743C98.9085 8.88121 103.255 8.266 107.645 8.2638H127.68C126.695 9.97468 126.32 11.8309 126.586 13.669C126.852 15.5071 127.751 17.2706 129.205 18.8041C130.659 20.3375 132.623 21.594 134.923 22.4627C137.223 23.3314 139.79 23.7857 142.396 23.7855H236.339C238.945 23.7857 241.512 23.3314 243.812 22.4627C246.112 21.594 248.076 20.3375 249.529 18.8041C250.983 17.2706 251.883 15.5071 252.149 13.669C252.415 11.8309 252.039 9.97468 251.055 8.2638H272.458C281.322 8.25817 289.827 10.7493 296.101 15.1893C302.375 19.6292 305.904 25.6543 305.912 31.939L305.912 31.9815Z" fill="white"/>
<path d="M305.912 76.4528V66.2143H284.054V9.72798C280.342 8.75598 276.415 8.26019 272.457 8.26381H269.612V66.2143H193.794V23.7856H179.352V66.2143H115.808V8.26387H107.692C105.57 8.26152 103.451 8.4038 101.367 8.68877V66.2143H74.2382V76.4528H101.367V100.135L74.2386 111.239V123.064L101.367 111.961V182.422H74.2382V192.661H101.367V294.535H74.2382V304.773H101.367V355.864C103.451 356.149 105.57 356.291 107.692 356.289H115.808V304.773H179.352V356.289H193.794V304.773H269.612V356.289H272.457C276.415 356.292 280.342 355.797 284.054 354.825V304.773H305.912V294.535H284.054V249.997H305.717V239.758H284.054V192.661H305.912V182.422H284.054V119.967H305.912V109.728H284.054V76.4529L305.912 76.4528ZM159.228 76.4528L115.809 94.2272L115.808 76.4528H159.228ZM115.808 106.048L179.352 80.0366V182.422H115.808V106.048ZM115.808 294.535V192.661H179.352V294.535H115.808ZM269.612 294.535H193.794V249.997H269.612V294.535ZM269.612 239.758H193.794V192.661H269.612V239.758ZM269.612 182.422H193.794V119.967H269.612V182.422ZM269.612 109.728H193.794V76.4528H269.612V109.728Z" fill="#98BACE"/>
<path d="M317.992 109.918C317.992 142.432 234.952 214.863 234.952 214.863C234.952 214.863 151.913 142.432 151.913 109.918C151.913 94.3039 160.662 79.3296 176.234 68.2889C191.807 57.2483 212.929 51.0458 234.952 51.0458C256.976 51.0458 278.097 57.2483 293.67 68.2889C309.243 79.3296 317.992 94.3039 317.992 109.918Z" fill="#6C63FF"/>
<path d="M284.055 107.358C284.055 114.243 281.175 120.973 275.78 126.698C270.385 132.423 262.716 136.885 253.744 139.519C244.772 142.154 234.899 142.843 225.374 141.5C215.849 140.157 207.1 136.842 200.233 131.973C193.366 127.105 188.69 120.902 186.795 114.149C184.9 107.397 185.873 100.397 189.589 94.0363C193.306 87.6754 199.599 82.2386 207.674 78.4135C215.749 74.5884 225.242 72.5468 234.953 72.5468C241.398 72.5447 247.781 73.4426 253.737 75.1893C259.693 76.9359 265.105 79.4972 269.664 82.7267C274.224 85.9563 277.841 89.7909 280.31 94.0116C282.78 98.2324 284.052 102.757 284.055 107.326V107.358Z" fill="white"/>
<path d="M234.782 121.1C244.885 121.1 253.075 115.293 253.075 108.131C253.075 100.968 244.885 95.162 234.782 95.162C224.68 95.162 216.49 100.968 216.49 108.131C216.49 115.293 224.68 121.1 234.782 121.1Z" fill="#6C63FF"/>
<path d="M261.331 137.751C253.445 141.306 244.294 143.194 234.949 143.193C225.604 143.192 216.453 141.303 208.568 137.746C210.208 133.682 213.67 130.108 218.43 127.563C223.191 125.019 228.991 123.643 234.952 123.644C240.914 123.644 246.713 125.021 251.473 127.567C256.232 130.112 259.693 133.687 261.331 137.751Z" fill="#6C63FF"/>
<path d="M234.952 257.353C247.315 257.353 257.337 250.248 257.337 241.483C257.337 232.719 247.315 225.614 234.952 225.614C222.59 225.614 212.568 232.719 212.568 241.483C212.568 250.248 222.59 257.353 234.952 257.353Z" fill="#6C63FF"/>
<path d="M581.278 364.858H0.722084C0.530576 364.858 0.346911 364.805 0.211494 364.709C0.0760765 364.613 0 364.482 0 364.347C0 364.211 0.0760765 364.081 0.211494 363.985C0.346911 363.889 0.530576 363.835 0.722084 363.835H581.278C581.469 363.835 581.653 363.889 581.788 363.985C581.924 364.081 582 364.211 582 364.347C582 364.482 581.924 364.613 581.788 364.709C581.653 364.805 581.469 364.858 581.278 364.858Z" fill="#CBCBCB"/>
</svg>
