<svg width="582" height="425" viewBox="0 0 582 480" fill="none" xmlns="http://www.w3.org/2000/svg">
    <path d="M166.305 444.695V471H162.981V444.695H166.305ZM178.789 451.452V454.018H169.666V451.452H178.789ZM172.646 446.701H175.844V466.158C175.844 466.821 175.923 467.32 176.079 467.658C176.248 467.995 176.458 468.218 176.711 468.326C176.964 468.435 177.235 468.489 177.524 468.489C177.741 468.489 177.982 468.465 178.247 468.417C178.512 468.356 178.693 468.308 178.789 468.272L178.771 471C178.554 471.084 178.265 471.163 177.904 471.235C177.542 471.319 177.085 471.361 176.531 471.361C175.844 471.361 175.206 471.199 174.616 470.874C174.026 470.548 173.55 470.006 173.188 469.248C172.827 468.477 172.646 467.441 172.646 466.14V446.701ZM192.086 465.996C192.086 465.502 191.965 465.068 191.725 464.695C191.484 464.321 191.086 463.96 190.532 463.611C189.99 463.262 189.256 462.888 188.328 462.491C187.425 462.117 186.612 461.75 185.889 461.389C185.179 461.015 184.576 460.612 184.083 460.178C183.589 459.745 183.209 459.245 182.944 458.679C182.691 458.101 182.565 457.42 182.565 456.637C182.565 455.854 182.709 455.132 182.999 454.469C183.3 453.795 183.721 453.205 184.263 452.699C184.805 452.193 185.456 451.801 186.214 451.524C186.973 451.235 187.822 451.091 188.762 451.091C190.099 451.091 191.237 451.35 192.176 451.868C193.116 452.386 193.832 453.096 194.326 454C194.832 454.891 195.085 455.896 195.085 457.017H191.905C191.905 456.475 191.785 455.963 191.544 455.481C191.303 454.999 190.948 454.608 190.478 454.307C190.008 453.993 189.436 453.837 188.762 453.837C188.051 453.837 187.473 453.963 187.027 454.216C186.582 454.469 186.257 454.8 186.052 455.21C185.859 455.607 185.763 456.047 185.763 456.529C185.763 456.89 185.811 457.203 185.907 457.468C186.016 457.721 186.196 457.962 186.449 458.191C186.702 458.408 187.045 458.637 187.479 458.877C187.925 459.106 188.491 459.371 189.177 459.672C190.502 460.19 191.616 460.714 192.52 461.244C193.423 461.774 194.109 462.394 194.579 463.105C195.049 463.816 195.284 464.695 195.284 465.743C195.284 466.598 195.127 467.375 194.814 468.073C194.513 468.76 194.079 469.35 193.513 469.844C192.947 470.338 192.267 470.717 191.472 470.982C190.689 471.235 189.81 471.361 188.834 471.361C187.365 471.361 186.118 471.072 185.094 470.494C184.083 469.904 183.312 469.139 182.782 468.2C182.264 467.248 182.005 466.23 182.005 465.146H185.203C185.239 466.062 185.444 466.772 185.817 467.278C186.202 467.784 186.666 468.133 187.208 468.326C187.75 468.519 188.292 468.615 188.834 468.615C189.545 468.615 190.141 468.513 190.623 468.308C191.104 468.091 191.466 467.784 191.707 467.387C191.959 466.989 192.086 466.526 192.086 465.996ZM215.103 451.452V454.018H205.979V451.452H215.103ZM208.96 446.701H212.158V466.158C212.158 466.821 212.236 467.32 212.393 467.658C212.561 467.995 212.772 468.218 213.025 468.326C213.278 468.435 213.549 468.489 213.838 468.489C214.055 468.489 214.296 468.465 214.561 468.417C214.826 468.356 215.006 468.308 215.103 468.272L215.084 471C214.868 471.084 214.579 471.163 214.217 471.235C213.856 471.319 213.398 471.361 212.844 471.361C212.158 471.361 211.519 471.199 210.929 470.874C210.339 470.548 209.863 470.006 209.502 469.248C209.141 468.477 208.96 467.441 208.96 466.14V446.701ZM222.112 443.25V471H218.915V443.25H222.112ZM221.335 460.485L220.035 460.431C220.023 459.094 220.173 457.86 220.486 456.728C220.812 455.583 221.269 454.59 221.859 453.747C222.462 452.903 223.178 452.253 224.009 451.795C224.84 451.326 225.762 451.091 226.773 451.091C227.568 451.091 228.291 451.223 228.941 451.488C229.592 451.741 230.146 452.151 230.604 452.717C231.061 453.283 231.41 454.018 231.651 454.921C231.904 455.812 232.031 456.902 232.031 458.191V471H228.833V458.155C228.833 457.131 228.719 456.312 228.49 455.698C228.273 455.071 227.936 454.62 227.478 454.343C227.032 454.054 226.466 453.909 225.78 453.909C225.153 453.909 224.569 454.084 224.027 454.433C223.485 454.782 223.01 455.264 222.6 455.878C222.203 456.493 221.889 457.197 221.661 457.992C221.444 458.775 221.335 459.606 221.335 460.485ZM246.375 467.658V457.053C246.375 456.282 246.255 455.662 246.014 455.192C245.785 454.722 245.436 454.379 244.966 454.162C244.509 453.945 243.931 453.837 243.232 453.837C242.557 453.837 241.973 453.975 241.479 454.252C240.998 454.529 240.624 454.897 240.359 455.354C240.106 455.812 239.98 456.318 239.98 456.872H236.782C236.782 456.174 236.933 455.481 237.234 454.794C237.547 454.108 237.993 453.488 238.571 452.934C239.149 452.368 239.841 451.922 240.648 451.597C241.467 451.259 242.383 451.091 243.395 451.091C244.599 451.091 245.665 451.29 246.592 451.687C247.52 452.072 248.248 452.705 248.778 453.584C249.308 454.463 249.573 455.632 249.573 457.089V466.736C249.573 467.387 249.621 468.079 249.718 468.814C249.826 469.549 249.977 470.181 250.169 470.711V471H246.863C246.707 470.615 246.586 470.103 246.502 469.464C246.418 468.814 246.375 468.212 246.375 467.658ZM246.881 459.148L246.917 461.497H244.695C243.937 461.497 243.244 461.581 242.618 461.75C242.003 461.919 241.473 462.166 241.028 462.491C240.582 462.804 240.239 463.195 239.998 463.665C239.769 464.135 239.655 464.671 239.655 465.273C239.655 466.056 239.763 466.682 239.98 467.152C240.197 467.61 240.522 467.941 240.956 468.146C241.389 468.35 241.937 468.453 242.6 468.453C243.407 468.453 244.117 468.266 244.731 467.893C245.346 467.519 245.821 467.068 246.159 466.538C246.508 466.008 246.671 465.514 246.646 465.056L247.351 466.556C247.303 467.025 247.146 467.537 246.881 468.091C246.628 468.633 246.273 469.157 245.815 469.663C245.358 470.157 244.816 470.566 244.189 470.892C243.575 471.205 242.883 471.361 242.112 471.361C240.98 471.361 239.986 471.145 239.131 470.711C238.288 470.277 237.631 469.639 237.162 468.796C236.692 467.953 236.457 466.911 236.457 465.67C236.457 464.731 236.62 463.864 236.945 463.069C237.27 462.274 237.752 461.587 238.39 461.009C239.028 460.419 239.829 459.961 240.793 459.636C241.769 459.311 242.895 459.148 244.171 459.148H246.881ZM261.678 451.452V454.018H252.554V451.452H261.678ZM255.535 446.701H258.733V466.158C258.733 466.821 258.811 467.32 258.968 467.658C259.136 467.995 259.347 468.218 259.6 468.326C259.853 468.435 260.124 468.489 260.413 468.489C260.63 468.489 260.871 468.465 261.136 468.417C261.401 468.356 261.581 468.308 261.678 468.272L261.66 471C261.443 471.084 261.154 471.163 260.792 471.235C260.431 471.319 259.973 471.361 259.419 471.361C258.733 471.361 258.095 471.199 257.504 470.874C256.914 470.548 256.438 470.006 256.077 469.248C255.716 468.477 255.535 467.441 255.535 466.14V446.701ZM283.466 465.996C283.466 465.502 283.345 465.068 283.104 464.695C282.864 464.321 282.466 463.96 281.912 463.611C281.37 463.262 280.635 462.888 279.708 462.491C278.805 462.117 277.992 461.75 277.269 461.389C276.558 461.015 275.956 460.612 275.462 460.178C274.969 459.745 274.589 459.245 274.324 458.679C274.071 458.101 273.945 457.42 273.945 456.637C273.945 455.854 274.089 455.132 274.378 454.469C274.68 453.795 275.101 453.205 275.643 452.699C276.185 452.193 276.835 451.801 277.594 451.524C278.353 451.235 279.202 451.091 280.142 451.091C281.479 451.091 282.617 451.35 283.556 451.868C284.496 452.386 285.212 453.096 285.706 454C286.212 454.891 286.465 455.896 286.465 457.017H283.285C283.285 456.475 283.165 455.963 282.924 455.481C282.683 454.999 282.328 454.608 281.858 454.307C281.388 453.993 280.816 453.837 280.142 453.837C279.431 453.837 278.853 453.963 278.407 454.216C277.962 454.469 277.636 454.8 277.432 455.21C277.239 455.607 277.143 456.047 277.143 456.529C277.143 456.89 277.191 457.203 277.287 457.468C277.396 457.721 277.576 457.962 277.829 458.191C278.082 458.408 278.425 458.637 278.859 458.877C279.305 459.106 279.871 459.371 280.557 459.672C281.882 460.19 282.996 460.714 283.899 461.244C284.803 461.774 285.489 462.394 285.959 463.105C286.429 463.816 286.664 464.695 286.664 465.743C286.664 466.598 286.507 467.375 286.194 468.073C285.893 468.76 285.459 469.35 284.893 469.844C284.327 470.338 283.646 470.717 282.852 470.982C282.069 471.235 281.189 471.361 280.214 471.361C278.744 471.361 277.498 471.072 276.474 470.494C275.462 469.904 274.692 469.139 274.162 468.2C273.644 467.248 273.385 466.23 273.385 465.146H276.583C276.619 466.062 276.823 466.772 277.197 467.278C277.582 467.784 278.046 468.133 278.588 468.326C279.13 468.519 279.672 468.615 280.214 468.615C280.924 468.615 281.521 468.513 282.002 468.308C282.484 468.091 282.846 467.784 283.086 467.387C283.339 466.989 283.466 466.526 283.466 465.996ZM294.288 451.452V471H291.108V451.452H294.288ZM290.927 446.267C290.927 445.725 291.078 445.267 291.379 444.894C291.68 444.521 292.132 444.334 292.734 444.334C293.336 444.334 293.788 444.521 294.089 444.894C294.402 445.267 294.559 445.725 294.559 446.267C294.559 446.785 294.402 447.231 294.089 447.604C293.788 447.965 293.336 448.146 292.734 448.146C292.132 448.146 291.68 447.965 291.379 447.604C291.078 447.231 290.927 446.785 290.927 446.267ZM302.544 455.336V471H299.364V451.452H302.363L302.544 455.336ZM301.894 460.485L300.412 460.431C300.4 459.094 300.533 457.86 300.81 456.728C301.087 455.583 301.502 454.59 302.056 453.747C302.622 452.903 303.327 452.253 304.17 451.795C305.025 451.326 306.019 451.091 307.151 451.091C307.898 451.091 308.59 451.223 309.229 451.488C309.879 451.741 310.445 452.145 310.927 452.699C311.409 453.253 311.782 453.963 312.047 454.831C312.324 455.698 312.462 456.746 312.462 457.974V471H309.265V458.137C309.265 457.113 309.126 456.294 308.849 455.68C308.584 455.065 308.205 454.62 307.711 454.343C307.217 454.054 306.627 453.909 305.94 453.909C305.158 453.909 304.501 454.084 303.971 454.433C303.453 454.782 303.038 455.264 302.725 455.878C302.424 456.493 302.207 457.197 302.074 457.992C301.954 458.775 301.894 459.606 301.894 460.485ZM312.426 458.643L310.294 459.329C310.282 458.257 310.415 457.227 310.692 456.24C310.969 455.252 311.378 454.373 311.92 453.602C312.474 452.831 313.161 452.223 313.98 451.777C314.799 451.32 315.75 451.091 316.834 451.091C317.726 451.091 318.515 451.229 319.201 451.506C319.888 451.783 320.466 452.211 320.936 452.789C321.417 453.355 321.779 454.084 322.02 454.975C322.26 455.866 322.381 456.926 322.381 458.155V471H319.183V458.119C319.183 457.023 319.045 456.174 318.768 455.571C318.503 454.957 318.123 454.529 317.629 454.289C317.136 454.036 316.545 453.909 315.859 453.909C315.305 453.909 314.811 454.036 314.377 454.289C313.956 454.542 313.601 454.891 313.312 455.336C313.022 455.77 312.8 456.27 312.643 456.836C312.499 457.402 312.426 458.004 312.426 458.643ZM330.402 455.21V478.516H327.205V451.452H330.113L330.402 455.21ZM341.333 460.341V462.166C341.333 463.707 341.188 465.056 340.899 466.212C340.622 467.357 340.206 468.314 339.652 469.085C339.11 469.844 338.442 470.416 337.647 470.801C336.852 471.175 335.943 471.361 334.919 471.361C333.895 471.361 333.004 471.169 332.245 470.783C331.498 470.386 330.866 469.814 330.348 469.067C329.842 468.32 329.439 467.423 329.138 466.375C328.849 465.315 328.65 464.129 328.542 462.816V460.034C328.65 458.649 328.849 457.408 329.138 456.312C329.427 455.204 329.824 454.264 330.33 453.494C330.848 452.711 331.48 452.115 332.227 451.705C332.986 451.296 333.871 451.091 334.883 451.091C335.931 451.091 336.852 451.271 337.647 451.633C338.454 451.994 339.128 452.554 339.67 453.313C340.224 454.06 340.64 455.017 340.917 456.186C341.194 457.342 341.333 458.727 341.333 460.341ZM338.135 462.166V460.341C338.135 459.257 338.05 458.311 337.882 457.504C337.725 456.697 337.472 456.029 337.123 455.499C336.774 454.969 336.334 454.572 335.804 454.307C335.274 454.042 334.636 453.909 333.889 453.909C333.251 453.909 332.685 454.042 332.191 454.307C331.709 454.572 331.294 454.933 330.944 455.391C330.595 455.836 330.306 456.348 330.077 456.926C329.848 457.492 329.68 458.083 329.571 458.697V464.171C329.776 464.942 330.047 465.67 330.384 466.357C330.722 467.031 331.173 467.579 331.739 468.001C332.317 468.423 333.046 468.633 333.925 468.633C334.66 468.633 335.292 468.501 335.822 468.236C336.352 467.971 336.786 467.573 337.123 467.043C337.472 466.501 337.725 465.827 337.882 465.02C338.05 464.201 338.135 463.25 338.135 462.166ZM348.884 443.25V471H345.705V443.25H348.884ZM360.935 471.361C359.766 471.361 358.712 471.187 357.773 470.837C356.833 470.488 356.033 469.958 355.37 469.248C354.708 468.525 354.202 467.616 353.853 466.52C353.503 465.424 353.329 464.129 353.329 462.635V460.431C353.329 458.709 353.527 457.251 353.925 456.059C354.334 454.867 354.882 453.909 355.569 453.187C356.255 452.452 357.032 451.922 357.899 451.597C358.767 451.259 359.658 451.091 360.573 451.091C361.802 451.091 362.85 451.29 363.717 451.687C364.584 452.084 365.289 452.675 365.831 453.458C366.373 454.24 366.77 455.204 367.023 456.348C367.288 457.492 367.42 458.811 367.42 460.305V462.166H355.208V459.438H364.223V458.986C364.174 457.974 364.036 457.083 363.807 456.312C363.59 455.541 363.229 454.939 362.723 454.505C362.217 454.06 361.501 453.837 360.573 453.837C359.983 453.837 359.435 453.939 358.929 454.144C358.435 454.337 358.008 454.68 357.646 455.174C357.297 455.656 357.02 456.324 356.815 457.179C356.623 458.034 356.526 459.118 356.526 460.431V462.635C356.526 463.683 356.623 464.586 356.815 465.345C357.02 466.092 357.315 466.712 357.701 467.206C358.098 467.688 358.58 468.049 359.146 468.29C359.724 468.519 360.381 468.633 361.115 468.633C362.187 468.633 363.072 468.429 363.771 468.019C364.47 467.597 365.078 467.062 365.596 466.411L367.276 468.417C366.927 468.91 366.469 469.386 365.903 469.844C365.349 470.289 364.662 470.657 363.843 470.946C363.036 471.223 362.067 471.361 360.935 471.361Z" fill="black"/>
    <path d="M378.003 410.514L367.281 412.282L352.769 383.146L368.594 380.537L378.003 410.514Z" fill="#FFB6B6"/>
    <path d="M380.926 418.559L347.955 423.997L347.86 423.695C347.086 421.228 347.695 418.639 349.554 416.497C351.413 414.356 354.369 412.837 357.773 412.276L362.756 407.97L375.033 409.429L377.911 408.954L380.926 418.559Z" fill="#2F2E41"/>
    <path d="M550.965 268.497L556.858 275.225L523.86 294.909L515.16 284.978L550.965 268.497Z" fill="#FFB6B6"/>
    <path d="M560.44 263.802L578.567 284.493L578.206 284.659C575.26 286.015 571.691 286.468 568.284 285.917C564.877 285.366 561.912 283.856 560.04 281.721L552.773 279.762L550.551 270.889L548.968 269.083L560.44 263.802Z" fill="#2F2E41"/>
    <path d="M209.189 196.563L206.541 185.437L246.801 172.259L255.496 161.101C255.215 160.122 255.313 159.105 255.779 158.164C256.245 157.223 257.061 156.393 258.137 155.767C259.213 155.141 260.506 154.742 261.875 154.615C263.243 154.489 264.633 154.638 265.892 155.048C267.15 155.458 268.228 156.112 269.006 156.938C269.784 157.764 270.231 158.73 270.299 159.729C270.367 160.728 270.053 161.721 269.392 162.598C268.73 163.476 267.746 164.204 266.55 164.702L252.247 180.73L209.189 196.563Z" fill="#A0616A"/>
    <path d="M196.95 187.468L215.081 180.755L219.88 193.817L207.287 200.584L196.95 187.468Z" fill="#6C63FF"/>
    <path d="M156.267 409.502L167.229 409.502L172.444 378.852L156.264 378.853L156.267 409.502Z" fill="#A0616A"/>
    <path d="M170.877 410.218V404.831L167.995 404.958L156.263 405.462L153.548 405.583L151.472 423.624L151.361 424.592H159.145L159.395 423.631L160.526 419.265L163.445 423.631L164.084 424.592H184.721C185.949 424.586 187.124 424.229 187.992 423.599C188.859 422.969 189.349 422.117 189.354 421.226C190.225 418.278 173.064 411.903 170.877 410.218Z" fill="#2F2E41"/>
    <path d="M26.1387 287.867L23.5833 295.595L63.486 306.417L67.2572 295.012L26.1387 287.867Z" fill="#A0616A"/>
    <path d="M22.6402 297.999L29.8672 299.255L30.368 297.194L32.4274 288.807L32.8983 286.865L9.17821 281.196L7.9065 280.892L6.09159 286.378L7.32185 286.779L12.9155 288.594L6.37767 289.633L4.93998 289.86L0.128336 304.406C-0.150431 305.273 0.0538495 306.185 0.696859 306.943C1.33987 307.701 2.36966 308.245 3.56262 308.456C7.31545 309.758 19.8685 299.147 22.6402 297.999Z" fill="#2F2E41"/>
    <path d="M173.217 211.141L159.106 206.36L130.967 231.043L113.827 234.185C112.598 233.731 111.22 233.532 109.844 233.61C108.469 233.688 107.15 234.04 106.033 234.628C104.916 235.215 104.045 236.015 103.516 236.938C102.987 237.862 102.821 238.873 103.035 239.861C103.249 240.849 103.836 241.775 104.73 242.536C105.625 243.298 106.793 243.865 108.104 244.176C109.415 244.486 110.82 244.528 112.162 244.297C113.504 244.065 114.732 243.569 115.71 242.863L140.808 237.082L173.217 211.141Z" fill="#A0616A"/>
    <path d="M132.033 104.671C129.042 104.671 126.118 104.028 123.631 102.823C121.145 101.619 119.206 99.907 118.062 97.904C116.917 95.901 116.618 93.697 117.201 91.5707C117.785 89.4443 119.225 87.4912 121.34 85.9582C123.455 84.4251 126.149 83.3811 129.083 82.9582C132.016 82.5352 135.057 82.7523 137.82 83.582C140.584 84.4116 142.945 85.8166 144.607 87.6192C146.269 89.4219 147.156 91.5412 147.156 93.7092C147.151 96.6154 145.557 99.4017 142.722 101.457C139.886 103.512 136.043 104.668 132.033 104.671ZM132.033 84.0055C129.385 84.0055 126.797 84.5746 124.596 85.6409C122.394 86.7071 120.678 88.2227 119.665 89.9958C118.652 91.7689 118.387 93.72 118.903 95.6023C119.42 97.4846 120.695 99.2137 122.567 100.571C124.439 101.928 126.825 102.852 129.421 103.226C132.018 103.601 134.71 103.409 137.156 102.674C139.602 101.94 141.693 100.696 143.164 99.1003C144.635 97.5045 145.42 95.6284 145.42 93.7092C145.416 91.1365 144.005 88.67 141.495 86.8509C138.985 85.0317 135.582 84.0084 132.033 84.0055Z" fill="#E6E6E6"/>
    <path d="M130.966 97.8387C130.936 97.8387 130.905 97.838 130.875 97.8369C130.606 97.8275 130.344 97.7762 130.105 97.6863C129.867 97.5965 129.658 97.4703 129.493 97.3165L127.111 95.0965C126.96 94.9564 126.849 94.7962 126.784 94.625C126.719 94.4538 126.702 94.275 126.732 94.0988C126.762 93.9226 126.84 93.7525 126.961 93.5982C127.082 93.4438 127.244 93.3083 127.438 93.1993L127.523 93.1509C127.717 93.0418 127.938 92.9614 128.174 92.9143C128.41 92.8671 128.657 92.8542 128.9 92.8762C129.143 92.8983 129.378 92.9548 129.591 93.0426C129.804 93.1304 129.991 93.2478 130.141 93.3881C130.262 93.5 130.414 93.5919 130.588 93.6573C130.761 93.7227 130.953 93.7601 131.148 93.767C131.344 93.7739 131.539 93.7501 131.721 93.6973C131.903 93.6444 132.067 93.5637 132.201 93.4608L137.038 89.7594C137.379 89.4995 137.848 89.348 138.342 89.3383C138.836 89.3285 139.316 89.4613 139.675 89.7075L139.754 89.7623C139.932 89.8843 140.075 90.0306 140.175 90.1928C140.275 90.3549 140.33 90.5297 140.336 90.7072C140.343 90.8847 140.301 91.0614 140.214 91.2272C140.126 91.393 139.994 91.5446 139.826 91.6735L132.319 97.4165C132.145 97.5499 131.935 97.6561 131.703 97.7287C131.47 97.8013 131.219 97.8387 130.966 97.8387Z" fill="#E6E6E6"/>
    <path opacity="0.3" d="M303.759 114.982L358.073 0L298.433 113.606C298.138 113.876 297.936 114.192 297.844 114.53C297.751 114.868 297.771 115.216 297.902 115.547C298.033 115.878 298.27 116.181 298.595 116.432C298.92 116.683 299.323 116.874 299.77 116.99C300.217 117.106 300.696 117.142 301.167 117.097C301.637 117.051 302.086 116.925 302.476 116.729C302.866 116.533 303.186 116.272 303.409 115.968C303.632 115.665 303.752 115.327 303.759 114.982Z" fill="#F0F0F0"/>
    <path d="M158.991 250.901C158.991 250.901 135.839 261.828 141.961 269.089C142.172 269.34 114.307 296.017 114.307 296.017L61.7029 293.596L59.8496 306.358L106.681 316.19C106.681 316.19 118.138 322.291 126.989 315.569C135.839 308.846 165.32 288.261 165.32 288.261L166.742 329.822L151.943 387.413L174.04 386.397L195.547 328.619L203.486 263.172L158.991 250.901Z" fill="#2F2E41"/>
    <path d="M175.482 185.318L165.746 190.666L154.649 207.833L165.32 218.338C165.32 218.338 174.296 229.613 159.929 240.533C145.562 251.452 134.529 263.115 146.029 262.698C157.528 262.282 204.102 279.453 204.408 265.385C204.715 251.318 205.335 240.533 205.335 240.533L217.546 218.084C217.546 218.084 224.82 204.692 219.713 200.683C214.605 196.675 207.767 191.552 207.767 191.552L195.33 182.538H184.101L175.482 185.318Z" fill="#6C63FF"/>
    <path d="M193.656 152.334C215.497 161.343 197.567 185.112 175.318 176.648C153.478 167.64 171.408 143.87 193.656 152.334Z" fill="#A0616A"/>
    <path d="M205.335 157.329C203.805 158.772 200.607 158.095 194.346 159.125C194.36 157.586 194.114 156.052 193.616 154.557C193.15 156.409 192.129 158.163 190.625 159.698C185.188 160.135 191.853 172.107 189.069 180.91C185.482 162.339 177.938 167.204 181.75 170.888C184.189 173.246 182.563 180.32 175.243 176.783C163.166 180.943 145.965 160.277 165.029 150.584C164.688 145.345 172.731 144.517 177.683 146.128C189.702 139.638 203.433 147.954 205.335 157.329Z" fill="#2F2E41"/>
    <path d="M149.295 143.778C144.433 165.449 118.369 139.793 106.114 161.119C102.261 168.843 108.872 174.367 113.054 180.778C114.008 186.046 104.553 188.719 103.562 193.569C103.287 204.687 128.032 204.006 134.95 196.992C142.058 189.649 133.57 179.797 137.843 171.916C143.848 160.973 168.269 160.892 170.396 148.161C166.276 143.908 155.197 139.037 149.295 143.778Z" fill="#2F2E41"/>
    <path d="M168.994 145.896C168.835 145.945 168.676 145.993 168.533 146.048H168.525C168.391 146.096 168.257 146.145 168.123 146.199C168.106 146.205 168.098 146.212 168.081 146.218C167.905 146.096 167.73 145.975 167.545 145.853C167.498 146.051 167.509 146.254 167.579 146.448L167.604 146.521C167.772 146.649 167.947 146.77 168.132 146.897C168.299 146.806 168.458 146.709 168.625 146.618C168.726 146.557 168.826 146.497 168.935 146.436C168.952 146.278 168.977 146.096 169.002 145.896L168.994 145.896ZM174.034 139.147C170.3 138.528 169.094 142.067 168.734 143.772C167.378 137.582 161.735 139.53 163.686 143.754C164.307 145.004 165.286 146.146 166.557 147.104C166.733 147.249 166.926 147.395 167.127 147.541C166.901 148.39 168.039 148.172 169.58 147.389C170.717 146.803 171.77 146.133 172.72 145.392C175.792 143.056 178.187 139.93 174.034 139.147ZM174.151 142.631C172.999 143.708 171.707 144.702 170.292 145.599C169.848 145.89 169.396 146.169 168.935 146.436C168.927 146.491 168.927 146.539 168.919 146.582C168.886 146.641 168.847 146.698 168.801 146.752C168.332 147.365 167.805 147.031 167.604 146.521C167.587 146.503 167.562 146.485 167.545 146.466C166.876 145.965 166.294 145.407 165.812 144.804C162.354 140.458 167.922 137.503 167.646 145.617C167.595 145.691 167.561 145.771 167.545 145.853C167.498 146.051 167.509 146.254 167.579 146.448L167.604 146.521C167.772 146.649 167.947 146.77 168.132 146.897C168.299 146.806 168.458 146.709 168.625 146.618C168.726 146.557 168.826 146.497 168.935 146.436C168.952 146.278 168.977 146.096 169.002 145.896V145.89C169.22 144.263 169.814 141.338 170.911 140.543C173.323 139.202 176.445 140.652 174.151 142.631ZM168.994 145.896C168.835 145.945 168.676 145.993 168.533 146.048H168.525C168.391 146.096 168.257 146.145 168.123 146.199C168.106 146.205 168.098 146.212 168.081 146.218C167.905 146.096 167.73 145.975 167.545 145.853C167.498 146.051 167.509 146.254 167.579 146.448L167.604 146.521C167.772 146.649 167.947 146.77 168.132 146.897C168.299 146.806 168.458 146.709 168.625 146.618C168.726 146.557 168.826 146.497 168.935 146.436C168.952 146.278 168.977 146.096 169.002 145.896L168.994 145.896Z" fill="#2F2E41"/>
    <path d="M370.866 265.376L362.8 280.625L324.959 334.729L358.209 397.669L375.37 394.385L361.226 334.729L401.804 298.991L449.995 322.682C449.995 322.682 471.367 334.776 479.498 323.311C487.629 311.846 540.239 287.46 540.239 287.46L527.223 277.396L466.639 297.947L424.824 255.285L370.866 265.376Z" fill="#2F2E41"/>
    <path d="M411.569 193.45L398.29 183.109L375.512 180.838L347.602 195L347.883 210.676L361.68 247.615C361.68 247.615 356.425 274.154 371.104 273.888C385.783 273.622 393.783 268.317 399.762 269.397C405.74 270.477 431.154 275.073 432.765 270.259C434.376 265.445 442.937 268.892 442.561 264.338C442.185 259.785 419.385 226.96 419.385 226.96L425.054 194.133L411.569 193.45Z" fill="#6C63FF"/>
    <path d="M495.644 145.849C495.763 146.706 495.621 147.572 495.228 148.386C494.835 149.199 494.201 149.94 493.37 150.557C492.54 151.174 491.532 151.651 490.42 151.955C489.307 152.259 488.116 152.382 486.93 152.316L456.394 194.411L448.196 185.289L479.408 145.56C479.692 144.124 480.694 142.813 482.223 141.876C483.752 140.939 485.702 140.441 487.703 140.477C489.704 140.513 491.618 141.079 493.082 142.069C494.545 143.059 495.457 144.404 495.644 145.849Z" fill="#FFB6B6"/>
    <path d="M399.513 201.277C399.513 201.277 398.302 208.765 409.931 210.618C421.561 212.472 453.78 199.128 459.062 197.089C460.716 196.451 462.961 193.323 465.263 189.326C466.297 187.532 467.343 185.563 468.352 183.566C468.936 182.41 471.733 182.095 472.283 180.948C472.83 179.808 471.132 177.838 471.627 176.763C473.98 171.664 475.647 167.618 475.647 167.618L467.939 157.123C457.159 161.254 451.63 170.353 447.564 180.836L399.513 201.277Z" fill="#6C63FF"/>
    <path d="M263.695 155.515C263.876 156.367 264.313 157.18 264.974 157.896C265.635 158.613 266.505 159.215 267.523 159.661C268.54 160.108 269.68 160.387 270.862 160.479C272.044 160.572 273.24 160.475 274.365 160.196L318.463 195.413L323.251 185.094L279.316 152.291C278.544 150.952 277.122 149.864 275.318 149.235C273.515 148.605 271.455 148.477 269.53 148.874C267.604 149.272 265.947 150.167 264.872 151.391C263.796 152.615 263.378 154.083 263.695 155.515Z" fill="#FFB6B6"/>
    <path d="M375.905 191.742C375.905 191.742 379.662 198.772 369.043 202.676C358.424 206.58 322.622 199.505 316.805 198.49C314.983 198.172 311.73 195.55 308.121 192.099C306.5 190.549 304.808 188.833 303.141 187.082C302.177 186.069 299.36 186.271 298.432 185.261C297.508 184.256 298.472 182.04 297.622 181.09C293.583 176.579 290.572 172.965 290.572 172.965L294.412 161.406C306.275 163.45 314.769 171.256 322.326 180.668L375.905 191.742Z" fill="#6C63FF"/>
    <path d="M387.355 178.207C399.325 178.207 409.028 171.174 409.028 162.498C409.028 153.822 399.325 146.788 387.355 146.788C375.386 146.788 365.683 153.822 365.683 162.498C365.683 171.174 375.386 178.207 387.355 178.207Z" fill="#FFB6B6"/>
    <path d="M412.095 153.503C409.815 150.946 405.537 149.242 401.39 149.721C401.004 147.803 399.899 145.998 398.196 144.503C396.493 143.008 394.256 141.88 391.73 141.243C389.204 140.606 386.485 140.483 383.869 140.888C381.254 141.293 378.842 142.211 376.895 143.541C376.255 143.214 375.51 143.013 374.731 142.956C373.952 142.9 373.167 142.99 372.45 143.218C371.022 143.689 369.781 144.411 368.838 145.319C366.458 147.471 364.928 150.049 364.41 152.781C363.891 155.513 364.404 158.295 365.895 160.832C365.388 159.496 367.234 158.24 369.1 157.94C370.966 157.64 372.923 157.924 374.815 157.729C377.24 157.479 379.42 156.459 381.848 156.23C383.908 156.132 385.974 156.325 387.933 156.796C389.891 157.268 391.954 157.468 394.015 157.388C396.059 157.212 398.692 162.828 398.657 166.783C398.65 167.532 398.863 168.494 399.873 168.653C401.118 168.849 401.839 167.604 403.024 167.265C403.569 167.152 404.155 167.196 404.656 167.39C405.157 167.583 405.536 167.91 405.711 168.301C405.861 168.699 405.877 169.117 405.758 169.521C405.639 169.924 405.389 170.301 405.029 170.62C404.301 171.253 403.437 171.796 402.47 172.229L402.957 172.524C403.421 172.878 404.039 173.105 404.708 173.165C405.376 173.226 406.053 173.115 406.622 172.854C407.74 172.305 408.646 171.557 409.253 170.682C411.539 168.12 413.173 165.281 414.078 162.301C414.842 159.307 414.374 156.059 412.095 153.503Z" fill="#2F2E41"/>
    <path d="M454.238 423.927C453.572 425.357 73.4405 425.357 72.7222 423.931C73.3871 422.498 453.518 422.498 454.238 423.927Z" fill="#CCCCCC"/>
</svg>
