<svg width="582" height="425" viewBox="0 0 582 425" fill="none" xmlns="http://www.w3.org/2000/svg">
<g clip-path="url(#clip0_40_5)">
<path d="M559.25 243.597C555.048 247.932 549.836 251.16 544.18 253.666H544.174C543.642 253.905 543.109 254.136 542.57 254.356H542.564L542.557 254.362L542.55 254.356H542.543L542.543 254.358L542.541 254.36L542.539 254.362L542.536 254.362H542.529L542.523 254.356C542.516 254.362 542.516 254.362 542.509 254.356L542.502 254.362L542.495 254.356H542.489C542.482 254.362 542.482 254.362 542.475 254.356H542.468C538.683 255.902 534.795 257.215 530.83 258.285C507.512 264.533 483.003 265.742 459.123 261.822C458.666 261.745 458.216 261.668 457.759 261.59V209.335C458.209 209.155 458.666 208.975 459.123 208.801C462.105 207.635 465.122 206.563 468.176 205.586C472.569 204.169 477.024 202.953 481.54 201.94C496.274 198.572 511.477 197.411 526.593 198.499C529.343 198.692 532.085 198.972 534.82 199.337C540.544 200.091 546.548 201.405 551.828 203.685H551.835C552.606 204.027 553.363 204.381 554.113 204.761C558.807 207.164 562.764 210.469 565.179 214.998C566.046 216.625 566.671 218.357 567.034 220.146V220.159C567.171 220.777 567.266 221.402 567.341 222.021C568.201 229.649 564.851 237.811 559.25 243.597Z" fill="#7CF771"/>
<path d="M567.341 222.021C567.274 222.036 567.206 222.045 567.137 222.046C555.451 222.53 543.78 223.247 532.126 224.198H532.105C532.058 224.205 532.017 224.205 531.969 224.211C520.003 225.19 508.062 226.417 496.146 227.89C495.642 227.954 495.143 228.019 494.645 228.077C486.405 229.114 478.18 230.265 469.97 231.53C466.348 232.09 462.732 232.674 459.123 233.282C458.666 233.359 458.216 233.43 457.759 233.514V231.562C458.216 231.478 458.673 231.407 459.123 231.33C471.144 229.32 483.205 227.566 495.307 226.067C498.35 225.68 501.397 225.315 504.449 224.971C513.263 223.966 522.09 223.099 530.932 222.369C531.58 222.317 532.221 222.265 532.869 222.214C544.187 221.306 555.521 220.616 566.87 220.146C566.925 220.144 566.98 220.148 567.034 220.159C568.126 220.249 568.358 221.795 567.341 222.021Z" fill="white"/>
<path d="M543.073 252.457C528.514 252.558 514.172 246.729 503.875 237.079C500.969 234.346 498.409 231.304 496.245 228.015C495.551 226.963 493.927 228.123 494.615 229.165C502.612 241.277 515.933 249.905 530.62 253.078C534.791 253.97 539.058 254.401 543.334 254.362C544.64 254.353 544.369 252.448 543.073 252.457Z" fill="white"/>
<path d="M481.54 201.939C481.478 202.121 481.366 202.283 481.217 202.411C481.067 202.539 480.885 202.627 480.688 202.667C477.351 203.493 474.128 204.682 471.082 206.211C466.635 208.429 462.596 211.312 459.123 214.747C458.939 214.921 458.762 215.095 458.591 215.275C458.304 215.559 458.032 215.849 457.759 216.145V213.336C458.195 212.898 458.653 212.466 459.123 212.054C461.866 209.574 464.904 207.404 468.176 205.586C472.569 204.169 477.024 202.953 481.54 201.939Z" fill="white"/>
<path d="M553.035 203.178C543.774 206.936 536.025 213.388 530.916 221.594C530.813 221.829 530.812 222.092 530.913 222.328C531.014 222.564 531.21 222.752 531.457 222.853C531.706 222.945 531.984 222.944 532.232 222.849C532.48 222.754 532.68 222.572 532.79 222.342C537.666 214.592 545.023 208.504 553.799 204.958C555.004 204.472 554.241 202.691 553.035 203.178Z" fill="white"/>
<path d="M580.951 148.46C579.368 154.143 576.333 159.29 572.56 163.987L572.553 163.993C572.205 164.431 571.844 164.876 571.469 165.301V165.308C568.849 168.355 566.021 171.237 563.002 173.934C552.151 183.7 539.893 191.97 526.593 198.499C505.67 208.82 482.284 214.921 459.123 215.269C458.946 215.275 458.768 215.275 458.591 215.275C458.311 215.282 458.032 215.282 457.759 215.282V186.001C458.202 185.202 458.659 184.403 459.123 183.611C465.142 173.383 472.482 163.9 480.974 155.38C481.179 155.167 481.39 154.955 481.602 154.748C484.794 151.566 488.142 148.536 491.644 145.658C505.116 134.471 520.686 125.764 537.549 119.985C542.987 118.142 548.949 116.667 554.748 116.377C555.6 116.332 556.447 116.313 557.299 116.319C562.641 116.39 567.764 117.582 572.137 120.532C573.703 121.594 575.108 122.854 576.312 124.275C576.735 124.771 577.124 125.28 577.499 125.802V125.809C582.015 132.187 583.066 140.878 580.951 148.46Z" fill="#7CF771"/>
<path d="M577.499 125.802V125.809C577.449 125.85 577.394 125.887 577.336 125.918C567.239 131.465 557.269 137.214 547.428 143.165C547.414 143.171 547.407 143.178 547.394 143.184C547.354 143.21 547.313 143.234 547.271 143.255C537.154 149.375 527.18 155.702 517.349 162.235C516.94 162.505 516.524 162.782 516.108 163.059C509.32 167.588 502.602 172.214 495.956 176.936C483.403 185.866 471.125 195.126 459.123 204.716C458.666 205.077 458.216 205.444 457.759 205.811V203.305C458.209 202.938 458.666 202.571 459.123 202.21C463.721 198.544 468.36 194.93 473.04 191.367C474.439 190.304 475.844 189.241 477.249 188.191C489.734 178.805 502.498 169.768 515.542 161.081H515.548C518.114 159.374 520.683 157.682 523.257 156.005C530.57 151.25 537.966 146.609 545.443 142.082C545.981 141.754 546.527 141.425 547.073 141.097C556.644 135.324 566.341 129.741 576.162 124.346C576.21 124.319 576.26 124.295 576.312 124.275C577.336 123.889 578.297 125.164 577.499 125.802Z" fill="white"/>
<path d="M570.983 163.403C558.14 169.879 542.572 171.008 528.706 166.98C524.789 165.834 521.026 164.264 517.491 162.3C516.359 161.673 515.492 163.412 516.614 164.033C529.653 171.251 545.694 173.048 560.261 169.415C564.394 168.376 568.384 166.886 572.152 164.975C573.303 164.395 572.127 162.826 570.983 163.403Z" fill="white"/>
<path d="M474.897 186.975C474.261 183.602 474.043 180.171 474.247 176.751C474.706 168.951 477.235 161.385 481.601 154.749C484.798 151.568 488.146 148.537 491.646 145.658C491.679 145.846 491.659 146.039 491.589 146.218C491.519 146.397 491.401 146.556 491.246 146.679C488.699 148.874 486.43 151.34 484.484 154.028C477.533 163.608 474.82 175.373 476.924 186.815C476.958 186.945 476.956 187.081 476.919 187.21C476.881 187.339 476.809 187.456 476.71 187.552C476.564 187.672 476.387 187.753 476.197 187.789C476.008 187.825 475.811 187.813 475.628 187.754C475.445 187.696 475.281 187.593 475.152 187.456C475.024 187.32 474.936 187.154 474.897 186.975Z" fill="white"/>
<path d="M555.565 115.393C549.213 122.784 545.524 131.896 545.036 141.404C545.06 141.657 545.189 141.892 545.395 142.056C545.6 142.22 545.866 142.301 546.134 142.282C546.401 142.255 546.646 142.132 546.819 141.939C546.992 141.746 547.08 141.497 547.064 141.245C547.57 132.242 551.09 123.624 557.118 116.634C557.945 115.675 556.394 114.432 555.565 115.393Z" fill="white"/>
<path d="M484.917 136.561V136.568C484.87 137.122 484.815 137.669 484.753 138.217V138.23C484.279 142.128 483.539 145.993 482.536 149.801C482.059 151.669 481.54 153.524 480.974 155.38C480.906 155.618 480.831 155.856 480.756 156.088V156.095C479.09 161.491 477.099 166.793 474.794 171.976C470.552 181.517 465.302 190.629 459.123 199.176C458.68 199.801 458.223 200.426 457.759 201.044V100.155C458.216 100.129 458.666 100.129 459.123 100.142C459.341 100.142 459.56 100.148 459.778 100.161C461.703 100.257 463.604 100.606 465.427 101.198C466.068 101.398 466.689 101.624 467.303 101.875C474.746 104.954 480.592 111.745 483.13 119.212C485.033 124.804 485.415 130.686 484.917 136.561Z" fill="#7CF771"/>
<path d="M467.303 101.875C467.287 101.938 467.262 101.999 467.228 102.055C464.465 107.126 461.763 112.222 459.123 117.343C458.666 118.226 458.209 119.115 457.759 119.998V115.617C458.209 114.741 458.664 113.864 459.123 112.988C461.163 109.084 463.237 105.197 465.345 101.327C465.368 101.282 465.396 101.239 465.427 101.198C466.054 100.348 467.61 100.928 467.303 101.875Z" fill="white"/>
<path d="M485.136 137.598C485.013 137.805 484.89 138.011 484.753 138.217C482.75 141.514 480.366 144.59 477.645 147.391C472.418 152.746 466.124 157.074 459.123 160.128C458.673 160.334 458.216 160.527 457.759 160.708V158.614C458.216 158.421 458.673 158.221 459.123 158.015C469.257 153.45 477.676 146.073 483.253 136.87C483.333 136.739 483.443 136.626 483.574 136.538C483.705 136.45 483.854 136.389 484.012 136.36C484.17 136.332 484.332 136.335 484.488 136.371C484.645 136.407 484.791 136.474 484.917 136.568C485.003 136.622 485.077 136.691 485.135 136.772C485.192 136.854 485.233 136.945 485.253 137.04C485.273 137.136 485.273 137.235 485.253 137.33C485.233 137.426 485.193 137.517 485.136 137.598Z" fill="white"/>
<path d="M459.123 21.2602V70.223H457.759V69.7012H1.36441V70.223H0V21.2602C0.00585902 15.6233 2.37961 10.2189 6.60029 6.23307C10.821 2.24721 16.5438 0.00553304 22.5127 0H436.61C442.579 0.00553304 448.302 2.24721 452.523 6.23307C456.744 10.2189 459.117 15.6233 459.123 21.2602Z" fill="#FF4D52"/>
<path d="M436.61 1H22.5127C16.5438 1.00553 10.821 3.24721 6.60029 7.23307C2.37961 11.2189 0.00585902 16.6233 0 22.2602V301.864C0.00585902 307.501 2.37961 312.905 6.60029 316.891C10.821 320.877 16.5438 323.118 22.5127 323.124H436.61C442.579 323.118 448.302 320.877 452.523 316.891C456.744 312.905 459.117 307.501 459.123 301.864V22.2602C459.117 16.6233 456.744 11.2189 452.523 7.23307C448.302 3.24721 442.579 1.00553 436.61 1ZM457.759 301.864C457.752 307.158 455.521 312.234 451.557 315.978C447.592 319.722 442.217 321.829 436.61 321.835H22.5127C16.906 321.829 11.531 319.722 7.5665 315.978C3.60197 312.234 1.37156 307.158 1.36441 301.864V22.2602C1.37156 16.9654 3.60197 11.8895 7.5665 8.14553C11.531 4.40158 16.906 2.29525 22.5127 2.2885H436.61C442.217 2.29525 447.592 4.40158 451.557 8.14553C455.521 11.8895 457.752 16.9654 457.759 22.2602V301.864Z" fill="#3F3D56"/>
<path d="M92.7797 47.9965C100.315 47.9965 106.424 42.2277 106.424 35.1115C106.424 27.9954 100.315 22.2266 92.7797 22.2266C85.2443 22.2266 79.1357 27.9954 79.1357 35.1115C79.1357 42.2277 85.2443 47.9965 92.7797 47.9965Z" fill="white"/>
<path d="M366.343 47.9965C373.879 47.9965 379.988 42.2277 379.988 35.1115C379.988 27.9954 373.879 22.2266 366.343 22.2266C358.808 22.2266 352.699 27.9954 352.699 35.1115C352.699 42.2277 358.808 47.9965 366.343 47.9965Z" fill="white"/>
<path d="M132.201 178.78H51.0346C47.596 178.776 44.2994 177.485 41.8679 175.189C39.4365 172.892 38.0688 169.779 38.0649 166.532V130.304C38.0688 127.057 39.4365 123.944 41.8679 121.648C44.2994 119.351 47.596 118.06 51.0346 118.056H132.201C135.639 118.06 138.936 119.351 141.367 121.648C143.799 123.944 145.166 127.057 145.17 130.304V166.532C145.166 169.779 143.799 172.892 141.367 175.189C138.936 177.485 135.639 178.776 132.201 178.78Z" fill="#6C63FF"/>
<path d="M270.278 178.78H189.112C185.673 178.776 182.376 177.485 179.945 175.189C177.514 172.892 176.146 169.779 176.142 166.532V130.304C176.146 127.057 177.514 123.944 179.945 121.648C182.376 119.351 185.673 118.06 189.112 118.056H270.278C273.716 118.06 277.013 119.351 279.444 121.648C281.876 123.944 283.243 127.057 283.247 130.304V166.532C283.243 169.779 281.876 172.892 279.444 175.189C277.013 177.485 273.716 178.776 270.278 178.78Z" fill="#6C63FF"/>
<path d="M270.278 272.384H189.112C185.569 272.38 182.172 271.049 179.667 268.683C177.162 266.318 175.753 263.11 175.749 259.764V223.536C175.753 220.191 177.162 216.983 179.667 214.617C182.172 212.252 185.569 210.921 189.112 210.917H270.278C273.82 210.921 277.217 212.252 279.722 214.617C282.227 216.983 283.636 220.191 283.64 223.536V259.764C283.636 263.11 282.227 266.318 279.722 268.683C277.217 271.049 273.82 272.38 270.278 272.384Z" fill="#7597CE"/>
<path d="M131.934 272.384H50.7684C47.2256 272.38 43.8291 271.049 41.324 268.683C38.8188 266.318 37.4097 263.11 37.4057 259.764V223.536C37.4097 220.191 38.8188 216.983 41.324 214.617C43.8291 212.252 47.2256 210.921 50.7684 210.917H131.934C135.477 210.921 138.874 212.252 141.379 214.617C143.884 216.983 145.293 220.191 145.297 223.536V259.764C145.293 263.11 143.884 266.318 141.379 268.683C138.874 271.049 135.477 272.38 131.934 272.384Z" fill="#7597CE"/>
<path d="M408.355 272.384H327.189C323.646 272.38 320.249 271.049 317.744 268.683C315.239 266.318 313.83 263.11 313.826 259.764V223.536C313.83 220.191 315.239 216.983 317.744 214.617C320.249 212.252 323.646 210.921 327.189 210.917H408.355C411.898 210.921 415.294 212.252 417.799 214.617C420.304 216.983 421.713 220.191 421.717 223.536V259.764C421.713 263.11 420.304 266.318 417.799 268.683C415.294 271.049 411.898 272.38 408.355 272.384Z" fill="#7597CE"/>
<path d="M408.355 178.853H327.189C323.646 178.849 320.249 177.518 317.744 175.153C315.239 172.787 313.83 169.579 313.826 166.234V130.005C313.83 126.66 315.239 123.452 317.744 121.086C320.249 118.721 323.646 117.39 327.189 117.386H408.355C411.898 117.39 415.294 118.721 417.799 121.086C420.304 123.452 421.713 126.66 421.717 130.005V166.234C421.713 169.579 420.304 172.787 417.799 175.153C415.294 177.518 411.898 178.849 408.355 178.853Z" fill="#7597CE"/>
<path d="M91.6176 169.203C103.773 169.203 113.627 159.897 113.627 148.418C113.627 136.939 103.773 127.633 91.6176 127.633C79.4623 127.633 69.6085 136.939 69.6085 148.418C69.6085 159.897 79.4623 169.203 91.6176 169.203Z" fill="white"/>
<path d="M89.436 156.347C88.9408 156.348 88.4588 156.197 88.0625 155.916L88.038 155.899L82.8657 152.159C82.6258 151.986 82.4244 151.769 82.2731 151.523C82.1217 151.276 82.0233 151.003 81.9836 150.721C81.9438 150.438 81.9634 150.151 82.0413 149.875C82.1192 149.6 82.2538 149.341 82.4374 149.115C82.6211 148.889 82.8502 148.699 83.1116 148.556C83.373 148.413 83.6617 148.321 83.9611 148.284C84.2604 148.246 84.5646 148.265 84.8563 148.339C85.148 148.413 85.4214 148.54 85.6609 148.714L89.0111 151.14L96.9282 141.389C97.1119 141.163 97.3408 140.973 97.6021 140.831C97.8634 140.688 98.1519 140.595 98.451 140.558C98.7502 140.521 99.0543 140.54 99.3458 140.613C99.6373 140.687 99.9106 140.814 100.15 140.987L100.101 141.051L100.151 140.988C100.634 141.339 100.95 141.856 101.03 142.427C101.11 142.997 100.947 143.574 100.577 144.031L91.2642 155.5C91.0488 155.764 90.7718 155.978 90.4548 156.125C90.1377 156.272 89.7891 156.348 89.436 156.347Z" fill="#6C63FF"/>
<path d="M230.088 168.904C242.243 168.904 252.097 159.599 252.097 148.12C252.097 136.641 242.243 127.335 230.088 127.335C217.932 127.335 208.079 136.641 208.079 148.12C208.079 159.599 217.932 168.904 230.088 168.904Z" fill="white"/>
<path d="M227.906 156.048C227.411 156.049 226.929 155.898 226.533 155.618L226.508 155.6L221.336 151.86C220.852 151.51 220.535 150.993 220.455 150.423C220.375 149.852 220.539 149.275 220.909 148.818C221.28 148.361 221.828 148.062 222.432 147.986C223.036 147.911 223.647 148.065 224.131 148.415L227.481 150.841L235.398 141.091C235.582 140.864 235.811 140.675 236.072 140.532C236.334 140.39 236.622 140.297 236.921 140.26C237.22 140.222 237.524 140.241 237.816 140.315C238.107 140.388 238.381 140.516 238.62 140.689L238.571 140.752L238.621 140.69C239.104 141.041 239.421 141.558 239.5 142.128C239.58 142.699 239.417 143.276 239.047 143.732L229.734 155.202C229.519 155.466 229.242 155.68 228.925 155.827C228.608 155.973 228.259 156.049 227.906 156.048Z" fill="#6C63FF"/>
<path d="M378.836 246.199C379.559 245.452 380.1 244.565 380.421 243.6C380.741 242.634 380.834 241.614 380.692 240.611C380.55 239.609 380.177 238.647 379.599 237.795C379.021 236.943 378.252 236.221 377.347 235.68L365.06 173.721L350.116 178.954L366.893 238.212C366.031 239.709 365.781 241.452 366.189 243.111C366.598 244.771 367.636 246.231 369.108 247.215C370.58 248.2 372.384 248.64 374.177 248.453C375.97 248.265 377.627 247.464 378.836 246.199Z" fill="#A0616A"/>
<path d="M259.597 151.656C259.634 152.041 259.639 152.428 259.612 152.813L288.667 173.931L296.907 170.736L303.638 181.849L289.634 188.844C288.502 189.409 287.208 189.613 285.943 189.423C284.679 189.234 283.514 188.663 282.623 187.796L253.581 159.52C252.044 159.848 250.437 159.725 248.975 159.169C247.513 158.614 246.265 157.651 245.397 156.409C244.529 155.167 244.082 153.704 244.115 152.216C244.148 150.729 244.66 149.285 245.583 148.079C246.506 146.873 247.796 145.96 249.281 145.463C250.767 144.966 252.377 144.908 253.899 145.296C255.42 145.684 256.78 146.501 257.798 147.637C258.816 148.773 259.443 150.175 259.597 151.656Z" fill="#A0616A"/>
<path d="M327.477 356.172H319.114L315.135 332.149L327.479 332.15L327.477 356.172Z" fill="#A0616A"/>
<path d="M329.61 363.828L302.642 363.827V363.505C302.642 362.203 302.914 360.914 303.441 359.712C303.969 358.509 304.742 357.416 305.717 356.496C306.691 355.575 307.849 354.845 309.122 354.347C310.396 353.849 311.761 353.593 313.139 353.593L329.611 353.593L329.61 363.828Z" fill="#2F2E41"/>
<path d="M358.858 356.172H350.495L346.516 332.149L358.86 332.15L358.858 356.172Z" fill="#A0616A"/>
<path d="M360.992 363.828L334.024 363.827V363.505C334.024 362.203 334.295 360.914 334.823 359.712C335.35 358.509 336.123 357.416 337.098 356.496C338.073 355.575 339.23 354.845 340.503 354.347C341.777 353.849 343.142 353.593 344.52 353.593L360.992 353.593L360.992 363.828Z" fill="#2F2E41"/>
<path d="M317.377 351.424C316.613 351.424 315.877 351.156 315.312 350.671C314.748 350.185 314.395 349.518 314.324 348.8L307.036 256.229L307.38 256.202L357.537 252.309L357.55 252.646L361.537 348.542C361.553 348.932 361.485 349.32 361.337 349.685C361.19 350.049 360.967 350.381 360.68 350.662C360.394 350.943 360.05 351.166 359.671 351.319C359.291 351.471 358.882 351.55 358.469 351.55H348.635C347.901 351.553 347.19 351.306 346.633 350.855C346.075 350.403 345.709 349.777 345.601 349.092L332.246 271.624C332.233 271.544 332.188 271.472 332.121 271.421C332.054 271.371 331.97 271.346 331.884 271.352C331.799 271.358 331.719 271.394 331.66 271.453C331.601 271.512 331.568 271.59 331.568 271.67L330.962 348.158C330.956 348.897 330.651 349.605 330.111 350.139C329.57 350.674 328.835 350.993 328.054 351.033L317.542 351.419C317.487 351.423 317.431 351.424 317.377 351.424Z" fill="#2F2E41"/>
<path d="M325.938 139.238C335.192 139.238 342.693 132.154 342.693 123.415C342.693 114.676 335.192 107.592 325.938 107.592C316.684 107.592 309.182 114.676 309.182 123.415C309.182 132.154 316.684 139.238 325.938 139.238Z" fill="#A0616A"/>
<path d="M329.182 262.133C321.858 262.112 314.57 261.171 307.509 259.335C306.83 259.149 306.239 258.746 305.837 258.196C305.435 257.646 305.246 256.982 305.302 256.316C307.557 224.301 308.088 199.457 303.344 182.267C301.323 174.94 302.24 167.224 305.862 161.097C311.313 151.876 321.332 146.264 332.018 146.457C332.529 146.466 333.045 146.484 333.565 146.509C349.783 147.298 362.421 161.153 361.737 177.395L358.474 254.814C358.462 255.379 358.274 255.927 357.932 256.391C357.59 256.855 357.111 257.212 356.554 257.419C347.803 260.528 338.531 262.125 329.182 262.133Z" fill="#3F3D56"/>
<path d="M306.102 188.211L293.551 173.687C293.194 173.274 292.935 172.792 292.792 172.276C292.65 171.76 292.627 171.221 292.725 170.696C292.823 170.171 293.04 169.671 293.361 169.232C293.681 168.793 294.098 168.425 294.584 168.152L311.585 158.584C313.834 156.871 316.712 156.069 319.586 156.356C322.46 156.642 325.096 157.993 326.917 160.113C328.738 162.233 329.594 164.948 329.298 167.662C329.002 170.377 327.578 172.871 325.339 174.596L312.051 188.365C311.67 188.759 311.204 189.071 310.685 189.28C310.165 189.489 309.604 189.589 309.039 189.575C308.474 189.56 307.92 189.431 307.413 189.195C306.906 188.96 306.459 188.624 306.102 188.211Z" fill="#3F3D56"/>
<path d="M345.584 186.389C345.068 186.171 344.609 185.85 344.236 185.449C343.864 185.049 343.587 184.576 343.426 184.065L337.775 166.216C336.549 163.745 336.41 160.915 337.39 158.347C338.37 155.779 340.389 153.683 343.003 152.518C345.617 151.354 348.614 151.216 351.335 152.135C354.057 153.055 356.281 154.955 357.521 157.421L368.447 173.005C368.759 173.449 368.966 173.952 369.053 174.479C369.14 175.006 369.106 175.545 368.954 176.058C368.801 176.572 368.532 177.048 368.167 177.455C367.802 177.862 367.348 178.189 366.836 178.415L348.857 186.363C348.346 186.589 347.788 186.709 347.224 186.713C346.659 186.718 346.099 186.607 345.584 186.389Z" fill="#3F3D56"/>
<path d="M334.218 136.398L321.798 133.714C320.516 133.437 318.977 132.908 318.8 131.679C318.561 130.026 321.079 128.875 320.847 127.221C320.622 125.62 318.328 125.414 316.692 124.941C315.168 124.436 313.913 123.392 313.19 122.028C312.468 120.664 312.336 119.089 312.822 117.635C311.052 119.99 307.009 120.192 304.713 118.284C302.418 116.376 301.977 112.913 303.356 110.335C304.101 109.069 305.151 107.986 306.423 107.176C307.694 106.365 309.15 105.85 310.672 105.671C313.732 105.343 316.826 105.888 319.556 107.235C319.738 105.409 322.151 104.669 324.093 104.653C328.126 104.697 332.044 105.928 335.301 108.173C338.559 110.419 340.995 113.568 342.269 117.181C344.651 124.43 343.058 132.377 336.392 136.618L334.218 136.398Z" fill="#2F2E41"/>
<path d="M459.319 364H199.4C199.219 364 199.045 363.932 198.917 363.811C198.789 363.69 198.717 363.527 198.717 363.356C198.717 363.185 198.789 363.021 198.917 362.9C199.045 362.779 199.219 362.711 199.4 362.711H459.319C459.5 362.711 459.674 362.779 459.802 362.9C459.93 363.021 460.001 363.185 460.001 363.356C460.001 363.527 459.93 363.69 459.802 363.811C459.674 363.932 459.5 364 459.319 364Z" fill="#3F3D56"/>
</g>
<path d="M170.219 405.684H164.474V402.848H170.219C171.303 402.848 172.176 402.631 172.839 402.197C173.513 401.764 174.001 401.161 174.302 400.391C174.615 399.62 174.772 398.741 174.772 397.753C174.772 396.85 174.615 396 174.302 395.206C174.001 394.411 173.513 393.772 172.839 393.291C172.176 392.797 171.303 392.55 170.219 392.55H165.161V416H161.836V389.695H170.219C171.917 389.695 173.351 390.039 174.519 390.725C175.687 391.412 176.573 392.363 177.175 393.58C177.789 394.784 178.096 396.163 178.096 397.717C178.096 399.403 177.789 400.842 177.175 402.035C176.573 403.227 175.687 404.136 174.519 404.763C173.351 405.377 171.917 405.684 170.219 405.684ZM185.359 396.452V416H182.179V396.452H185.359ZM181.999 391.267C181.999 390.725 182.149 390.267 182.45 389.894C182.751 389.521 183.203 389.334 183.805 389.334C184.407 389.334 184.859 389.521 185.16 389.894C185.473 390.267 185.63 390.725 185.63 391.267C185.63 391.785 185.473 392.231 185.16 392.604C184.859 392.965 184.407 393.146 183.805 393.146C183.203 393.146 182.751 392.965 182.45 392.604C182.149 392.231 181.999 391.785 181.999 391.267ZM197.192 413.633C197.831 413.633 198.409 413.507 198.927 413.254C199.457 412.989 199.89 412.579 200.228 412.025C200.565 411.459 200.757 410.725 200.806 409.821H203.805C203.757 411.122 203.425 412.266 202.811 413.254C202.209 414.229 201.414 414.994 200.426 415.548C199.451 416.09 198.373 416.361 197.192 416.361C195.928 416.361 194.826 416.157 193.886 415.747C192.959 415.338 192.188 414.747 191.574 413.977C190.972 413.194 190.52 412.248 190.219 411.14C189.918 410.02 189.767 408.749 189.767 407.328V405.124C189.767 403.703 189.918 402.438 190.219 401.33C190.52 400.21 190.972 399.264 191.574 398.494C192.188 397.711 192.959 397.115 193.886 396.705C194.826 396.296 195.928 396.091 197.192 396.091C198.517 396.091 199.661 396.374 200.625 396.94C201.601 397.494 202.359 398.301 202.901 399.361C203.455 400.409 203.757 401.679 203.805 403.173H200.806C200.757 402.209 200.583 401.408 200.282 400.77C199.981 400.12 199.571 399.638 199.053 399.325C198.535 399 197.915 398.837 197.192 398.837C196.349 398.837 195.651 398.987 195.097 399.289C194.555 399.578 194.127 399.999 193.814 400.553C193.501 401.107 193.278 401.77 193.146 402.541C193.025 403.311 192.965 404.173 192.965 405.124V407.328C192.965 408.28 193.025 409.147 193.146 409.93C193.278 410.701 193.495 411.363 193.796 411.917C194.109 412.471 194.543 412.899 195.097 413.2C195.651 413.489 196.349 413.633 197.192 413.633ZM210.724 388.25V416H207.526V388.25H210.724ZM220.643 396.452L213.687 405.576L209.387 410.526L209.17 406.967L212.133 402.884L216.794 396.452H220.643ZM217.716 416L212.224 406.678L213.868 403.697L221.438 416H217.716ZM242.268 412.658V402.053C242.268 401.282 242.148 400.662 241.907 400.192C241.678 399.722 241.329 399.379 240.859 399.162C240.401 398.945 239.823 398.837 239.125 398.837C238.45 398.837 237.866 398.975 237.372 399.252C236.89 399.529 236.517 399.897 236.252 400.354C235.999 400.812 235.873 401.318 235.873 401.872H232.675C232.675 401.174 232.825 400.481 233.126 399.794C233.44 399.108 233.885 398.488 234.463 397.934C235.042 397.368 235.734 396.922 236.541 396.597C237.36 396.259 238.275 396.091 239.287 396.091C240.492 396.091 241.557 396.29 242.485 396.687C243.412 397.072 244.141 397.705 244.671 398.584C245.201 399.463 245.466 400.632 245.466 402.089V411.736C245.466 412.387 245.514 413.079 245.61 413.814C245.719 414.549 245.869 415.181 246.062 415.711V416H242.756C242.599 415.615 242.479 415.103 242.395 414.464C242.31 413.814 242.268 413.212 242.268 412.658ZM242.774 404.148L242.81 406.497H240.588C239.829 406.497 239.137 406.581 238.51 406.75C237.896 406.919 237.366 407.166 236.92 407.491C236.475 407.804 236.132 408.195 235.891 408.665C235.662 409.135 235.547 409.671 235.547 410.273C235.547 411.056 235.656 411.682 235.873 412.152C236.089 412.61 236.415 412.941 236.848 413.146C237.282 413.35 237.83 413.453 238.492 413.453C239.299 413.453 240.01 413.266 240.624 412.893C241.238 412.519 241.714 412.068 242.051 411.538C242.401 411.008 242.563 410.514 242.539 410.056L243.244 411.556C243.195 412.025 243.039 412.537 242.774 413.091C242.521 413.633 242.166 414.157 241.708 414.663C241.25 415.157 240.708 415.566 240.082 415.892C239.468 416.205 238.775 416.361 238.004 416.361C236.872 416.361 235.879 416.145 235.023 415.711C234.18 415.277 233.524 414.639 233.054 413.796C232.584 412.953 232.35 411.911 232.35 410.67C232.35 409.731 232.512 408.864 232.837 408.069C233.163 407.274 233.644 406.587 234.283 406.009C234.921 405.419 235.722 404.961 236.686 404.636C237.661 404.311 238.787 404.148 240.064 404.148H242.774ZM269.169 412.206V388.25H272.349V416H269.44L269.169 412.206ZM258.239 407.166V405.341C258.239 403.727 258.395 402.342 258.708 401.186C259.022 400.017 259.467 399.06 260.045 398.313C260.624 397.554 261.316 396.994 262.123 396.633C262.93 396.271 263.821 396.091 264.797 396.091C265.809 396.091 266.676 396.296 267.398 396.705C268.133 397.115 268.747 397.711 269.241 398.494C269.735 399.264 270.12 400.204 270.397 401.312C270.687 402.408 270.879 403.649 270.976 405.034V407.473C270.867 408.846 270.668 410.08 270.379 411.176C270.102 412.272 269.717 413.206 269.223 413.977C268.729 414.747 268.115 415.338 267.38 415.747C266.646 416.157 265.772 416.361 264.761 416.361C263.797 416.361 262.918 416.175 262.123 415.801C261.328 415.416 260.636 414.844 260.045 414.085C259.467 413.314 259.022 412.357 258.708 411.212C258.395 410.056 258.239 408.707 258.239 407.166ZM261.437 405.341V407.166C261.437 408.25 261.515 409.195 261.671 410.002C261.828 410.797 262.075 411.459 262.412 411.989C262.749 412.507 263.177 412.893 263.695 413.146C264.225 413.398 264.857 413.525 265.592 413.525C266.483 413.525 267.212 413.308 267.778 412.875C268.344 412.441 268.796 411.869 269.133 411.158C269.482 410.436 269.759 409.659 269.964 408.828V403.697C269.843 403.083 269.669 402.492 269.44 401.926C269.211 401.348 268.922 400.836 268.573 400.391C268.236 399.933 267.82 399.572 267.326 399.307C266.844 399.042 266.278 398.909 265.628 398.909C264.893 398.909 264.255 399.042 263.713 399.307C263.183 399.572 262.749 399.969 262.412 400.499C262.087 401.029 261.84 401.697 261.671 402.504C261.515 403.311 261.437 404.257 261.437 405.341ZM286.856 412.658V402.053C286.856 401.282 286.736 400.662 286.495 400.192C286.266 399.722 285.917 399.379 285.447 399.162C284.989 398.945 284.411 398.837 283.712 398.837C283.038 398.837 282.454 398.975 281.96 399.252C281.478 399.529 281.105 399.897 280.84 400.354C280.587 400.812 280.46 401.318 280.46 401.872H277.263C277.263 401.174 277.413 400.481 277.714 399.794C278.028 399.108 278.473 398.488 279.051 397.934C279.629 397.368 280.322 396.922 281.129 396.597C281.948 396.259 282.863 396.091 283.875 396.091C285.079 396.091 286.145 396.29 287.073 396.687C288 397.072 288.729 397.705 289.259 398.584C289.789 399.463 290.054 400.632 290.054 402.089V411.736C290.054 412.387 290.102 413.079 290.198 413.814C290.307 414.549 290.457 415.181 290.65 415.711V416H287.344C287.187 415.615 287.067 415.103 286.982 414.464C286.898 413.814 286.856 413.212 286.856 412.658ZM287.362 404.148L287.398 406.497H285.176C284.417 406.497 283.724 406.581 283.098 406.75C282.484 406.919 281.954 407.166 281.508 407.491C281.063 407.804 280.719 408.195 280.479 408.665C280.25 409.135 280.135 409.671 280.135 410.273C280.135 411.056 280.244 411.682 280.46 412.152C280.677 412.61 281.002 412.941 281.436 413.146C281.87 413.35 282.418 413.453 283.08 413.453C283.887 413.453 284.598 413.266 285.212 412.893C285.826 412.519 286.302 412.068 286.639 411.538C286.988 411.008 287.151 410.514 287.127 410.056L287.832 411.556C287.783 412.025 287.627 412.537 287.362 413.091C287.109 413.633 286.754 414.157 286.296 414.663C285.838 415.157 285.296 415.566 284.67 415.892C284.056 416.205 283.363 416.361 282.592 416.361C281.46 416.361 280.466 416.145 279.611 415.711C278.768 415.277 278.112 414.639 277.642 413.796C277.172 412.953 276.938 411.911 276.938 410.67C276.938 409.731 277.1 408.864 277.425 408.069C277.75 407.274 278.232 406.587 278.871 406.009C279.509 405.419 280.31 404.961 281.273 404.636C282.249 404.311 283.375 404.148 284.652 404.148H287.362ZM302.158 396.452V399.018H293.035V396.452H302.158ZM296.016 391.701H299.213V411.158C299.213 411.821 299.292 412.32 299.448 412.658C299.617 412.995 299.828 413.218 300.081 413.326C300.333 413.435 300.604 413.489 300.894 413.489C301.11 413.489 301.351 413.465 301.616 413.417C301.881 413.356 302.062 413.308 302.158 413.272L302.14 416C301.923 416.084 301.634 416.163 301.273 416.235C300.912 416.319 300.454 416.361 299.9 416.361C299.213 416.361 298.575 416.199 297.985 415.874C297.395 415.548 296.919 415.006 296.558 414.248C296.196 413.477 296.016 412.441 296.016 411.14V391.701ZM312.962 416.361C311.794 416.361 310.74 416.187 309.8 415.837C308.861 415.488 308.06 414.958 307.397 414.248C306.735 413.525 306.229 412.616 305.88 411.52C305.531 410.424 305.356 409.129 305.356 407.635V405.431C305.356 403.709 305.555 402.251 305.952 401.059C306.362 399.867 306.91 398.909 307.596 398.187C308.283 397.452 309.06 396.922 309.927 396.597C310.794 396.259 311.685 396.091 312.601 396.091C313.829 396.091 314.877 396.29 315.744 396.687C316.611 397.084 317.316 397.675 317.858 398.458C318.4 399.24 318.797 400.204 319.05 401.348C319.315 402.492 319.448 403.811 319.448 405.305V407.166H307.235V404.438H316.25V403.986C316.202 402.974 316.063 402.083 315.834 401.312C315.618 400.541 315.256 399.939 314.75 399.505C314.245 399.06 313.528 398.837 312.601 398.837C312.01 398.837 311.462 398.939 310.957 399.144C310.463 399.337 310.035 399.68 309.674 400.174C309.325 400.656 309.048 401.324 308.843 402.179C308.65 403.034 308.554 404.118 308.554 405.431V407.635C308.554 408.683 308.65 409.586 308.843 410.345C309.048 411.092 309.343 411.712 309.728 412.206C310.125 412.688 310.607 413.049 311.173 413.29C311.751 413.519 312.408 413.633 313.143 413.633C314.215 413.633 315.1 413.429 315.798 413.019C316.497 412.597 317.105 412.062 317.623 411.411L319.303 413.417C318.954 413.91 318.496 414.386 317.93 414.844C317.376 415.289 316.69 415.657 315.871 415.946C315.064 416.223 314.094 416.361 312.962 416.361Z" fill="black"/>
<defs>
<clipPath id="clip0_40_5">
<rect width="582" height="364" fill="white"/>
</clipPath>
</defs>
</svg>
